{"glyphs":{"0":{"ha":669,"x_min":25,"x_max":650,"o":"m 111 153 q 142 39 111 78 q 225 0 174 0 q 316 47 272 0 q 398 169 360 94 q 467 333 436 243 q 519 511 497 424 q 552 673 540 599 q 564 788 564 747 q 533 917 564 875 q 453 958 501 958 q 358 910 403 958 q 276 788 314 863 q 207 620 238 713 q 155 438 176 528 q 122 272 133 349 q 111 153 111 196 m 25 278 q 64 531 25 406 q 164 756 103 657 q 301 917 225 856 q 450 978 376 978 q 539 954 501 978 q 601 890 576 931 q 638 795 626 849 q 650 683 650 742 q 609 421 650 547 q 506 197 568 294 q 369 40 443 99 q 228 -18 294 -18 q 78 58 132 -18 q 25 278 25 135 "},"1":{"ha":669,"x_min":68,"x_max":572,"o":"m 443 867 q 385 832 417 850 q 323 797 354 814 q 263 765 292 779 q 214 743 235 751 l 204 760 q 281 796 235 772 q 378 849 328 819 q 474 913 428 879 q 553 978 521 946 l 572 978 l 304 19 l 453 19 l 447 0 l 68 0 l 74 19 l 207 19 l 443 867 "},"2":{"ha":669,"x_min":-107,"x_max":624,"o":"m -100 0 l -107 18 q 103 224 1 122 q 314 439 206 326 q 457 619 401 531 q 513 790 513 707 q 478 910 513 861 q 368 958 443 958 q 303 948 332 958 q 253 921 274 938 q 222 884 233 904 q 211 843 211 864 q 212 826 211 832 q 214 817 213 821 q 216 807 215 813 q 217 790 217 801 q 201 751 217 767 q 158 736 186 736 q 106 796 106 736 q 126 853 106 821 q 182 913 146 885 q 269 959 218 940 q 379 978 319 978 q 474 960 429 978 q 551 914 518 943 q 604 846 585 885 q 624 764 624 807 q 608 679 624 719 q 565 601 592 639 q 500 527 538 564 q 419 453 463 490 l 0 94 l 0 92 l 364 92 q 434 103 404 92 q 475 153 464 114 l 492 206 l 513 206 l 458 0 l -100 0 "},"3":{"ha":669,"x_min":-62,"x_max":611,"o":"m 157 501 q 255 524 194 510 q 372 574 315 539 q 466 676 432 610 q 500 824 500 743 q 471 924 500 890 q 388 958 442 958 q 294 924 319 958 q 268 840 268 890 q 256 784 268 803 q 208 765 243 765 q 176 776 189 765 q 163 814 163 788 q 180 874 163 844 q 227 926 197 903 q 299 963 257 949 q 390 978 340 978 q 475 965 435 978 q 545 927 515 951 q 593 871 575 903 q 611 801 611 839 q 574 692 611 740 q 486 609 536 644 q 384 551 436 574 q 303 519 332 529 l 304 517 q 382 508 342 517 q 456 479 422 500 q 510 422 489 458 q 532 328 532 385 q 495 206 532 269 q 398 89 458 142 q 260 2 338 36 q 103 -32 183 -32 q 24 -23 56 -32 q -28 -1 -8 -14 q -55 28 -47 13 q -62 57 -62 44 q -47 89 -62 79 q -14 99 -32 99 q 17 91 3 99 q 47 51 31 83 q 65 21 57 33 q 84 1 74 8 q 109 -9 94 -6 q 144 -12 124 -12 q 250 20 200 -12 q 338 103 300 53 q 399 216 376 154 q 421 338 421 278 q 385 455 421 408 q 276 501 349 501 q 244 499 261 501 q 210 492 226 496 q 181 485 194 489 q 163 481 168 482 l 157 501 "},"4":{"ha":669,"x_min":-29,"x_max":686,"o":"m 290 19 l 350 243 l -29 243 l -24 263 q 53 371 4 304 q 170 522 103 438 q 323 704 238 606 q 510 910 408 803 q 542 944 529 931 q 567 965 556 958 q 592 975 579 972 q 626 978 606 978 q 668 972 650 978 q 686 947 686 967 q 675 922 686 932 q 639 893 664 913 q 410 713 510 799 q 235 548 311 626 q 101 398 158 469 q 0 263 44 326 l 356 263 l 453 624 l 558 624 l 461 263 l 608 263 l 603 243 l 456 243 l 396 19 l 507 19 l 501 0 l 175 0 l 181 19 l 290 19 "},"5":{"ha":669,"x_min":-69,"x_max":644,"o":"m 286 965 q 408 960 344 961 q 519 958 471 958 q 595 974 571 958 q 632 1003 619 989 l 644 993 q 622 956 635 979 q 588 913 608 933 q 540 876 568 892 q 474 861 513 861 l 414 861 q 344 863 378 861 q 281 868 310 865 l 211 621 q 458 548 381 615 q 535 378 535 481 q 497 228 535 303 q 398 93 460 153 q 257 -3 336 33 q 94 -40 178 -40 q 34 -35 64 -40 q -19 -21 4 -31 q -56 3 -42 -11 q -69 39 -69 18 q -55 77 -69 63 q -19 92 -40 92 q 9 86 -1 92 q 26 72 19 81 q 38 54 33 64 q 46 36 42 44 q 70 2 54 17 q 132 -12 86 -12 q 238 14 185 -12 q 333 88 290 40 q 403 199 376 135 q 429 338 429 263 q 405 440 429 403 q 342 495 381 476 q 257 519 304 514 q 165 524 210 524 l 286 965 "},"6":{"ha":669,"x_min":22,"x_max":694,"o":"m 108 136 q 135 39 108 78 q 229 0 163 0 q 383 101 328 0 q 418 181 401 135 q 448 274 435 226 q 469 366 461 322 q 476 439 476 410 q 447 542 476 503 q 356 582 418 582 q 310 574 332 582 q 268 556 288 567 q 233 533 249 546 q 204 511 217 521 q 169 419 186 469 q 138 317 151 368 q 117 219 125 267 q 108 136 108 172 m 22 228 q 44 393 22 307 q 105 563 67 479 q 194 722 143 646 q 302 854 244 797 q 421 944 360 911 q 540 978 482 978 q 606 968 578 978 q 655 943 635 958 q 685 909 675 928 q 694 872 694 890 q 676 828 694 840 q 633 815 657 815 q 592 828 607 815 q 578 858 578 842 q 578 872 578 867 q 581 882 579 878 q 583 892 582 886 q 583 907 583 897 q 562 940 583 931 q 511 950 540 950 q 428 924 465 950 q 360 856 392 899 q 303 756 329 813 q 251 636 276 699 l 218 551 l 221 549 q 281 585 246 568 q 365 601 315 601 q 446 583 408 601 q 512 531 483 564 q 557 455 540 499 q 574 360 574 411 q 545 226 574 293 q 470 104 517 158 q 363 16 424 50 q 235 -18 301 -18 q 138 2 178 -18 q 72 56 97 22 q 34 135 46 90 q 22 228 22 179 "},"7":{"ha":669,"x_min":101,"x_max":678,"o":"m 194 958 l 678 958 q 663 898 674 931 q 637 831 651 865 q 606 764 622 797 q 576 700 590 731 l 257 49 q 215 -7 235 4 q 165 -18 196 -18 q 119 -10 136 -18 q 101 18 101 -3 q 111 47 101 32 q 136 85 121 63 l 510 643 q 577 757 547 701 q 629 861 607 813 l 268 861 q 220 851 239 861 q 190 826 201 842 q 171 790 178 811 q 158 746 164 769 l 139 746 l 194 958 "},"8":{"ha":669,"x_min":1,"x_max":644,"o":"m 401 551 q 517 660 476 592 q 558 821 558 729 q 421 958 558 958 q 291 906 340 958 q 242 774 242 854 q 247 725 242 747 q 263 682 251 703 q 292 642 274 661 q 340 600 311 622 l 401 551 m 292 504 l 261 488 q 173 419 207 458 q 120 340 139 381 q 94 260 101 299 q 88 190 88 221 q 99 117 88 151 q 133 56 111 82 q 185 15 154 31 q 254 0 215 0 q 361 24 317 0 q 435 84 406 47 q 478 165 464 121 q 492 249 492 208 q 483 309 492 283 q 458 356 474 335 q 419 398 442 378 q 368 442 396 418 l 292 504 m 474 492 q 549 406 519 451 q 578 296 578 361 q 557 200 578 254 q 495 97 536 146 q 394 15 454 49 q 254 -18 333 -18 q 154 1 200 -18 q 74 54 108 21 q 21 131 40 88 q 1 224 1 175 q 19 307 1 268 q 67 378 38 346 q 133 438 96 411 q 208 483 171 464 l 276 518 q 231 559 251 539 q 196 603 211 579 q 172 654 181 626 q 164 718 164 682 q 181 812 164 765 q 231 895 199 858 q 312 955 264 932 q 421 978 360 978 q 501 966 461 978 q 572 931 540 954 q 624 871 604 907 q 644 786 644 835 q 622 699 644 736 q 566 633 600 663 q 492 582 532 604 q 418 539 453 560 l 474 492 "},"9":{"ha":669,"x_min":-19,"x_max":651,"o":"m 197 536 q 224 418 197 460 q 318 376 251 376 q 406 400 367 376 q 474 450 446 424 q 503 542 488 496 q 533 635 519 588 q 556 731 547 682 q 565 829 565 779 q 536 925 565 892 q 436 958 507 958 q 328 913 374 958 q 254 801 283 867 q 211 663 225 736 q 197 536 197 590 m 458 407 l 456 410 q 396 374 431 390 q 308 357 361 357 q 224 376 263 357 q 158 427 186 394 q 115 503 131 460 q 100 599 100 547 q 128 733 100 665 q 203 854 157 800 q 311 943 250 908 q 439 978 372 978 q 536 958 496 978 q 602 903 576 938 q 640 824 628 868 q 651 731 651 779 q 631 565 651 651 q 576 395 611 478 q 492 238 540 313 q 388 106 444 163 q 271 15 332 49 q 147 -18 210 -18 q 69 -9 101 -18 q 17 15 38 0 q -11 49 -3 31 q -19 86 -19 68 q -3 131 -19 118 q 40 143 13 143 q 81 130 67 143 q 96 100 96 117 q 95 86 96 92 q 93 76 94 81 q 91 67 92 72 q 90 51 90 61 q 117 15 90 22 q 174 8 144 8 q 252 25 218 8 q 316 80 286 42 q 374 181 346 118 q 433 335 401 243 l 458 407 "}," ":{"ha":333,"x_min":0,"x_max":0,"o":""},"\u0000":{"ha":0,"x_min":0,"x_max":0,"o":""},"!":{"ha":438,"x_min":47,"x_max":415,"o":"m 47 47 q 66 94 47 75 q 113 113 85 113 q 159 94 140 113 q 178 47 178 75 q 159 1 178 19 q 113 -17 140 -17 q 66 1 85 -17 q 47 47 47 19 m 289 940 q 315 994 296 981 q 354 1007 333 1007 q 397 994 378 1007 q 415 953 415 982 q 410 920 415 938 q 396 879 404 903 l 174 247 l 164 247 l 289 940 "},"\"":{"ha":617,"x_min":296,"x_max":549,"o":"m 481 911 q 479 932 479 918 l 479 954 q 486 992 479 978 q 514 1007 493 1007 q 542 992 535 1007 q 549 954 549 978 l 549 932 q 547 911 549 918 l 526 606 l 501 606 l 481 911 m 297 911 q 296 932 296 918 l 296 954 q 303 992 296 978 q 331 1007 310 1007 q 358 992 351 1007 q 365 954 365 978 l 365 932 q 364 911 365 918 l 343 606 l 318 606 l 297 911 "},"#":{"ha":772,"x_min":-7,"x_max":774,"o":"m 215 354 l 450 354 l 550 629 l 315 629 l 215 354 m 86 0 l 57 0 l 176 329 l -7 329 l 1 354 l 186 354 l 286 629 l 101 629 l 111 654 l 296 654 l 417 989 l 446 989 l 325 654 l 560 654 l 681 989 l 710 989 l 589 654 l 774 654 l 764 629 l 579 629 l 479 354 l 664 354 l 654 329 l 469 329 l 350 0 l 321 0 l 440 329 l 206 329 l 86 0 "},"$":{"ha":875,"x_min":0,"x_max":846,"o":"m 74 275 l 93 275 q 89 245 90 261 q 88 214 88 229 q 100 144 88 181 q 138 78 113 108 q 203 26 164 47 q 299 0 243 4 l 425 471 l 372 514 q 270 626 306 568 q 235 746 235 683 q 279 893 235 836 q 389 978 324 950 q 473 1001 433 996 q 569 1007 513 1007 l 590 1085 l 610 1085 l 589 1006 q 651 996 626 1003 q 695 981 676 989 q 733 967 714 974 q 776 960 751 961 q 810 970 797 960 q 826 994 822 981 l 846 989 l 779 736 l 757 736 q 762 765 760 747 q 764 799 764 782 q 756 858 764 828 q 728 915 749 889 q 673 961 708 942 q 583 986 638 981 l 474 576 l 551 514 q 615 461 586 486 q 663 408 643 436 q 694 348 683 381 q 706 274 706 315 q 649 111 706 182 q 500 6 592 40 q 406 -14 456 -10 q 313 -18 357 -18 l 285 -118 l 265 -118 l 293 -18 q 216 -6 249 -15 q 158 13 183 3 q 115 30 133 22 q 79 38 96 38 q 42 24 56 38 q 19 -4 28 11 l 0 0 l 74 275 m 318 0 q 453 20 397 0 q 545 73 510 40 q 597 146 581 106 q 614 225 614 186 q 590 315 614 275 q 508 403 567 356 l 442 457 l 318 0 m 564 988 q 385 936 450 988 q 321 789 321 885 q 346 700 321 742 q 436 607 371 658 l 457 590 l 564 988 "},"%":{"ha":1081,"x_min":83,"x_max":997,"o":"m 83 683 q 100 772 83 721 q 149 868 117 822 q 231 946 182 914 q 347 978 281 978 q 419 965 388 978 q 472 928 450 951 q 504 875 493 906 q 515 810 515 844 q 497 708 515 761 q 444 612 479 656 q 360 540 410 568 q 246 511 310 511 q 129 553 175 511 q 83 683 83 596 m 161 639 q 182 563 161 594 q 254 531 203 531 q 322 552 293 531 q 371 607 350 574 q 404 680 392 640 q 424 756 417 719 q 435 819 432 792 q 438 854 438 846 q 415 931 438 903 q 342 958 393 958 q 257 926 292 958 q 201 844 222 893 q 171 740 181 796 q 161 639 161 685 m 643 108 q 664 32 643 64 q 736 0 685 0 q 803 22 775 0 q 853 76 832 43 q 886 149 874 110 q 906 225 899 189 q 917 288 914 261 q 919 324 919 315 q 897 400 919 372 q 824 428 875 428 q 739 395 774 428 q 683 314 704 363 q 653 210 663 265 q 643 108 643 154 m 835 1004 l 858 989 l 257 -15 l 233 0 l 835 1004 m 565 153 q 582 241 565 190 q 631 338 599 292 q 713 415 664 383 q 829 447 763 447 q 901 434 869 447 q 953 398 932 421 q 986 344 975 375 q 997 279 997 314 q 979 178 997 231 q 926 81 961 125 q 842 10 892 38 q 728 -18 792 -18 q 611 24 657 -18 q 565 153 565 65 "},"&":{"ha":1183,"x_min":78,"x_max":1035,"o":"m 700 988 q 628 964 654 988 q 590 903 603 940 q 574 818 578 865 q 568 724 569 771 q 630 749 593 732 q 702 789 667 765 q 763 842 738 813 q 788 907 788 872 q 764 965 788 942 q 700 988 740 988 m 381 643 q 292 594 326 622 q 237 534 257 567 q 210 464 217 501 q 203 385 203 426 q 205 322 203 360 q 213 241 207 283 q 229 156 218 199 q 258 78 240 113 q 303 22 276 43 q 368 0 331 0 q 435 15 406 0 q 487 52 464 31 q 526 97 510 74 q 554 139 543 121 q 502 244 522 190 q 471 350 482 299 q 456 447 460 401 q 451 522 451 492 q 453 596 451 554 q 460 674 456 638 l 381 643 m 463 694 q 484 790 468 736 q 528 892 500 843 q 598 974 557 940 q 696 1007 639 1007 q 778 978 750 1007 q 807 904 807 949 q 781 833 807 865 q 717 775 754 800 q 638 732 679 750 q 568 704 597 714 q 577 537 571 628 q 604 350 583 446 l 624 263 l 626 263 q 691 394 661 333 q 753 501 721 456 q 824 572 786 546 q 914 597 863 597 q 1001 569 967 597 q 1035 497 1035 542 q 1021 451 1035 469 q 979 432 1007 432 q 929 479 929 432 q 931 499 929 492 q 935 513 933 507 q 939 524 938 518 q 940 543 940 531 q 928 570 940 563 q 897 578 917 578 q 827 550 868 578 q 743 449 786 522 q 713 392 728 422 q 683 333 697 363 q 655 278 668 304 q 632 232 642 251 q 652 159 638 201 q 683 86 667 117 q 700 58 690 74 q 724 31 710 43 q 757 9 738 18 q 803 0 776 0 q 868 19 839 0 q 920 69 897 39 q 960 135 943 99 q 988 204 976 171 q 1006 263 1000 238 q 1014 299 1013 289 l 1033 294 q 1024 259 1031 286 q 1007 197 1018 232 q 978 124 996 163 q 935 55 961 86 q 874 3 910 24 q 790 -18 838 -18 q 719 -7 751 -18 q 658 24 686 4 q 608 69 631 43 q 565 122 585 94 l 547 96 q 465 13 511 43 q 347 -18 418 -18 q 260 -3 307 -18 q 172 47 213 13 q 105 135 132 81 q 78 268 78 189 q 102 406 78 343 q 167 519 126 469 q 262 606 208 569 q 374 663 315 642 l 463 694 "},"'":{"ha":386,"x_min":272,"x_max":342,"o":"m 274 911 q 272 932 272 918 l 272 954 q 279 992 272 978 q 307 1007 286 1007 q 335 992 328 1007 q 342 954 342 978 l 342 932 q 340 911 342 918 l 319 606 l 294 606 l 274 911 "},"(":{"ha":386,"x_min":67,"x_max":550,"o":"m 550 986 q 210 557 325 803 q 94 17 94 311 q 106 -134 94 -62 q 131 -260 117 -206 q 158 -349 146 -315 q 174 -389 171 -383 l 146 -403 q 111 -293 126 -346 q 86 -188 96 -240 q 72 -83 76 -136 q 67 29 67 -29 q 89 265 67 138 q 164 521 111 392 q 306 775 217 650 q 528 1004 394 900 l 550 986 "},")":{"ha":386,"x_min":-229,"x_max":253,"o":"m -229 -385 q 110 44 -4 -201 q 225 583 225 289 q 214 735 225 664 q 188 862 203 807 q 161 951 174 917 q 146 990 149 985 l 174 1004 q 208 894 193 947 q 233 790 224 842 q 248 684 243 738 q 253 571 253 631 q 231 336 253 463 q 156 80 210 210 q 15 -174 103 -50 q -207 -403 -74 -299 l -229 -385 "},"*":{"ha":617,"x_min":97,"x_max":639,"o":"m 97 675 q 110 715 99 697 q 151 733 121 733 q 174 732 165 733 q 192 728 183 731 q 213 725 201 726 q 243 724 224 724 q 304 728 274 724 q 358 738 335 733 q 290 790 322 769 q 219 826 257 811 q 168 853 183 840 q 153 890 153 867 q 167 930 151 913 q 203 947 182 947 q 231 941 221 947 q 249 924 242 935 q 262 898 256 913 q 278 865 268 883 q 300 827 288 847 q 326 790 313 807 q 349 761 339 774 q 365 743 360 749 q 374 802 371 769 q 376 854 376 835 q 375 886 376 874 q 372 908 374 899 q 368 925 369 917 q 367 946 367 933 q 383 990 367 974 q 428 1007 399 1007 q 469 994 456 1007 q 483 958 483 981 q 471 919 483 939 q 435 872 458 900 q 397 808 411 844 q 374 740 383 772 q 450 769 413 751 q 514 810 488 786 q 551 840 535 829 q 589 851 568 851 q 625 835 611 851 q 639 799 639 818 q 622 753 639 771 q 578 736 606 736 q 552 738 563 736 q 532 740 542 739 q 510 742 522 740 q 482 743 499 743 q 424 738 449 740 q 376 732 399 735 q 450 675 414 699 q 524 639 486 651 q 565 619 547 632 q 582 579 582 607 q 565 538 582 554 q 524 522 547 522 q 461 583 481 522 q 423 657 447 621 q 369 726 399 693 q 358 611 358 671 q 360 581 358 593 q 363 560 361 569 q 367 540 365 550 q 368 518 368 531 q 351 481 368 497 q 311 465 333 465 q 271 481 289 465 q 253 521 253 497 q 264 553 253 538 q 289 585 275 569 q 330 653 311 611 q 361 729 349 696 q 294 703 325 717 q 233 665 263 689 q 194 637 218 654 q 147 619 171 619 q 111 635 124 619 q 97 675 99 651 "},"+":{"ha":824,"x_min":18,"x_max":685,"o":"m 338 321 l 18 321 l 18 346 l 338 346 l 338 667 l 365 667 l 365 346 l 685 346 l 685 321 l 365 321 l 365 0 l 338 0 l 338 321 "},",":{"ha":386,"x_min":-29,"x_max":174,"o":"m -29 -204 q 8 -187 -15 -199 q 53 -156 31 -175 q 93 -112 76 -137 q 110 -54 110 -86 q 103 -7 110 -25 q 97 -10 100 -8 q 88 -14 93 -11 q 76 -16 82 -15 q 63 -17 71 -17 q 22 1 36 -17 q 8 39 8 18 q 27 92 8 72 q 82 113 46 113 q 149 83 124 113 q 174 10 174 54 q 147 -91 174 -49 q 87 -161 121 -133 q 21 -203 53 -189 q -24 -222 -11 -218 l -29 -204 "},"-":{"ha":514,"x_min":72,"x_max":336,"o":"m 94 339 l 336 339 l 314 256 l 72 256 l 94 339 "},".":{"ha":386,"x_min":8,"x_max":139,"o":"m 8 47 q 27 94 8 75 q 74 113 46 113 q 120 94 101 113 q 139 47 139 75 q 120 1 139 19 q 74 -17 101 -17 q 27 1 46 -17 q 8 47 8 19 "},"/":{"ha":411,"x_min":-106,"x_max":518,"o":"m 493 1014 l 518 1000 l -81 -25 l -106 -11 l 493 1014 "},":":{"ha":386,"x_min":17,"x_max":281,"o":"m 150 546 q 169 592 150 574 q 215 611 188 611 q 262 592 243 611 q 281 546 281 574 q 262 499 281 518 q 215 481 243 481 q 169 499 188 481 q 150 546 150 518 m 17 47 q 35 94 17 75 q 82 113 54 113 q 128 94 110 113 q 147 47 147 75 q 128 1 147 19 q 82 -17 110 -17 q 35 1 54 -17 q 17 47 17 19 "},";":{"ha":386,"x_min":0,"x_max":310,"o":"m 179 546 q 198 592 179 574 q 244 611 217 611 q 291 592 272 611 q 310 546 310 574 q 291 499 310 518 q 244 481 272 481 q 198 499 217 481 q 179 546 179 518 m 0 -204 q 38 -187 14 -199 q 84 -156 61 -175 q 124 -112 107 -137 q 140 -54 140 -86 q 133 -7 140 -25 q 127 -10 131 -8 q 118 -14 124 -11 q 107 -16 113 -15 q 93 -17 101 -17 q 53 1 67 -17 q 39 39 39 18 q 58 92 39 72 q 113 113 76 113 q 179 83 154 113 q 204 10 204 54 q 178 -91 204 -49 q 117 -161 151 -133 q 51 -203 83 -189 q 6 -222 18 -218 l 0 -204 "},"<":{"ha":824,"x_min":-101,"x_max":686,"o":"m -56 333 l 686 28 l 686 0 l -101 328 l -101 339 l 686 667 l 686 639 l -56 333 "},"=":{"ha":824,"x_min":18,"x_max":685,"o":"m 18 226 l 685 226 l 685 201 l 18 201 l 18 226 m 18 465 l 685 465 l 685 440 l 18 440 l 18 465 "},">":{"ha":824,"x_min":15,"x_max":804,"o":"m 758 333 l 15 639 l 15 667 l 804 339 l 804 328 l 15 0 l 15 28 l 758 333 "},"?":{"ha":565,"x_min":69,"x_max":586,"o":"m 69 47 q 88 94 69 75 q 135 113 107 113 q 181 94 163 113 q 200 47 200 75 q 181 1 200 19 q 135 -17 163 -17 q 88 1 107 -17 q 69 47 69 19 m 200 324 q 217 385 207 354 q 258 450 228 415 l 367 575 q 463 731 436 654 q 489 861 489 807 q 451 959 489 931 q 363 988 413 988 q 267 951 292 988 q 242 851 242 914 q 229 815 242 831 q 185 800 217 800 q 148 819 160 800 q 136 853 136 838 q 152 905 136 878 q 197 955 168 932 q 267 992 226 978 q 360 1007 308 1007 q 458 992 415 1007 q 528 950 500 976 q 572 888 557 924 q 586 811 586 853 q 583 769 586 794 q 569 715 581 744 q 536 655 558 686 q 476 594 514 624 l 369 515 q 326 483 349 500 q 284 445 304 467 q 247 397 264 424 q 222 338 231 371 l 199 249 l 181 249 l 200 324 "},"@":{"ha":1157,"x_min":50,"x_max":1093,"o":"m 733 621 q 728 652 733 636 q 710 682 722 668 q 681 705 699 696 q 639 714 664 714 q 559 681 597 714 q 492 600 521 649 q 446 495 463 551 q 429 390 429 439 q 434 341 429 367 q 451 294 439 315 q 483 260 463 274 q 532 247 503 247 q 577 257 557 247 q 613 281 597 267 q 640 314 629 296 q 660 350 651 332 q 676 391 664 360 q 701 463 688 422 q 724 545 714 503 q 733 621 733 588 m 772 407 q 760 355 763 375 q 758 326 758 335 q 766 286 758 301 q 785 263 774 271 q 810 251 797 254 q 835 249 824 249 q 913 278 872 249 q 987 356 953 307 q 1042 467 1021 404 q 1064 594 1064 529 q 1035 739 1064 669 q 952 861 1007 808 q 817 945 897 914 q 635 976 738 976 q 419 932 517 976 q 251 815 321 888 q 142 651 181 743 q 103 465 103 560 q 139 287 103 369 q 240 142 175 204 q 397 45 306 81 q 596 10 488 10 q 783 40 685 10 q 972 142 881 71 l 990 117 q 931 77 967 100 q 846 33 896 54 q 731 -3 796 11 q 583 -18 665 -18 q 383 15 479 -18 q 212 112 286 49 q 94 265 138 175 q 50 468 50 356 q 96 677 50 579 q 220 848 142 775 q 404 964 299 921 q 629 1007 510 1007 q 820 975 735 1007 q 966 888 906 943 q 1060 757 1026 832 q 1093 596 1093 682 q 1069 455 1093 524 q 1005 333 1044 386 q 915 247 965 279 q 813 214 865 214 q 747 228 771 214 q 710 263 722 243 q 694 304 697 283 q 689 338 690 325 q 517 214 631 214 q 441 229 475 214 q 382 272 407 244 q 343 335 357 299 q 329 413 329 371 q 357 540 329 479 q 427 647 385 601 q 522 720 469 693 q 625 747 575 747 q 650 746 632 747 q 690 735 668 744 q 731 704 711 725 q 758 644 750 683 l 785 732 l 867 732 l 772 407 "},"A":{"ha":1003,"x_min":-121,"x_max":907,"o":"m 617 850 l 614 850 l 317 428 l 622 428 l 617 850 m -115 19 l 3 19 l 700 1011 l 732 1011 l 757 19 l 907 19 l 901 0 l 474 0 l 479 19 l 631 19 l 622 408 l 303 408 l 31 19 l 171 19 l 165 0 l -121 0 l -115 19 "},"B":{"ha":900,"x_min":-122,"x_max":846,"o":"m 339 544 l 468 544 q 567 563 522 544 q 646 615 613 581 q 697 699 679 649 q 715 811 715 749 q 672 926 715 882 q 550 969 629 969 l 492 969 l 339 544 m 151 21 q 213 16 182 18 q 274 14 243 14 q 428 47 364 14 q 535 128 493 79 q 598 235 578 176 q 618 346 618 294 q 610 407 618 381 q 588 452 601 433 q 560 484 575 471 q 529 504 544 497 q 473 522 501 518 q 401 525 444 525 l 331 525 l 151 21 m 367 969 l 206 969 l 211 989 l 524 989 q 653 976 594 989 q 755 935 713 963 q 822 868 797 908 q 846 775 846 828 q 826 691 846 728 q 776 627 807 654 q 708 582 746 600 q 633 553 669 564 q 563 537 596 542 q 511 532 531 532 l 508 529 q 565 511 526 525 q 644 470 604 497 q 713 399 683 443 q 743 292 743 356 q 702 164 743 219 q 595 71 661 108 q 447 15 529 33 q 282 -4 364 -4 q 181 -2 231 -4 q 79 0 132 0 l -122 0 l -117 19 l 24 19 l 367 969 "},"C":{"ha":900,"x_min":81,"x_max":974,"o":"m 878 721 l 860 721 q 865 761 863 735 q 868 815 868 788 q 851 892 868 860 q 806 946 835 925 q 739 977 778 967 q 656 988 700 988 q 521 946 583 988 q 406 838 458 904 q 313 687 354 771 q 244 518 272 603 q 201 356 215 433 q 186 222 186 278 q 247 55 186 110 q 421 0 308 0 q 532 22 483 0 q 618 76 581 44 q 681 146 656 108 q 724 214 707 183 l 742 204 q 711 151 733 188 q 649 76 689 114 q 553 10 610 39 q 418 -18 496 -18 q 259 16 324 -18 q 155 105 194 50 q 98 231 115 160 q 81 376 81 301 q 106 540 81 461 q 176 690 132 619 q 278 818 219 760 q 401 918 336 876 q 532 983 465 960 q 660 1007 599 1007 q 740 999 706 1007 q 802 980 775 990 q 851 961 829 969 q 894 953 874 953 q 931 965 917 953 q 953 993 944 976 l 974 989 l 878 721 "},"D":{"ha":1106,"x_min":-114,"x_max":1019,"o":"m 161 21 q 243 17 201 19 q 328 14 285 14 q 394 17 364 14 q 455 29 425 21 q 516 52 485 38 q 583 89 547 67 q 717 207 658 136 q 818 363 776 278 q 881 541 860 447 q 903 726 903 635 q 870 859 903 806 q 793 936 838 913 q 721 961 760 953 q 619 969 682 969 l 500 969 l 161 21 m 375 969 l 215 969 l 221 989 l 640 989 q 810 958 739 989 q 928 874 882 926 q 997 754 975 822 q 1019 611 1019 686 q 971 389 1019 499 q 834 192 922 279 q 624 50 746 104 q 354 -4 501 -4 q 296 -3 325 -4 q 238 -1 267 -3 q 178 0 207 0 q 119 0 149 0 l -114 0 l -108 19 l 33 19 l 375 969 "},"E":{"ha":951,"x_min":-122,"x_max":983,"o":"m 367 969 l 206 969 l 211 989 l 983 989 l 899 753 l 879 753 q 890 797 885 768 q 896 853 896 826 q 874 937 896 904 q 785 969 851 969 l 492 969 l 338 540 l 468 540 q 547 563 513 540 q 605 616 581 586 q 644 675 629 646 q 667 717 660 704 l 686 717 l 540 313 l 521 313 q 533 358 528 329 q 539 414 539 388 q 508 494 539 467 q 425 521 478 521 l 331 521 l 151 19 l 476 19 q 580 51 532 19 q 665 126 628 83 q 726 210 701 168 q 763 272 751 251 l 782 272 l 685 0 l -122 0 l -117 19 l 26 19 l 367 969 "},"F":{"ha":926,"x_min":-115,"x_max":1003,"o":"m 371 969 l 213 969 l 218 989 l 1003 989 l 918 753 l 899 753 q 908 803 903 769 q 913 865 913 836 q 890 942 913 914 q 801 969 868 969 l 499 969 l 335 518 l 532 518 q 608 540 575 518 q 665 592 642 563 q 704 650 689 621 q 726 694 719 679 l 746 694 l 601 289 l 582 289 q 592 332 586 304 q 599 392 599 360 q 567 473 599 447 q 468 499 536 499 l 328 499 l 156 19 l 318 19 l 313 0 l -115 0 l -110 19 l 31 19 l 371 969 "},"G":{"ha":1003,"x_min":81,"x_max":974,"o":"m 696 0 l 674 0 q 665 24 672 14 q 636 35 657 35 q 603 26 622 35 q 557 8 583 18 q 497 -10 531 -1 q 418 -18 463 -18 q 259 16 324 -18 q 155 105 194 50 q 98 231 115 160 q 81 376 81 301 q 106 540 81 461 q 176 690 132 619 q 278 818 219 760 q 401 918 336 876 q 532 983 465 960 q 660 1007 599 1007 q 740 999 706 1007 q 802 980 775 990 q 851 961 829 969 q 894 953 874 953 q 931 965 917 953 q 953 993 944 976 l 974 989 l 878 721 l 860 721 q 865 761 863 735 q 868 815 868 788 q 851 892 868 860 q 806 946 835 925 q 739 977 778 967 q 656 988 700 988 q 521 946 583 988 q 406 838 458 904 q 313 687 354 771 q 244 518 272 603 q 201 356 215 433 q 186 222 186 278 q 247 55 186 110 q 421 0 308 0 q 551 39 503 0 q 618 132 599 78 l 686 325 l 528 325 l 533 344 l 929 344 l 924 325 l 813 325 l 696 0 "},"H":{"ha":1106,"x_min":-117,"x_max":1219,"o":"m -111 19 l 31 19 l 371 969 l 213 969 l 218 989 l 647 989 l 642 969 l 497 969 l 335 515 l 782 515 l 946 969 l 786 969 l 792 989 l 1219 989 l 1214 969 l 1071 969 l 729 19 l 889 19 l 883 0 l 453 0 l 458 19 l 603 19 l 775 496 l 328 496 l 156 19 l 315 19 l 310 0 l -117 0 l -111 19 "},"I":{"ha":540,"x_min":-114,"x_max":651,"o":"m -108 19 l 33 19 l 375 969 l 215 969 l 221 989 l 651 989 l 646 969 l 500 969 l 160 19 l 318 19 l 313 0 l -114 0 l -108 19 "},"J":{"ha":643,"x_min":-87,"x_max":765,"o":"m 490 969 l 333 969 l 339 989 l 765 989 l 760 969 l 617 969 l 385 324 q 358 256 372 288 q 327 194 344 224 q 288 135 310 164 q 236 75 265 106 q 149 6 194 31 q 54 -18 104 -18 q 2 -12 28 -18 q -43 8 -24 -6 q -75 43 -62 21 q -87 96 -87 65 q -64 165 -87 140 q -7 190 -40 190 q 38 176 22 190 q 54 140 54 163 q 49 107 54 119 q 35 84 43 94 q 22 63 28 74 q 17 33 17 51 q 28 7 17 14 q 57 0 40 0 q 79 2 65 0 q 110 15 93 4 q 144 51 126 26 q 181 118 163 75 l 218 207 l 490 969 "},"K":{"ha":978,"x_min":-118,"x_max":1053,"o":"m 339 508 l 329 508 l 154 19 l 313 19 l 307 0 l -118 0 l -112 19 l 29 19 l 369 969 l 211 969 l 217 989 l 643 989 l 638 969 l 494 969 l 336 528 l 347 528 l 914 967 l 914 969 l 760 969 l 765 989 l 1053 989 l 1047 969 l 951 969 l 438 571 l 724 19 l 856 19 l 850 0 l 428 0 l 433 19 l 583 19 l 339 508 "},"L":{"ha":875,"x_min":-121,"x_max":783,"o":"m 368 969 l 208 969 l 214 989 l 644 989 l 639 969 l 493 969 l 153 19 l 478 19 q 579 51 532 19 q 663 124 626 82 q 726 209 700 167 q 764 272 751 251 l 783 272 l 686 0 l -121 0 l -115 19 l 28 19 l 368 969 "},"M":{"ha":1183,"x_min":-132,"x_max":1306,"o":"m 546 19 l 690 19 l 1032 969 l 1029 969 l 360 0 l 379 969 l 375 969 l 38 19 l 196 19 l 190 0 l -132 0 l -126 19 l 17 19 l 357 969 l 197 969 l 203 989 l 500 989 l 483 218 l 486 218 l 1018 989 l 1306 989 l 1300 969 l 1157 969 l 817 19 l 975 19 l 969 0 l 540 0 l 546 19 "},"N":{"ha":978,"x_min":-129,"x_max":1110,"o":"m 363 919 l 360 919 l 39 19 l 197 19 l 192 0 l -129 0 l -124 19 l 18 19 l 357 969 l 199 969 l 204 989 l 467 989 l 664 206 l 667 206 l 939 969 l 779 969 l 785 989 l 1110 989 l 1104 969 l 961 969 l 611 -18 l 601 -18 l 363 919 "},"O":{"ha":1081,"x_min":83,"x_max":1001,"o":"m 189 219 q 199 136 189 176 q 233 66 208 96 q 301 18 258 36 q 408 0 343 0 q 558 42 490 0 q 678 150 625 83 q 772 300 732 217 q 838 468 813 383 q 877 630 864 553 q 890 760 890 707 q 839 928 890 868 q 675 988 788 988 q 531 947 597 988 q 411 842 465 907 q 315 694 357 776 q 246 526 274 611 q 203 360 218 440 q 189 219 189 279 m 83 379 q 108 536 83 458 q 176 684 133 614 q 276 813 218 754 q 401 915 335 872 q 538 983 467 958 q 678 1007 608 1007 q 830 970 768 1007 q 930 875 892 933 q 985 745 968 817 q 1001 604 1001 674 q 978 453 1001 529 q 915 309 956 378 q 817 181 874 240 q 693 76 760 121 q 552 7 626 32 q 400 -18 478 -18 q 272 8 331 -18 q 172 83 214 33 q 107 208 131 133 q 83 379 83 282 "},"P":{"ha":875,"x_min":-121,"x_max":881,"o":"m 307 447 q 357 440 326 444 q 419 436 388 436 q 555 466 493 436 q 660 545 617 496 q 728 658 704 594 q 753 788 753 721 q 698 924 753 879 q 547 969 643 969 l 493 969 l 307 447 m 368 969 l 208 969 l 214 989 l 547 989 q 690 969 628 989 q 794 914 751 949 q 858 833 836 879 q 881 735 881 788 q 838 597 881 656 q 728 497 794 538 q 583 437 663 457 q 429 417 503 417 q 361 420 397 417 q 300 428 325 424 l 153 19 l 313 19 l 306 0 l -121 0 l -115 19 l 28 19 l 368 969 "},"Q":{"ha":1081,"x_min":83,"x_max":1001,"o":"m 189 219 q 199 136 189 176 q 233 66 208 96 q 301 18 258 36 q 408 0 343 0 q 558 42 490 0 q 678 150 625 83 q 772 300 732 217 q 838 468 813 383 q 877 630 864 553 q 890 760 890 707 q 839 928 890 868 q 675 988 788 988 q 531 947 597 988 q 411 842 465 907 q 315 694 357 776 q 246 526 274 611 q 203 360 218 440 q 189 219 189 279 m 793 -264 q 701 -259 750 -264 q 606 -242 653 -254 q 517 -206 558 -229 q 446 -147 475 -183 l 389 -81 q 345 -36 364 -50 q 299 -8 326 -22 q 226 33 264 7 q 157 103 189 58 q 104 215 125 147 q 83 379 83 282 q 108 536 83 458 q 176 684 133 614 q 276 813 218 754 q 401 915 335 872 q 538 983 467 958 q 678 1007 608 1007 q 830 970 768 1007 q 930 875 892 933 q 985 745 968 817 q 1001 604 1001 674 q 978 453 1001 529 q 915 309 956 378 q 817 181 874 240 q 693 76 760 121 q 552 7 626 32 q 400 -18 478 -18 q 373 -17 385 -18 q 350 -15 361 -17 l 347 -18 q 389 -48 371 -37 q 422 -65 407 -58 q 452 -74 438 -71 q 485 -78 467 -76 q 558 -88 528 -82 q 610 -106 588 -94 q 653 -137 633 -118 q 699 -183 674 -156 q 767 -234 733 -224 q 832 -244 800 -244 l 849 -244 l 849 -264 l 793 -264 "},"R":{"ha":900,"x_min":-121,"x_max":846,"o":"m 340 544 l 433 544 q 532 554 489 544 q 599 579 575 564 q 639 611 618 592 q 676 659 660 631 q 704 726 693 688 q 715 815 715 764 q 668 931 715 893 q 551 969 621 969 l 493 969 l 340 544 m 367 969 l 207 969 l 215 989 l 553 989 q 653 978 601 989 q 748 941 706 967 q 818 874 790 915 q 846 774 846 833 q 824 686 846 724 q 769 623 803 649 q 696 581 736 597 q 618 553 656 564 q 550 539 581 543 q 507 533 519 535 l 504 529 q 561 518 526 526 q 628 490 596 510 q 685 439 661 471 q 708 357 708 407 q 703 290 708 322 q 691 226 697 257 q 679 163 685 194 q 674 96 674 131 q 694 34 674 57 q 747 11 715 11 q 770 13 758 11 q 788 18 782 15 l 793 0 q 766 -4 786 -1 q 725 -7 746 -7 q 656 1 688 -7 q 601 26 625 8 q 565 72 578 43 q 551 142 551 100 q 556 196 551 163 q 568 267 561 229 q 578 339 574 303 q 583 401 583 375 q 576 449 583 426 q 547 489 568 472 q 489 515 526 506 q 392 525 451 525 l 335 525 l 153 19 l 313 19 l 306 0 l -121 0 l -114 19 l 28 19 l 367 969 "},"S":{"ha":824,"x_min":-67,"x_max":835,"o":"m 31 274 l 49 274 q 36 234 42 253 q 31 192 31 215 q 53 108 31 144 q 111 49 75 72 q 192 13 147 25 q 282 0 236 0 q 392 17 343 0 q 474 66 440 35 q 524 140 507 97 q 542 232 542 182 q 519 323 542 283 q 456 400 496 363 l 357 490 q 252 609 290 550 q 214 743 214 668 q 240 850 214 801 q 311 933 267 899 q 413 988 356 968 q 532 1007 471 1007 q 608 999 575 1007 q 667 982 640 992 q 717 965 694 972 q 764 957 740 957 q 796 967 785 957 q 814 993 807 976 l 835 989 l 739 724 l 722 724 q 730 755 725 735 q 735 806 735 775 q 718 890 735 856 q 674 947 701 925 q 609 978 646 968 q 532 988 572 988 q 440 974 482 988 q 369 936 399 960 q 322 879 339 913 q 306 806 306 846 q 339 702 306 746 q 414 621 372 658 l 538 510 q 623 410 588 465 q 658 286 658 354 q 634 179 658 233 q 562 81 610 125 q 442 10 514 38 q 274 -18 369 -18 q 185 -10 224 -18 q 116 10 147 -1 q 58 29 85 21 q 4 38 31 38 q -29 24 -14 38 q -47 -6 -44 11 l -67 -1 l 31 274 "},"T":{"ha":951,"x_min":79,"x_max":1065,"o":"m 571 969 l 435 969 q 331 938 378 969 q 247 863 283 906 q 187 778 211 821 q 150 715 163 736 l 131 715 l 228 989 l 1065 989 l 968 715 l 949 715 q 958 776 956 743 q 961 843 961 810 q 933 933 961 896 q 833 969 904 969 l 696 969 l 356 19 l 514 19 l 508 0 l 79 0 l 85 19 l 231 19 l 571 969 "},"U":{"ha":1029,"x_min":117,"x_max":1150,"o":"m 204 989 l 633 989 l 628 969 l 482 969 l 269 376 q 238 273 249 318 q 226 175 226 228 q 238 108 226 140 q 273 52 250 76 q 331 14 296 28 q 410 0 365 0 q 556 31 494 0 q 662 110 618 61 q 734 217 706 158 q 781 335 763 276 l 978 969 l 819 969 l 825 989 l 1150 989 l 1144 969 l 1000 969 l 796 317 q 647 62 742 142 q 399 -18 553 -18 q 265 4 319 -18 q 178 60 211 26 q 131 134 144 93 q 117 213 117 175 q 131 328 117 272 q 174 458 146 385 l 357 969 l 199 969 l 204 989 "},"V":{"ha":978,"x_min":97,"x_max":1101,"o":"m 532 989 l 526 969 l 376 969 l 376 146 l 379 146 l 953 969 l 815 969 l 821 989 l 1101 989 l 1096 969 l 981 969 l 290 -18 l 254 -18 l 249 969 l 97 969 l 103 989 l 532 989 "},"W":{"ha":1440,"x_min":111,"x_max":1556,"o":"m 264 969 l 111 969 l 117 989 l 525 989 l 519 969 l 385 969 l 376 151 l 379 151 l 742 694 l 744 969 l 599 969 l 604 989 l 1025 989 l 1019 969 l 864 969 l 856 161 l 858 161 l 1399 969 l 1265 969 l 1271 989 l 1556 989 l 1550 969 l 1426 969 l 763 -18 l 735 -18 l 740 651 l 738 651 l 288 -18 l 253 -18 l 264 969 "},"X":{"ha":951,"x_min":-101,"x_max":1013,"o":"m 432 469 l 36 19 l 174 19 l 168 0 l -101 0 l -96 19 l 8 19 l 422 490 l 296 969 l 147 969 l 153 989 l 578 989 l 572 969 l 425 969 l 528 578 l 868 969 l 736 969 l 742 989 l 1013 989 l 1007 969 l 896 969 l 538 558 l 678 19 l 825 19 l 819 0 l 396 0 l 401 19 l 551 19 l 432 469 "},"Y":{"ha":900,"x_min":72,"x_max":1065,"o":"m 233 19 l 386 449 l 288 969 l 136 969 l 142 989 l 569 989 l 564 969 l 410 969 l 500 493 l 924 969 l 788 969 l 793 989 l 1065 989 l 1060 969 l 951 969 l 510 471 l 347 19 l 507 19 l 501 0 l 72 0 l 78 19 l 233 19 "},"Z":{"ha":900,"x_min":-68,"x_max":932,"o":"m 769 969 l 474 969 q 373 939 419 969 q 290 867 326 908 q 228 784 254 826 q 190 718 203 742 l 171 718 l 267 989 l 932 989 l 93 19 l 472 19 q 572 51 526 19 q 654 124 618 82 q 716 209 690 167 q 754 272 742 251 l 774 272 l 675 0 l -68 0 l 769 969 "},"[":{"ha":386,"x_min":-67,"x_max":472,"o":"m 300 989 l 472 989 l 464 961 l 322 961 l -31 -360 l 113 -360 l 104 -387 l -67 -387 l 300 989 "},"\\":{"ha":411,"x_min":160,"x_max":251,"o":"m 224 -25 l 160 1000 l 188 1014 l 251 -11 l 224 -25 "},"]":{"ha":386,"x_min":-192,"x_max":347,"o":"m -19 -387 l -192 -387 l -183 -360 l -42 -360 l 311 961 l 167 961 l 175 989 l 347 989 l -19 -387 "},"^":{"ha":824,"x_min":147,"x_max":639,"o":"m 147 424 l 388 989 l 399 989 l 639 424 l 610 424 l 393 936 l 176 424 l 147 424 "},"_":{"ha":694,"x_min":0,"x_max":694,"o":"m 0 -146 l 0 -103 l 694 -103 l 694 -146 l 0 -146 "},"`":{"ha":386,"x_min":110,"x_max":346,"o":"m 140 913 q 110 958 110 935 q 122 990 110 978 q 157 1003 133 1003 q 188 992 176 1003 q 208 965 199 981 l 346 767 l 325 767 l 140 913 "},"a":{"ha":746,"x_min":-1,"x_max":656,"o":"m 493 414 q 515 477 510 458 q 519 510 519 496 q 516 537 519 522 q 503 564 513 551 q 479 585 494 576 q 439 594 464 594 q 349 569 393 594 q 267 501 306 543 q 197 406 229 460 q 142 298 165 353 q 107 192 119 243 q 94 101 94 140 q 112 29 94 57 q 169 1 129 1 q 251 26 210 1 q 328 86 293 51 q 388 156 363 121 q 419 210 413 190 l 493 414 m 504 175 q 483 106 492 139 q 474 46 474 72 q 508 10 474 10 q 558 26 536 10 q 597 62 581 42 q 623 102 613 82 q 638 131 633 122 l 656 121 q 635 82 649 106 q 599 37 621 58 q 547 -1 576 15 q 479 -17 518 -17 q 388 67 388 -17 q 392 101 388 76 q 403 144 396 125 l 400 144 q 356 92 381 121 q 299 40 331 64 q 231 -1 268 15 q 147 -17 193 -17 q 91 -6 118 -17 q 43 26 64 4 q 10 81 22 47 q -1 160 -1 114 q 21 271 -1 215 q 78 377 43 326 q 160 471 114 428 q 255 546 207 514 q 349 596 303 578 q 432 614 396 614 q 503 590 474 614 q 532 528 532 567 l 535 528 l 558 596 l 656 596 l 504 175 "},"b":{"ha":721,"x_min":31,"x_max":626,"o":"m 108 94 q 194 1 108 1 q 278 26 236 1 q 359 93 321 51 q 431 188 397 135 q 488 297 464 240 q 526 408 513 353 q 540 507 540 463 q 515 572 540 550 q 447 594 490 594 q 368 570 408 594 q 290 506 328 546 q 219 415 253 467 q 162 307 186 363 q 123 197 138 251 q 108 94 108 142 m 436 1056 l 219 451 l 222 450 q 263 506 239 476 q 317 558 288 535 q 380 598 346 582 q 451 614 414 614 q 527 598 494 614 q 582 556 560 582 q 615 497 604 531 q 626 428 626 464 q 606 317 626 372 q 550 213 585 263 q 471 122 515 164 q 378 49 426 79 q 281 1 329 18 q 192 -17 233 -17 q 137 -8 165 -17 q 85 21 108 1 q 46 71 61 40 q 31 146 31 101 q 40 210 31 174 q 60 275 49 247 l 331 1036 l 208 1036 l 214 1056 l 436 1056 "},"c":{"ha":565,"x_min":14,"x_max":540,"o":"m 478 136 q 438 83 461 110 q 385 33 415 56 q 317 -3 356 11 q 229 -17 278 -17 q 138 0 178 -17 q 70 45 97 17 q 28 111 43 74 q 14 192 14 149 q 47 337 14 263 q 136 473 81 411 q 263 574 192 535 q 411 614 335 614 q 458 608 435 614 q 499 590 481 603 q 528 556 517 578 q 540 503 540 535 q 517 443 540 457 q 469 429 494 429 q 435 440 444 429 q 425 464 425 450 q 431 491 425 481 q 444 510 436 501 q 457 528 451 518 q 463 556 463 539 q 447 586 463 578 q 403 594 431 594 q 319 572 358 594 q 248 513 281 550 q 190 429 215 476 q 147 332 165 382 q 120 233 129 282 q 111 144 111 185 q 145 43 111 85 q 250 1 179 1 q 322 16 289 1 q 381 53 354 31 q 426 101 407 75 q 458 147 446 126 l 478 136 "},"d":{"ha":746,"x_min":-1,"x_max":819,"o":"m 493 414 q 515 477 510 458 q 519 510 519 496 q 516 537 519 522 q 503 564 513 551 q 479 585 494 576 q 439 594 464 594 q 349 569 393 594 q 267 501 306 543 q 197 406 229 460 q 142 298 165 353 q 107 192 119 243 q 94 101 94 140 q 112 29 94 57 q 169 1 129 1 q 251 26 210 1 q 328 86 293 51 q 388 156 363 121 q 419 210 413 190 l 493 414 m 504 175 q 483 106 492 139 q 474 46 474 72 q 508 10 474 10 q 558 26 536 10 q 597 62 581 42 q 623 102 613 82 q 638 131 633 122 l 656 121 q 635 82 649 106 q 599 37 621 58 q 547 -1 576 15 q 479 -17 518 -17 q 388 67 388 -17 q 392 101 388 76 q 403 144 396 125 l 400 144 q 356 92 381 121 q 299 40 331 64 q 231 -1 268 15 q 147 -17 193 -17 q 91 -6 118 -17 q 43 26 64 4 q 10 81 22 47 q -1 160 -1 114 q 21 271 -1 215 q 78 377 43 326 q 160 471 114 428 q 255 546 207 514 q 349 596 303 578 q 432 614 396 614 q 503 590 474 614 q 532 528 532 567 l 535 528 l 715 1036 l 593 1036 l 599 1056 l 819 1056 l 504 175 "},"e":{"ha":592,"x_min":3,"x_max":547,"o":"m 461 528 q 444 575 461 556 q 389 594 428 594 q 306 569 346 594 q 235 508 267 544 q 179 428 203 471 q 143 350 156 386 q 214 344 175 344 q 308 360 264 344 q 387 400 353 375 q 441 458 421 425 q 461 528 461 492 m 464 136 q 439 101 456 126 q 393 49 422 75 q 322 3 364 24 q 219 -17 279 -17 q 119 3 160 -17 q 52 53 78 22 q 15 120 26 83 q 3 192 3 157 q 37 335 3 261 q 126 472 71 410 q 250 574 181 533 q 392 614 319 614 q 447 608 419 614 q 497 589 475 601 q 533 557 519 576 q 547 510 547 538 q 527 444 547 472 q 475 395 507 415 q 405 361 443 375 q 331 340 367 347 q 265 328 294 332 q 221 325 235 325 q 175 326 197 325 q 136 331 153 328 q 110 242 121 286 q 100 150 100 199 q 139 38 100 75 q 238 1 178 1 q 316 19 282 1 q 376 60 350 36 q 419 108 401 83 q 447 146 436 132 l 464 136 "},"f":{"ha":463,"x_min":-294,"x_max":751,"o":"m 211 596 l 232 672 q 294 822 254 753 q 386 944 335 892 q 497 1026 438 996 q 617 1056 557 1056 q 678 1045 653 1056 q 719 1019 703 1035 q 744 984 736 1003 q 751 949 751 965 q 738 901 751 925 q 689 878 725 878 q 645 890 658 878 q 632 917 632 901 q 638 941 632 931 q 649 960 643 951 q 660 978 656 969 q 665 997 665 986 q 649 1028 665 1021 q 613 1036 633 1036 q 503 997 550 1036 q 422 904 456 958 q 368 794 389 850 q 338 701 347 738 l 308 596 l 479 596 l 474 576 l 303 576 l 179 106 q 119 -67 156 17 q 37 -214 83 -150 q -65 -316 -10 -278 q -181 -354 -119 -354 q -219 -350 -199 -354 q -256 -335 -239 -346 q -283 -308 -272 -325 q -294 -262 -294 -290 q -278 -217 -294 -236 q -229 -197 -262 -197 q -200 -204 -211 -197 q -189 -233 -189 -211 q -196 -265 -189 -249 q -203 -300 -203 -281 q -191 -326 -203 -318 q -161 -335 -179 -335 q -49 -255 -103 -335 q 53 3 4 -175 l 206 576 l 74 576 l 79 596 l 211 596 "},"g":{"ha":721,"x_min":-101,"x_max":733,"o":"m 67 -58 q 10 -127 29 -89 q -10 -224 -10 -165 q 5 -298 -10 -268 q 44 -347 19 -328 q 99 -375 68 -367 q 163 -383 131 -383 q 276 -363 222 -383 q 370 -311 329 -343 q 435 -237 411 -279 q 458 -151 458 -196 q 451 -109 458 -129 q 425 -73 443 -89 q 376 -47 407 -57 q 301 -35 346 -36 l 106 -28 l 67 -58 m 182 329 q 211 237 182 261 q 293 213 240 213 q 373 240 339 213 q 429 309 407 268 q 462 398 451 350 q 472 486 472 446 q 441 571 472 547 q 364 594 410 594 q 288 566 321 594 q 231 497 254 538 q 194 411 207 457 q 182 329 182 365 m 328 53 q 462 14 410 49 q 514 -101 514 -21 q 490 -201 514 -149 q 422 -299 467 -254 q 313 -374 378 -344 q 165 -403 249 -403 q 63 -388 111 -403 q -23 -350 14 -374 q -81 -294 -60 -326 q -101 -229 -101 -262 q -85 -167 -101 -196 q -47 -113 -69 -137 q -1 -72 -25 -89 q 40 -44 24 -54 l 79 -24 q 48 -14 65 -19 q 15 3 31 -8 q -12 33 -1 14 q -22 85 -22 53 q 0 162 -22 128 q 75 224 22 196 l 126 251 q 97 297 108 272 q 85 360 85 321 q 111 456 85 410 q 179 537 138 501 q 271 593 221 572 q 368 614 321 614 q 431 606 404 614 q 479 584 458 597 q 514 556 500 571 q 536 526 528 540 q 576 576 553 551 q 643 600 600 600 q 706 575 679 600 q 733 514 733 550 q 719 473 733 489 q 674 457 706 457 q 641 467 654 457 q 628 492 628 476 q 632 511 628 504 q 642 524 636 518 q 651 537 647 529 q 656 558 656 544 q 649 574 656 567 q 629 581 642 581 q 585 560 607 581 q 549 507 564 539 q 563 474 557 496 q 569 435 569 453 q 544 347 569 390 q 477 269 518 304 q 388 214 436 235 q 293 193 339 193 q 195 209 229 193 q 143 236 161 225 l 114 222 q 47 176 69 201 q 24 125 24 150 q 53 80 24 94 q 150 61 83 65 l 328 53 "},"h":{"ha":746,"x_min":-4,"x_max":667,"o":"m 371 1036 l 244 1036 l 250 1056 l 469 1056 l 238 426 l 240 426 q 289 485 261 454 q 350 543 317 517 q 420 587 383 569 q 494 604 457 604 q 587 573 553 604 q 621 496 621 542 q 613 449 621 472 q 594 394 606 426 l 504 138 q 489 91 496 114 q 482 46 482 68 q 489 15 482 29 q 518 1 496 1 q 564 15 543 1 q 602 49 585 29 q 632 90 619 68 q 651 126 644 111 l 667 119 q 647 83 660 106 q 615 38 635 60 q 565 -1 594 15 q 496 -17 536 -17 q 421 3 451 -17 q 390 67 390 22 q 395 104 390 85 q 407 146 400 124 l 524 478 q 535 533 535 511 q 523 568 535 551 q 481 585 511 585 q 410 562 450 585 q 329 499 369 539 q 253 406 289 460 q 196 290 218 353 l 92 0 l -4 0 l 371 1036 "},"i":{"ha":386,"x_min":19,"x_max":404,"o":"m 274 924 q 292 970 274 951 q 339 989 311 989 q 385 970 367 989 q 404 924 404 951 q 385 877 404 896 q 339 858 367 858 q 292 877 311 858 q 274 924 274 896 m 188 576 l 64 576 l 69 596 l 290 596 l 126 125 q 113 83 119 104 q 106 42 106 61 q 115 13 106 25 q 144 1 125 1 q 188 17 167 1 q 228 52 210 32 q 258 93 246 72 q 276 126 271 114 l 293 119 q 276 85 288 108 q 243 40 264 63 q 192 0 222 17 q 119 -17 161 -17 q 47 2 74 -17 q 19 65 19 21 q 28 117 19 89 q 44 169 36 146 l 188 576 "},"j":{"ha":386,"x_min":-331,"x_max":426,"o":"m 296 924 q 315 970 296 951 q 361 989 333 989 q 408 970 389 989 q 426 924 426 951 q 408 877 426 896 q 361 858 389 858 q 315 877 333 858 q 296 924 296 896 m 313 596 l 92 -17 q 69 -73 83 -39 q 33 -144 54 -107 q -14 -219 13 -182 q -72 -285 -40 -256 q -138 -334 -103 -315 q -214 -353 -174 -353 q -254 -347 -233 -353 q -292 -329 -275 -342 q -319 -298 -308 -317 q -331 -254 -331 -279 q -313 -210 -331 -229 q -268 -190 -296 -190 q -235 -200 -247 -190 q -222 -228 -222 -210 q -231 -261 -222 -250 q -239 -294 -239 -272 q -226 -324 -239 -314 q -192 -333 -212 -333 q -54 -151 -119 -333 l 210 576 l 83 576 l 89 596 l 313 596 "},"k":{"ha":721,"x_min":-4,"x_max":649,"o":"m 365 1036 l 242 1036 l 247 1056 l 469 1056 l 231 386 l 260 386 q 350 424 308 386 q 426 510 392 461 q 578 614 504 614 q 628 597 608 614 q 649 538 649 579 q 632 488 649 506 q 590 471 615 471 q 540 508 540 471 q 546 534 540 526 q 551 556 551 542 q 529 572 551 572 q 494 553 513 572 q 449 503 475 535 l 414 461 q 362 406 388 428 q 319 379 336 385 l 319 375 q 352 369 335 372 q 385 354 369 365 q 415 322 401 343 q 436 264 429 301 l 472 79 q 488 31 478 53 q 519 10 497 10 q 556 25 539 10 q 588 61 574 40 q 611 103 601 82 q 625 135 621 124 l 644 129 q 622 81 635 107 q 589 34 608 56 q 543 -2 569 13 q 481 -17 517 -17 q 417 2 442 -17 q 378 82 392 21 l 340 256 q 331 298 336 278 q 317 333 326 318 q 293 358 308 349 q 253 367 278 367 l 222 367 l 92 0 l -4 0 l 365 1036 "},"l":{"ha":386,"x_min":19,"x_max":457,"o":"m 457 1056 l 126 125 q 113 83 119 104 q 106 42 106 61 q 115 13 106 25 q 144 1 125 1 q 188 17 167 1 q 228 52 210 32 q 258 93 246 72 q 276 126 271 114 l 293 119 q 276 85 288 108 q 243 40 264 63 q 192 0 222 17 q 119 -17 161 -17 q 47 2 74 -17 q 19 65 19 21 q 28 117 19 89 q 44 169 36 146 l 354 1036 l 231 1036 l 236 1056 l 457 1056 "},"m":{"ha":1054,"x_min":-8,"x_max":983,"o":"m 192 576 l 65 576 l 71 596 l 290 596 l 238 438 l 240 438 q 283 490 257 461 q 340 544 308 519 q 408 587 372 569 q 481 604 444 604 q 562 573 533 604 q 590 496 590 542 q 583 443 590 471 l 586 443 q 624 492 600 464 q 677 544 647 519 q 742 587 707 569 q 811 604 776 604 q 903 573 869 604 q 938 496 938 542 q 930 449 938 472 q 911 394 922 426 l 821 138 q 806 88 813 114 q 799 40 799 61 q 806 15 799 28 q 835 1 813 1 q 881 15 860 1 q 918 49 901 29 q 947 90 935 68 q 968 126 960 111 l 983 119 q 964 83 976 106 q 931 38 951 60 q 882 -1 911 15 q 813 -17 853 -17 q 738 3 768 -17 q 707 67 707 22 q 710 101 707 85 q 724 146 713 118 l 840 478 q 851 533 851 511 q 840 571 851 557 q 797 585 829 585 q 731 561 768 585 q 658 497 694 538 q 588 403 621 457 q 532 290 554 350 l 428 0 l 331 0 l 493 449 q 513 529 513 507 q 503 569 513 554 q 468 585 493 585 q 406 566 443 585 q 331 510 369 547 q 255 419 292 474 q 192 290 218 364 l 88 0 l -8 0 l 192 576 "},"n":{"ha":746,"x_min":-4,"x_max":667,"o":"m 196 576 l 69 576 l 75 596 l 294 596 l 238 425 l 240 425 q 494 604 375 604 q 587 573 553 604 q 621 496 621 542 q 613 449 621 472 q 594 394 606 426 l 504 138 q 489 91 496 114 q 482 46 482 68 q 489 15 482 29 q 518 1 496 1 q 564 15 543 1 q 602 49 585 29 q 632 90 619 68 q 651 126 644 111 l 667 119 q 647 83 660 106 q 615 38 635 60 q 565 -1 594 15 q 496 -17 536 -17 q 421 3 451 -17 q 390 67 390 22 q 395 104 390 85 q 407 146 400 124 l 524 478 q 535 533 535 511 q 523 568 535 551 q 481 585 511 585 q 410 562 450 585 q 329 499 369 539 q 253 406 289 460 q 196 290 218 353 l 92 0 l -4 0 l 196 576 "},"o":{"ha":668,"x_min":0,"x_max":579,"o":"m 92 140 q 126 35 92 69 q 213 1 160 1 q 293 26 256 1 q 361 92 331 51 q 415 183 392 133 q 455 283 439 233 q 479 378 471 333 q 488 450 488 422 q 459 556 488 517 q 360 594 431 594 q 283 571 319 594 q 217 509 247 547 q 164 422 188 471 q 124 323 140 374 q 100 224 108 272 q 92 140 92 176 m 0 218 q 35 374 0 301 q 123 500 69 447 q 242 583 176 553 q 367 614 307 614 q 461 592 421 614 q 528 535 501 569 q 567 458 554 500 q 579 378 579 417 q 544 226 579 297 q 457 100 510 154 q 340 15 404 46 q 217 -17 275 -17 q 127 3 167 -17 q 59 54 88 22 q 15 128 31 86 q 0 218 0 171 "},"p":{"ha":746,"x_min":-244,"x_max":647,"o":"m 140 147 q 154 95 146 121 q 178 49 163 69 q 217 15 194 28 q 275 1 240 1 q 349 24 314 1 q 415 84 385 47 q 471 169 446 121 q 513 266 496 217 q 540 363 531 315 q 550 449 550 411 q 526 551 550 508 q 442 594 503 594 q 376 579 406 594 q 322 542 346 564 q 281 497 299 519 q 250 457 263 474 l 140 147 m 193 576 l 64 576 l 69 596 l 289 596 l 260 506 l 263 506 q 290 540 272 521 q 331 575 307 558 q 383 603 354 592 q 444 614 411 614 q 534 594 496 614 q 597 540 572 574 q 635 463 622 507 q 647 369 647 418 q 619 244 647 311 q 542 119 592 176 q 423 22 492 61 q 272 -17 354 -17 q 179 19 218 -17 q 131 114 140 54 l 128 114 l -42 -368 l 75 -368 l 69 -387 l -244 -387 l -239 -368 l -139 -368 l 193 576 "},"q":{"ha":746,"x_min":0,"x_max":664,"o":"m 507 438 q 516 469 514 454 q 518 496 518 485 q 497 568 518 542 q 438 594 475 594 q 354 567 396 594 q 274 496 313 540 q 204 397 236 451 q 148 285 172 342 q 110 178 124 229 q 97 93 97 128 q 115 29 97 57 q 174 1 133 1 q 254 28 213 1 q 332 90 296 54 q 394 162 368 125 q 429 221 421 199 l 507 438 m 401 131 l 399 133 q 362 90 385 115 q 308 40 339 64 q 241 0 278 17 q 163 -17 204 -17 q 104 -7 133 -17 q 52 23 75 3 q 15 74 29 43 q 0 144 0 104 q 22 258 0 201 q 78 367 43 315 q 160 465 114 419 q 256 543 207 510 q 351 595 304 576 q 438 614 399 614 q 484 604 465 614 q 514 580 503 594 q 531 549 525 565 q 538 517 536 532 l 540 517 l 567 596 l 664 596 l 318 -368 l 431 -368 l 425 -387 l 93 -387 l 99 -368 l 221 -368 l 401 131 "},"r":{"ha":565,"x_min":7,"x_max":569,"o":"m 157 428 q 181 501 169 464 q 203 576 192 539 l 82 576 l 88 596 l 301 596 q 281 522 294 567 q 253 436 268 478 l 256 433 q 290 483 269 454 q 338 540 311 513 q 396 585 364 567 q 464 604 428 604 q 542 575 515 604 q 568 513 569 546 q 560 476 568 490 q 541 453 553 461 q 517 443 529 446 q 493 440 504 440 q 461 450 474 440 q 449 479 449 460 q 455 502 449 494 q 468 517 461 510 q 481 532 475 524 q 488 554 488 540 q 476 576 488 568 q 449 585 465 585 q 388 558 422 585 q 319 488 353 531 q 254 392 285 446 q 204 283 224 338 l 104 0 l 7 0 l 157 428 "},"s":{"ha":489,"x_min":-61,"x_max":439,"o":"m 144 308 q 106 363 124 336 q 89 428 89 390 q 106 493 89 460 q 151 553 122 526 q 222 597 181 581 q 310 614 263 614 q 403 588 368 614 q 439 522 439 563 q 382 464 439 464 q 348 475 363 464 q 333 507 333 486 q 342 535 333 526 q 351 558 351 544 q 304 594 351 594 q 247 585 271 594 q 206 558 222 575 q 183 521 190 542 q 175 479 175 500 q 189 427 175 451 q 228 369 203 403 l 310 263 q 333 219 326 242 q 339 172 339 196 q 315 90 339 125 q 256 31 292 54 q 180 -5 221 7 q 103 -17 139 -17 q 42 -10 71 -17 q -10 10 13 -3 q -47 44 -33 24 q -61 90 -61 64 q -41 138 -61 122 q 10 154 -21 154 q 33 145 22 154 q 43 124 43 136 q 36 92 43 107 q 29 61 29 78 q 51 15 29 28 q 107 1 72 1 q 169 13 142 1 q 215 40 196 24 q 243 78 233 57 q 253 117 253 99 q 244 167 253 144 q 214 217 235 189 l 144 308 "},"t":{"ha":411,"x_min":19,"x_max":442,"o":"m 243 732 l 340 732 l 290 596 l 442 596 l 436 576 l 285 576 l 126 135 q 113 92 119 114 q 106 47 106 69 q 116 14 106 26 q 150 1 126 1 q 197 17 175 1 q 238 52 219 32 q 268 93 256 72 q 286 126 281 114 l 303 119 q 285 85 297 108 q 251 40 272 63 q 199 0 231 17 q 125 -17 168 -17 q 46 9 72 -17 q 19 71 19 35 q 30 134 19 99 q 51 199 40 169 l 188 576 l 63 576 l 68 596 l 193 596 l 243 732 "},"u":{"ha":721,"x_min":19,"x_max":647,"o":"m 64 596 l 288 596 l 128 138 q 111 85 117 108 q 106 51 106 63 q 116 17 106 32 q 151 1 126 1 q 233 30 189 1 q 318 103 276 58 q 394 202 360 147 q 449 311 429 257 l 547 596 l 644 596 l 481 125 q 467 83 474 104 q 460 42 460 61 q 469 13 460 25 q 499 1 479 1 q 544 17 522 1 q 583 52 565 32 q 613 93 600 72 q 631 126 625 114 l 647 119 q 630 85 642 108 q 597 40 618 63 q 546 0 576 17 q 474 -17 515 -17 q 401 2 428 -17 q 374 65 374 21 q 379 110 374 89 q 396 160 385 132 l 393 163 q 347 106 374 138 q 288 48 319 75 q 222 2 257 21 q 149 -17 186 -17 q 54 11 89 -17 q 19 92 19 39 q 29 141 19 113 q 46 192 39 169 l 182 576 l 58 576 l 64 596 "},"v":{"ha":643,"x_min":63,"x_max":564,"o":"m 126 -7 q 143 56 143 14 q 138 97 143 79 q 125 133 132 114 l 96 214 q 73 279 83 246 q 63 343 63 313 q 108 472 63 407 q 225 599 153 536 l 254 624 l 267 610 q 240 581 258 600 q 202 536 221 563 q 169 477 183 510 q 154 407 154 444 q 167 310 154 354 q 200 217 181 265 q 220 156 213 183 q 229 106 228 129 q 303 165 260 131 q 385 240 346 200 q 451 327 424 281 q 478 421 478 374 q 471 473 478 453 q 455 508 464 493 q 439 538 446 524 q 432 569 432 551 q 451 603 432 593 q 496 614 469 614 q 564 513 564 614 q 547 423 564 467 q 504 340 531 379 q 444 266 478 301 q 376 201 410 231 l 306 140 q 250 96 272 111 q 207 60 228 81 q 169 18 185 38 q 144 -17 153 -1 l 126 -7 "},"w":{"ha":1029,"x_min":54,"x_max":950,"o":"m 653 610 q 625 581 644 600 q 587 537 606 563 q 553 478 568 511 q 539 407 539 444 q 553 310 539 354 q 586 217 567 265 q 606 156 599 183 q 615 106 614 129 q 689 165 646 131 q 771 240 732 200 q 837 327 810 281 q 864 421 864 374 q 857 473 864 453 q 841 508 850 493 q 825 538 832 524 q 818 569 818 551 q 837 603 818 593 q 882 614 856 614 q 950 513 950 614 q 933 423 950 467 q 890 340 917 379 q 830 266 864 301 q 763 201 796 231 l 692 140 q 636 96 658 111 q 593 60 614 81 q 555 18 571 38 q 531 -17 539 -1 l 513 -7 q 529 56 529 14 q 524 97 529 79 q 511 133 518 114 l 482 214 q 468 258 474 242 q 458 290 463 275 q 417 251 439 271 q 368 204 394 231 l 297 143 q 242 99 264 114 q 199 63 219 83 q 136 -17 156 19 l 118 -7 q 135 58 135 14 q 129 99 135 82 q 117 136 124 117 l 88 217 q 65 282 75 249 q 54 346 54 315 q 99 474 54 410 q 217 601 144 539 l 246 624 l 258 610 q 231 583 250 601 q 194 538 213 564 q 160 480 175 513 q 146 410 146 447 q 159 313 146 357 q 192 219 172 268 q 212 159 204 186 q 221 108 219 132 q 294 168 251 133 q 376 243 338 203 q 442 330 415 283 q 469 424 469 376 q 463 476 469 456 q 447 511 456 496 q 431 540 438 526 q 424 572 424 554 q 442 604 424 594 q 488 614 461 614 q 534 588 517 611 q 551 542 551 565 q 598 588 571 564 q 640 624 625 613 l 653 610 "},"x":{"ha":772,"x_min":-49,"x_max":733,"o":"m 79 450 q 101 490 85 463 q 142 545 117 518 q 202 593 167 572 q 282 614 238 614 q 342 601 318 614 q 382 569 367 588 q 405 530 397 550 q 417 494 413 510 q 445 528 426 507 q 490 567 464 549 q 547 600 515 586 q 614 614 579 614 q 705 580 676 614 q 733 504 733 546 q 717 452 733 476 q 660 428 700 428 q 629 435 642 428 q 617 463 617 443 q 623 488 617 478 q 636 508 629 499 q 649 527 643 517 q 656 554 656 538 q 640 585 656 576 q 607 594 625 594 q 538 564 571 594 q 477 487 506 533 q 426 383 449 440 q 386 271 403 325 q 360 172 369 217 q 351 107 351 128 q 369 31 351 60 q 425 1 388 1 q 488 19 460 1 q 539 60 517 36 q 577 110 561 83 q 603 153 593 136 l 621 144 q 598 105 614 132 q 556 51 582 78 q 496 3 531 24 q 417 -17 461 -17 q 360 -4 383 -17 q 321 26 336 8 q 297 65 306 44 q 285 100 289 85 q 244 58 265 79 q 199 21 224 38 q 144 -6 174 4 q 78 -17 115 -17 q 19 -8 43 -17 q -19 16 -4 1 q -42 49 -35 31 q -49 86 -49 68 q -26 147 -49 128 q 25 165 -4 165 q 53 157 40 165 q 65 129 65 149 q 60 106 65 115 q 47 89 54 97 q 33 70 39 81 q 28 42 28 60 q 44 10 28 18 q 90 1 60 1 q 126 8 107 1 q 167 33 146 14 q 212 86 189 51 q 260 179 235 121 q 288 251 272 208 q 317 340 303 294 q 340 427 331 385 q 349 497 349 469 q 331 566 349 538 q 272 594 314 594 q 210 576 239 594 q 159 533 182 558 q 121 483 136 508 q 99 442 106 457 l 79 450 "},"y":{"ha":643,"x_min":-187,"x_max":674,"o":"m 3 436 q 17 489 8 458 q 41 547 25 519 q 81 594 57 575 q 143 614 106 614 q 217 591 188 614 q 265 533 247 568 q 290 458 282 499 q 297 383 297 418 q 287 226 297 292 q 267 115 276 160 l 269 115 l 482 499 q 505 540 493 519 q 532 577 517 561 q 567 603 547 593 q 614 614 588 614 q 660 597 647 614 q 674 560 674 581 q 657 517 674 533 q 613 500 640 500 q 586 525 586 500 q 594 548 586 540 q 601 568 601 556 q 582 586 601 589 q 546 562 565 585 q 496 485 526 539 l 243 26 l 163 -124 q 113 -210 139 -168 q 58 -283 88 -251 q -3 -335 29 -315 q -69 -354 -35 -354 q -155 -328 -122 -354 q -187 -258 -187 -303 q -167 -210 -187 -222 q -122 -199 -146 -199 q -93 -208 -104 -199 q -82 -233 -82 -217 q -84 -252 -82 -246 q -89 -265 -86 -258 q -94 -278 -92 -271 q -96 -300 -96 -286 q -83 -325 -96 -315 q -49 -335 -69 -335 q 33 -285 -10 -335 q 110 -153 75 -235 q 169 33 146 -72 q 192 247 192 138 q 186 424 192 356 q 172 530 181 492 q 151 581 163 568 q 128 594 140 594 q 85 576 103 594 q 54 531 67 557 q 34 476 42 504 q 22 431 26 449 l 3 436 "},"z":{"ha":643,"x_min":-35,"x_max":549,"o":"m 414 500 q 344 503 385 501 q 265 506 304 504 q 194 508 226 507 q 151 508 163 508 q 117 500 128 508 q 100 472 106 492 l 93 446 l 74 450 q 83 481 78 463 q 92 519 88 500 q 101 556 97 539 q 108 579 106 572 q 119 596 113 590 q 142 601 125 601 q 210 600 161 601 q 315 597 260 599 q 418 592 369 594 q 483 590 467 590 q 506 597 497 590 q 519 610 514 603 l 533 599 l 103 119 q 208 110 147 119 q 315 75 268 100 l 383 42 q 460 21 428 21 q 491 33 481 21 q 501 60 501 44 q 495 81 501 72 q 476 100 489 89 q 447 126 463 111 q 431 168 431 140 q 449 204 431 193 q 486 215 467 215 q 534 194 519 215 q 549 136 549 172 q 535 64 549 93 q 498 17 521 35 q 444 -9 475 -1 q 379 -17 414 -17 q 326 -10 357 -17 q 257 4 294 -4 l 190 21 q 142 31 167 28 q 85 33 117 33 q 22 16 47 33 q -18 -17 -4 -1 l -35 -4 l 414 500 "},"{":{"ha":565,"x_min":24,"x_max":631,"o":"m 261 -387 q 210 -378 240 -385 q 153 -354 181 -371 q 106 -308 125 -337 q 86 -229 86 -278 q 90 -190 86 -212 q 98 -145 93 -168 q 108 -102 103 -122 q 118 -69 114 -82 l 157 78 q 165 112 160 89 q 171 158 171 135 q 156 222 171 197 q 117 263 140 247 q 69 285 94 278 q 24 297 44 293 l 25 304 q 140 335 97 315 q 209 382 183 354 q 247 445 235 410 q 271 522 260 481 l 319 704 q 363 836 340 782 q 419 924 385 890 q 503 974 453 958 q 631 989 554 989 l 624 964 q 513 951 557 964 q 440 907 469 938 q 390 828 410 876 q 351 711 369 781 l 321 603 l 301 518 q 268 424 286 463 q 223 359 250 385 q 157 319 196 333 q 64 300 118 306 q 103 294 81 299 q 149 272 126 290 q 192 213 182 246 q 201 161 201 181 q 194 105 201 135 q 181 53 188 75 l 136 -111 q 131 -131 135 -118 q 125 -160 128 -144 q 119 -194 122 -176 q 117 -228 117 -211 q 157 -325 117 -292 q 268 -362 197 -358 l 261 -387 "},"|":{"ha":308,"x_min":140,"x_max":168,"o":"m 140 1042 l 168 1042 l 168 -346 l 140 -346 l 140 1042 "},"}":{"ha":565,"x_min":-162,"x_max":450,"o":"m 449 297 q 335 267 378 286 q 265 220 292 247 q 225 158 239 193 q 200 79 211 122 l 150 -103 q 103 -239 128 -185 q 42 -326 78 -293 q -42 -374 7 -360 q -162 -387 -92 -387 l -156 -362 q -53 -351 -96 -362 q 22 -312 -10 -340 q 76 -235 53 -283 q 119 -111 99 -186 l 149 0 q 153 16 150 4 q 159 42 156 28 q 165 67 163 56 q 169 83 168 79 q 203 178 185 139 q 250 242 222 217 q 317 282 278 268 q 410 300 356 296 q 372 307 394 303 q 325 329 349 311 q 284 388 293 356 q 275 438 275 419 q 281 488 275 463 q 296 547 286 513 l 340 713 q 353 767 346 732 q 361 832 361 801 q 320 929 361 899 q 213 964 279 960 l 219 989 q 271 979 242 986 q 327 955 300 972 q 373 908 354 938 q 392 832 392 879 q 383 768 392 803 q 358 671 375 733 l 318 522 q 310 488 315 510 q 306 442 306 465 q 320 379 306 404 q 356 339 335 354 q 403 316 378 324 q 450 304 428 308 l 449 297 "},"~":{"ha":824,"x_min":-36,"x_max":742,"o":"m 742 444 q 723 390 735 422 q 690 328 711 358 q 635 278 668 299 q 554 257 603 257 q 515 261 539 257 q 435 288 492 265 l 265 353 q 209 373 242 363 q 144 383 176 383 q 77 366 104 383 q 33 324 50 349 q 6 272 15 299 q -11 225 -4 244 l -36 225 q -18 281 -29 249 q 15 342 -7 313 q 69 391 36 371 q 153 411 103 411 q 188 408 169 411 q 222 399 206 404 q 253 390 239 394 q 274 382 267 385 l 446 317 q 515 292 492 299 q 560 285 539 285 q 658 331 621 285 q 717 444 694 378 l 742 444 "},"":{"ha":1003,"x_min":-121,"x_max":939,"o":"m 808 1201 q 827 1248 808 1229 q 874 1267 846 1267 q 920 1248 901 1267 q 939 1201 939 1229 q 920 1155 939 1174 q 874 1136 901 1136 q 827 1155 846 1136 q 808 1201 808 1174 m 553 1201 q 572 1248 553 1229 q 618 1267 590 1267 q 665 1248 646 1267 q 683 1201 683 1229 q 665 1155 683 1174 q 618 1136 646 1136 q 572 1155 590 1136 q 553 1201 553 1174 m 617 850 l 614 850 l 317 428 l 622 428 l 617 850 m -115 19 l 3 19 l 700 1011 l 732 1011 l 757 19 l 907 19 l 901 0 l 474 0 l 479 19 l 631 19 l 622 408 l 303 408 l 31 19 l 171 19 l 165 0 l -121 0 l -115 19 "},"":{"ha":1003,"x_min":-121,"x_max":907,"o":"m 843 1231 q 833 1276 843 1258 q 794 1293 822 1293 q 757 1277 775 1293 q 726 1238 739 1261 q 704 1188 713 1215 q 696 1139 696 1161 q 705 1089 696 1108 q 742 1069 714 1069 q 781 1085 763 1069 q 813 1126 799 1101 q 835 1178 826 1150 q 843 1231 843 1206 m 890 1214 q 877 1156 890 1185 q 842 1105 864 1128 q 794 1068 821 1082 q 740 1054 768 1054 q 699 1063 717 1054 q 671 1086 682 1072 q 654 1118 660 1100 q 649 1153 649 1136 q 663 1208 649 1181 q 699 1258 676 1236 q 749 1294 721 1281 q 803 1308 776 1308 q 865 1282 839 1308 q 890 1214 890 1256 m 617 850 l 614 850 l 317 428 l 622 428 l 617 850 m -115 19 l 3 19 l 700 1011 l 732 1011 l 757 19 l 907 19 l 901 0 l 474 0 l 479 19 l 631 19 l 622 408 l 303 408 l 31 19 l 171 19 l 165 0 l -121 0 l -115 19 "},"":{"ha":900,"x_min":81,"x_max":974,"o":"m 878 721 l 860 721 q 865 761 863 735 q 868 815 868 788 q 851 892 868 860 q 806 946 835 925 q 739 977 778 967 q 656 988 700 988 q 521 946 583 988 q 406 838 458 904 q 313 687 354 771 q 244 518 272 603 q 201 356 215 433 q 186 222 186 278 q 247 55 186 110 q 421 0 308 0 q 532 22 483 0 q 618 76 581 44 q 681 146 656 108 q 724 214 707 183 l 742 204 q 711 151 733 188 q 649 76 689 114 q 553 10 610 39 q 418 -18 496 -18 l 400 -18 l 306 -107 l 308 -110 q 340 -96 321 -103 q 383 -89 360 -89 q 418 -94 400 -89 q 450 -112 436 -100 q 473 -143 464 -124 q 482 -189 482 -162 q 469 -251 482 -224 q 433 -299 456 -279 q 381 -330 410 -319 q 319 -340 351 -340 q 253 -325 282 -340 q 215 -300 225 -310 l 228 -283 q 263 -308 243 -294 q 314 -321 283 -321 q 358 -306 340 -321 q 385 -268 375 -290 q 400 -222 396 -246 q 404 -179 404 -197 q 353 -117 404 -117 q 315 -123 331 -117 q 292 -135 299 -129 l 275 -112 l 376 -17 q 240 25 296 -10 q 148 114 183 60 q 97 236 113 168 q 81 376 81 304 q 106 540 81 461 q 176 690 132 619 q 278 818 219 760 q 401 918 336 876 q 532 983 465 960 q 660 1007 599 1007 q 740 999 706 1007 q 802 980 775 990 q 851 961 829 969 q 894 953 874 953 q 931 965 917 953 q 953 993 944 976 l 974 989 l 878 721 "},"":{"ha":951,"x_min":-122,"x_max":983,"o":"m 824 1265 q 858 1297 843 1285 q 892 1308 874 1308 q 922 1297 910 1308 q 933 1268 933 1286 q 923 1240 933 1253 q 874 1203 913 1226 l 651 1072 l 632 1072 l 824 1265 m 367 969 l 206 969 l 211 989 l 983 989 l 899 753 l 879 753 q 890 797 885 768 q 896 853 896 826 q 874 937 896 904 q 785 969 851 969 l 492 969 l 338 540 l 468 540 q 547 563 513 540 q 605 616 581 586 q 644 675 629 646 q 667 717 660 704 l 686 717 l 540 313 l 521 313 q 533 358 528 329 q 539 414 539 388 q 508 494 539 467 q 425 521 478 521 l 331 521 l 151 19 l 476 19 q 580 51 532 19 q 665 126 628 83 q 726 210 701 168 q 763 272 751 251 l 782 272 l 685 0 l -122 0 l -117 19 l 26 19 l 367 969 "},"":{"ha":978,"x_min":-129,"x_max":1110,"o":"m 514 1106 q 564 1206 524 1168 q 653 1243 604 1243 q 695 1235 678 1243 q 728 1219 713 1226 l 782 1190 q 814 1179 801 1183 q 842 1175 826 1175 q 873 1183 858 1175 q 899 1201 888 1190 q 919 1225 911 1213 q 931 1247 926 1238 l 949 1247 q 938 1210 946 1233 q 913 1163 929 1186 q 872 1123 896 1140 q 813 1106 847 1106 q 769 1110 789 1106 q 726 1128 750 1115 l 690 1147 q 656 1166 671 1158 q 621 1174 640 1174 q 588 1166 603 1174 q 561 1148 572 1158 q 543 1126 550 1138 q 533 1106 536 1114 l 514 1106 m 363 919 l 360 919 l 39 19 l 197 19 l 192 0 l -129 0 l -124 19 l 18 19 l 357 969 l 199 969 l 204 989 l 467 989 l 664 206 l 667 206 l 939 969 l 779 969 l 785 989 l 1110 989 l 1104 969 l 961 969 l 611 -18 l 601 -18 l 363 919 "},"":{"ha":1081,"x_min":83,"x_max":1001,"o":"m 847 1201 q 866 1248 847 1229 q 913 1267 885 1267 q 959 1248 940 1267 q 978 1201 978 1229 q 959 1155 978 1174 q 913 1136 940 1136 q 866 1155 885 1136 q 847 1201 847 1174 m 592 1201 q 610 1248 592 1229 q 657 1267 629 1267 q 703 1248 685 1267 q 722 1201 722 1229 q 703 1155 722 1174 q 657 1136 685 1136 q 610 1155 629 1136 q 592 1201 592 1174 m 189 219 q 199 136 189 176 q 233 66 208 96 q 301 18 258 36 q 408 0 343 0 q 558 42 490 0 q 678 150 625 83 q 772 300 732 217 q 838 468 813 383 q 877 630 864 553 q 890 760 890 707 q 839 928 890 868 q 675 988 788 988 q 531 947 597 988 q 411 842 465 907 q 315 694 357 776 q 246 526 274 611 q 203 360 218 440 q 189 219 189 279 m 83 379 q 108 536 83 458 q 176 684 133 614 q 276 813 218 754 q 401 915 335 872 q 538 983 467 958 q 678 1007 608 1007 q 830 970 768 1007 q 930 875 892 933 q 985 745 968 817 q 1001 604 1001 674 q 978 453 1001 529 q 915 309 956 378 q 817 181 874 240 q 693 76 760 121 q 552 7 626 32 q 400 -18 478 -18 q 272 8 331 -18 q 172 83 214 33 q 107 208 131 133 q 83 379 83 282 "},"":{"ha":1029,"x_min":117,"x_max":1150,"o":"m 822 1201 q 841 1248 822 1229 q 888 1267 860 1267 q 934 1248 915 1267 q 953 1201 953 1229 q 934 1155 953 1174 q 888 1136 915 1136 q 841 1155 860 1136 q 822 1201 822 1174 m 567 1201 q 585 1248 567 1229 q 632 1267 604 1267 q 678 1248 660 1267 q 697 1201 697 1229 q 678 1155 697 1174 q 632 1136 660 1136 q 585 1155 604 1136 q 567 1201 567 1174 m 204 989 l 633 989 l 628 969 l 482 969 l 269 376 q 238 273 249 318 q 226 175 226 228 q 238 108 226 140 q 273 52 250 76 q 331 14 296 28 q 410 0 365 0 q 556 31 494 0 q 662 110 618 61 q 734 217 706 158 q 781 335 763 276 l 978 969 l 819 969 l 825 989 l 1150 989 l 1144 969 l 1000 969 l 796 317 q 647 62 742 142 q 399 -18 553 -18 q 265 4 319 -18 q 178 60 211 26 q 131 134 144 93 q 117 213 117 175 q 131 328 117 272 q 174 458 146 385 l 357 969 l 199 969 l 204 989 "},"":{"ha":746,"x_min":-1,"x_max":706,"o":"m 596 960 q 631 991 615 979 q 664 1003 646 1003 q 694 992 682 1003 q 706 963 706 981 q 695 934 706 947 q 646 897 685 921 l 424 767 l 404 767 l 596 960 m 493 414 q 515 477 510 458 q 519 510 519 496 q 516 537 519 522 q 503 564 513 551 q 479 585 494 576 q 439 594 464 594 q 349 569 393 594 q 267 501 306 543 q 197 406 229 460 q 142 298 165 353 q 107 192 119 243 q 94 101 94 140 q 112 29 94 57 q 169 1 129 1 q 251 26 210 1 q 328 86 293 51 q 388 156 363 121 q 419 210 413 190 l 493 414 m 504 175 q 483 106 492 139 q 474 46 474 72 q 508 10 474 10 q 558 26 536 10 q 597 62 581 42 q 623 102 613 82 q 638 131 633 122 l 656 121 q 635 82 649 106 q 599 37 621 58 q 547 -1 576 15 q 479 -17 518 -17 q 388 67 388 -17 q 392 101 388 76 q 403 144 396 125 l 400 144 q 356 92 381 121 q 299 40 331 64 q 231 -1 268 15 q 147 -17 193 -17 q 91 -6 118 -17 q 43 26 64 4 q 10 81 22 47 q -1 160 -1 114 q 21 271 -1 215 q 78 377 43 326 q 160 471 114 428 q 255 546 207 514 q 349 596 303 578 q 432 614 396 614 q 503 590 474 614 q 532 528 532 567 l 535 528 l 558 596 l 656 596 l 504 175 "},"":{"ha":746,"x_min":-1,"x_max":656,"o":"m 321 913 q 290 958 290 935 q 302 990 290 978 q 338 1003 314 1003 q 368 992 357 1003 q 389 965 379 981 l 526 767 l 506 767 l 321 913 m 493 414 q 515 477 510 458 q 519 510 519 496 q 516 537 519 522 q 503 564 513 551 q 479 585 494 576 q 439 594 464 594 q 349 569 393 594 q 267 501 306 543 q 197 406 229 460 q 142 298 165 353 q 107 192 119 243 q 94 101 94 140 q 112 29 94 57 q 169 1 129 1 q 251 26 210 1 q 328 86 293 51 q 388 156 363 121 q 419 210 413 190 l 493 414 m 504 175 q 483 106 492 139 q 474 46 474 72 q 508 10 474 10 q 558 26 536 10 q 597 62 581 42 q 623 102 613 82 q 638 131 633 122 l 656 121 q 635 82 649 106 q 599 37 621 58 q 547 -1 576 15 q 479 -17 518 -17 q 388 67 388 -17 q 392 101 388 76 q 403 144 396 125 l 400 144 q 356 92 381 121 q 299 40 331 64 q 231 -1 268 15 q 147 -17 193 -17 q 91 -6 118 -17 q 43 26 64 4 q 10 81 22 47 q -1 160 -1 114 q 21 271 -1 215 q 78 377 43 326 q 160 471 114 428 q 255 546 207 514 q 349 596 303 578 q 432 614 396 614 q 503 590 474 614 q 532 528 532 567 l 535 528 l 558 596 l 656 596 l 504 175 "},"":{"ha":746,"x_min":-1,"x_max":658,"o":"m 485 1000 l 536 1000 l 658 767 l 639 767 l 499 914 l 283 767 l 261 767 l 485 1000 m 493 414 q 515 477 510 458 q 519 510 519 496 q 516 537 519 522 q 503 564 513 551 q 479 585 494 576 q 439 594 464 594 q 349 569 393 594 q 267 501 306 543 q 197 406 229 460 q 142 298 165 353 q 107 192 119 243 q 94 101 94 140 q 112 29 94 57 q 169 1 129 1 q 251 26 210 1 q 328 86 293 51 q 388 156 363 121 q 419 210 413 190 l 493 414 m 504 175 q 483 106 492 139 q 474 46 474 72 q 508 10 474 10 q 558 26 536 10 q 597 62 581 42 q 623 102 613 82 q 638 131 633 122 l 656 121 q 635 82 649 106 q 599 37 621 58 q 547 -1 576 15 q 479 -17 518 -17 q 388 67 388 -17 q 392 101 388 76 q 403 144 396 125 l 400 144 q 356 92 381 121 q 299 40 331 64 q 231 -1 268 15 q 147 -17 193 -17 q 91 -6 118 -17 q 43 26 64 4 q 10 81 22 47 q -1 160 -1 114 q 21 271 -1 215 q 78 377 43 326 q 160 471 114 428 q 255 546 207 514 q 349 596 303 578 q 432 614 396 614 q 503 590 474 614 q 532 528 532 567 l 535 528 l 558 596 l 656 596 l 504 175 "},"":{"ha":746,"x_min":-1,"x_max":686,"o":"m 556 924 q 574 970 556 951 q 621 989 593 989 q 667 970 649 989 q 686 924 686 951 q 667 877 686 896 q 621 858 649 858 q 574 877 593 858 q 556 924 556 896 m 300 924 q 319 970 300 951 q 365 989 338 989 q 412 970 393 989 q 431 924 431 951 q 412 877 431 896 q 365 858 393 858 q 319 877 338 858 q 300 924 300 896 m 493 414 q 515 477 510 458 q 519 510 519 496 q 516 537 519 522 q 503 564 513 551 q 479 585 494 576 q 439 594 464 594 q 349 569 393 594 q 267 501 306 543 q 197 406 229 460 q 142 298 165 353 q 107 192 119 243 q 94 101 94 140 q 112 29 94 57 q 169 1 129 1 q 251 26 210 1 q 328 86 293 51 q 388 156 363 121 q 419 210 413 190 l 493 414 m 504 175 q 483 106 492 139 q 474 46 474 72 q 508 10 474 10 q 558 26 536 10 q 597 62 581 42 q 623 102 613 82 q 638 131 633 122 l 656 121 q 635 82 649 106 q 599 37 621 58 q 547 -1 576 15 q 479 -17 518 -17 q 388 67 388 -17 q 392 101 388 76 q 403 144 396 125 l 400 144 q 356 92 381 121 q 299 40 331 64 q 231 -1 268 15 q 147 -17 193 -17 q 91 -6 118 -17 q 43 26 64 4 q 10 81 22 47 q -1 160 -1 114 q 21 271 -1 215 q 78 377 43 326 q 160 471 114 428 q 255 546 207 514 q 349 596 303 578 q 432 614 396 614 q 503 590 474 614 q 532 528 532 567 l 535 528 l 558 596 l 656 596 l 504 175 "},"":{"ha":746,"x_min":-1,"x_max":708,"o":"m 274 800 q 324 900 283 863 q 413 938 364 938 q 455 929 438 938 q 488 914 472 921 l 542 885 q 574 874 561 878 q 601 869 586 869 q 633 877 618 869 q 659 896 647 885 q 678 919 671 907 q 690 942 686 932 l 708 942 q 697 904 706 928 q 672 858 689 881 q 631 817 656 835 q 572 800 607 800 q 529 805 549 800 q 486 822 510 810 l 450 842 q 415 860 431 853 q 381 868 400 868 q 347 860 363 868 q 321 842 332 853 q 303 820 310 832 q 293 800 296 808 l 274 800 m 493 414 q 515 477 510 458 q 519 510 519 496 q 516 537 519 522 q 503 564 513 551 q 479 585 494 576 q 439 594 464 594 q 349 569 393 594 q 267 501 306 543 q 197 406 229 460 q 142 298 165 353 q 107 192 119 243 q 94 101 94 140 q 112 29 94 57 q 169 1 129 1 q 251 26 210 1 q 328 86 293 51 q 388 156 363 121 q 419 210 413 190 l 493 414 m 504 175 q 483 106 492 139 q 474 46 474 72 q 508 10 474 10 q 558 26 536 10 q 597 62 581 42 q 623 102 613 82 q 638 131 633 122 l 656 121 q 635 82 649 106 q 599 37 621 58 q 547 -1 576 15 q 479 -17 518 -17 q 388 67 388 -17 q 392 101 388 76 q 403 144 396 125 l 400 144 q 356 92 381 121 q 299 40 331 64 q 231 -1 268 15 q 147 -17 193 -17 q 91 -6 118 -17 q 43 26 64 4 q 10 81 22 47 q -1 160 -1 114 q 21 271 -1 215 q 78 377 43 326 q 160 471 114 428 q 255 546 207 514 q 349 596 303 578 q 432 614 396 614 q 503 590 474 614 q 532 528 532 567 l 535 528 l 558 596 l 656 596 l 504 175 "},"":{"ha":746,"x_min":-1,"x_max":656,"o":"m 590 953 q 580 998 590 981 q 542 1015 569 1015 q 504 999 522 1015 q 473 960 486 983 q 451 910 460 938 q 443 861 443 883 q 452 811 443 831 q 489 792 461 792 q 528 808 510 792 q 560 848 546 824 q 582 900 574 872 q 590 953 590 928 m 638 936 q 624 878 638 907 q 590 827 611 850 q 542 790 568 804 q 488 776 515 776 q 447 785 464 776 q 418 808 429 794 q 401 840 407 822 q 396 875 396 858 q 410 931 396 903 q 446 981 424 958 q 496 1017 468 1003 q 550 1031 524 1031 q 612 1004 586 1031 q 638 936 638 978 m 493 414 q 515 477 510 458 q 519 510 519 496 q 516 537 519 522 q 503 564 513 551 q 479 585 494 576 q 439 594 464 594 q 349 569 393 594 q 267 501 306 543 q 197 406 229 460 q 142 298 165 353 q 107 192 119 243 q 94 101 94 140 q 112 29 94 57 q 169 1 129 1 q 251 26 210 1 q 328 86 293 51 q 388 156 363 121 q 419 210 413 190 l 493 414 m 504 175 q 483 106 492 139 q 474 46 474 72 q 508 10 474 10 q 558 26 536 10 q 597 62 581 42 q 623 102 613 82 q 638 131 633 122 l 656 121 q 635 82 649 106 q 599 37 621 58 q 547 -1 576 15 q 479 -17 518 -17 q 388 67 388 -17 q 392 101 388 76 q 403 144 396 125 l 400 144 q 356 92 381 121 q 299 40 331 64 q 231 -1 268 15 q 147 -17 193 -17 q 91 -6 118 -17 q 43 26 64 4 q 10 81 22 47 q -1 160 -1 114 q 21 271 -1 215 q 78 377 43 326 q 160 471 114 428 q 255 546 207 514 q 349 596 303 578 q 432 614 396 614 q 503 590 474 614 q 532 528 532 567 l 535 528 l 558 596 l 656 596 l 504 175 "},"":{"ha":565,"x_min":14,"x_max":540,"o":"m 208 -17 q 126 6 163 -12 q 65 51 90 24 q 27 115 40 79 q 14 192 14 151 q 47 337 14 263 q 136 473 81 411 q 263 574 192 535 q 411 614 335 614 q 458 608 435 614 q 499 590 481 603 q 528 556 517 578 q 540 503 540 535 q 517 443 540 457 q 469 429 494 429 q 435 440 444 429 q 425 464 425 450 q 431 491 425 481 q 444 510 436 501 q 457 528 451 518 q 463 556 463 539 q 447 586 463 578 q 403 594 431 594 q 319 572 358 594 q 248 513 281 550 q 190 429 215 476 q 147 332 165 382 q 120 233 129 282 q 111 144 111 185 q 145 43 111 85 q 250 1 179 1 q 322 16 289 1 q 381 53 354 31 q 426 101 407 75 q 458 147 446 126 l 478 136 q 438 84 461 111 q 385 35 415 57 q 318 -2 356 13 q 233 -17 281 -17 l 139 -107 l 142 -110 q 174 -96 154 -103 q 217 -89 193 -89 q 251 -94 233 -89 q 283 -112 269 -100 q 306 -143 297 -124 q 315 -189 315 -162 q 302 -251 315 -224 q 266 -299 289 -279 q 214 -330 243 -319 q 153 -340 185 -340 q 87 -325 115 -340 q 49 -300 58 -310 l 61 -283 q 97 -308 76 -294 q 147 -321 117 -321 q 191 -306 174 -321 q 219 -268 208 -290 q 233 -222 229 -246 q 238 -179 238 -197 q 186 -117 238 -117 q 148 -123 164 -117 q 125 -135 132 -129 l 108 -112 l 208 -17 "},"":{"ha":592,"x_min":3,"x_max":628,"o":"m 518 960 q 553 991 538 979 q 586 1003 568 1003 q 616 992 604 1003 q 628 963 628 981 q 617 934 628 947 q 568 897 607 921 l 346 767 l 326 767 l 518 960 m 461 528 q 444 575 461 556 q 389 594 428 594 q 306 569 346 594 q 235 508 267 544 q 179 428 203 471 q 143 350 156 386 q 214 344 175 344 q 308 360 264 344 q 387 400 353 375 q 441 458 421 425 q 461 528 461 492 m 464 136 q 439 101 456 126 q 393 49 422 75 q 322 3 364 24 q 219 -17 279 -17 q 119 3 160 -17 q 52 53 78 22 q 15 120 26 83 q 3 192 3 157 q 37 335 3 261 q 126 472 71 410 q 250 574 181 533 q 392 614 319 614 q 447 608 419 614 q 497 589 475 601 q 533 557 519 576 q 547 510 547 538 q 527 444 547 472 q 475 395 507 415 q 405 361 443 375 q 331 340 367 347 q 265 328 294 332 q 221 325 235 325 q 175 326 197 325 q 136 331 153 328 q 110 242 121 286 q 100 150 100 199 q 139 38 100 75 q 238 1 178 1 q 316 19 282 1 q 376 60 350 36 q 419 108 401 83 q 447 146 436 132 l 464 136 "},"":{"ha":592,"x_min":3,"x_max":547,"o":"m 243 913 q 213 958 213 935 q 224 990 213 978 q 260 1003 236 1003 q 290 992 279 1003 q 311 965 301 981 l 449 767 l 428 767 l 243 913 m 461 528 q 444 575 461 556 q 389 594 428 594 q 306 569 346 594 q 235 508 267 544 q 179 428 203 471 q 143 350 156 386 q 214 344 175 344 q 308 360 264 344 q 387 400 353 375 q 441 458 421 425 q 461 528 461 492 m 464 136 q 439 101 456 126 q 393 49 422 75 q 322 3 364 24 q 219 -17 279 -17 q 119 3 160 -17 q 52 53 78 22 q 15 120 26 83 q 3 192 3 157 q 37 335 3 261 q 126 472 71 410 q 250 574 181 533 q 392 614 319 614 q 447 608 419 614 q 497 589 475 601 q 533 557 519 576 q 547 510 547 538 q 527 444 547 472 q 475 395 507 415 q 405 361 443 375 q 331 340 367 347 q 265 328 294 332 q 221 325 235 325 q 175 326 197 325 q 136 331 153 328 q 110 242 121 286 q 100 150 100 199 q 139 38 100 75 q 238 1 178 1 q 316 19 282 1 q 376 60 350 36 q 419 108 401 83 q 447 146 436 132 l 464 136 "},"":{"ha":592,"x_min":3,"x_max":581,"o":"m 407 1000 l 458 1000 l 581 767 l 561 767 l 421 914 l 206 767 l 183 767 l 407 1000 m 461 528 q 444 575 461 556 q 389 594 428 594 q 306 569 346 594 q 235 508 267 544 q 179 428 203 471 q 143 350 156 386 q 214 344 175 344 q 308 360 264 344 q 387 400 353 375 q 441 458 421 425 q 461 528 461 492 m 464 136 q 439 101 456 126 q 393 49 422 75 q 322 3 364 24 q 219 -17 279 -17 q 119 3 160 -17 q 52 53 78 22 q 15 120 26 83 q 3 192 3 157 q 37 335 3 261 q 126 472 71 410 q 250 574 181 533 q 392 614 319 614 q 447 608 419 614 q 497 589 475 601 q 533 557 519 576 q 547 510 547 538 q 527 444 547 472 q 475 395 507 415 q 405 361 443 375 q 331 340 367 347 q 265 328 294 332 q 221 325 235 325 q 175 326 197 325 q 136 331 153 328 q 110 242 121 286 q 100 150 100 199 q 139 38 100 75 q 238 1 178 1 q 316 19 282 1 q 376 60 350 36 q 419 108 401 83 q 447 146 436 132 l 464 136 "},"":{"ha":592,"x_min":3,"x_max":608,"o":"m 478 924 q 497 970 478 951 q 543 989 515 989 q 590 970 571 989 q 608 924 608 951 q 590 877 608 896 q 543 858 571 858 q 497 877 515 858 q 478 924 478 896 m 222 924 q 241 970 222 951 q 288 989 260 989 q 334 970 315 989 q 353 924 353 951 q 334 877 353 896 q 288 858 315 858 q 241 877 260 858 q 222 924 222 896 m 461 528 q 444 575 461 556 q 389 594 428 594 q 306 569 346 594 q 235 508 267 544 q 179 428 203 471 q 143 350 156 386 q 214 344 175 344 q 308 360 264 344 q 387 400 353 375 q 441 458 421 425 q 461 528 461 492 m 464 136 q 439 101 456 126 q 393 49 422 75 q 322 3 364 24 q 219 -17 279 -17 q 119 3 160 -17 q 52 53 78 22 q 15 120 26 83 q 3 192 3 157 q 37 335 3 261 q 126 472 71 410 q 250 574 181 533 q 392 614 319 614 q 447 608 419 614 q 497 589 475 601 q 533 557 519 576 q 547 510 547 538 q 527 444 547 472 q 475 395 507 415 q 405 361 443 375 q 331 340 367 347 q 265 328 294 332 q 221 325 235 325 q 175 326 197 325 q 136 331 153 328 q 110 242 121 286 q 100 150 100 199 q 139 38 100 75 q 238 1 178 1 q 316 19 282 1 q 376 60 350 36 q 419 108 401 83 q 447 146 436 132 l 464 136 "},"":{"ha":386,"x_min":19,"x_max":525,"o":"m 415 960 q 450 991 435 979 q 483 1003 465 1003 q 513 992 501 1003 q 525 963 525 981 q 515 934 525 947 q 465 897 504 921 l 243 767 l 224 767 l 415 960 m 188 576 l 64 576 l 69 596 l 290 596 l 126 125 q 113 83 119 104 q 106 42 106 61 q 115 13 106 25 q 144 1 125 1 q 188 17 167 1 q 228 52 210 32 q 258 93 246 72 q 276 126 271 114 l 293 119 q 276 85 288 108 q 243 40 264 63 q 192 0 222 17 q 119 -17 161 -17 q 47 2 74 -17 q 19 65 19 21 q 28 117 19 89 q 44 169 36 146 l 188 576 "},"":{"ha":386,"x_min":19,"x_max":346,"o":"m 140 913 q 110 958 110 935 q 122 990 110 978 q 157 1003 133 1003 q 188 992 176 1003 q 208 965 199 981 l 346 767 l 325 767 l 140 913 m 188 576 l 64 576 l 69 596 l 290 596 l 126 125 q 113 83 119 104 q 106 42 106 61 q 115 13 106 25 q 144 1 125 1 q 188 17 167 1 q 228 52 210 32 q 258 93 246 72 q 276 126 271 114 l 293 119 q 276 85 288 108 q 243 40 264 63 q 192 0 222 17 q 119 -17 161 -17 q 47 2 74 -17 q 19 65 19 21 q 28 117 19 89 q 44 169 36 146 l 188 576 "},"":{"ha":386,"x_min":19,"x_max":478,"o":"m 304 1000 l 356 1000 l 478 767 l 458 767 l 318 914 l 103 767 l 81 767 l 304 1000 m 188 576 l 64 576 l 69 596 l 290 596 l 126 125 q 113 83 119 104 q 106 42 106 61 q 115 13 106 25 q 144 1 125 1 q 188 17 167 1 q 228 52 210 32 q 258 93 246 72 q 276 126 271 114 l 293 119 q 276 85 288 108 q 243 40 264 63 q 192 0 222 17 q 119 -17 161 -17 q 47 2 74 -17 q 19 65 19 21 q 28 117 19 89 q 44 169 36 146 l 188 576 "},"":{"ha":386,"x_min":19,"x_max":506,"o":"m 375 924 q 394 970 375 951 q 440 989 413 989 q 487 970 468 989 q 506 924 506 951 q 487 877 506 896 q 440 858 468 858 q 394 877 413 858 q 375 924 375 896 m 119 924 q 138 970 119 951 q 185 989 157 989 q 231 970 213 989 q 250 924 250 951 q 231 877 250 896 q 185 858 213 858 q 138 877 157 858 q 119 924 119 896 m 188 576 l 64 576 l 69 596 l 290 596 l 126 125 q 113 83 119 104 q 106 42 106 61 q 115 13 106 25 q 144 1 125 1 q 188 17 167 1 q 228 52 210 32 q 258 93 246 72 q 276 126 271 114 l 293 119 q 276 85 288 108 q 243 40 264 63 q 192 0 222 17 q 119 -17 161 -17 q 47 2 74 -17 q 19 65 19 21 q 28 117 19 89 q 44 169 36 146 l 188 576 "},"":{"ha":746,"x_min":-4,"x_max":708,"o":"m 274 800 q 324 900 283 863 q 413 938 364 938 q 455 929 438 938 q 488 914 472 921 l 542 885 q 574 874 561 878 q 601 869 586 869 q 633 877 618 869 q 659 896 647 885 q 678 919 671 907 q 690 942 686 932 l 708 942 q 697 904 706 928 q 672 858 689 881 q 631 817 656 835 q 572 800 607 800 q 529 805 549 800 q 486 822 510 810 l 450 842 q 415 860 431 853 q 381 868 400 868 q 347 860 363 868 q 321 842 332 853 q 303 820 310 832 q 293 800 296 808 l 274 800 m 196 576 l 69 576 l 75 596 l 294 596 l 238 425 l 240 425 q 494 604 375 604 q 587 573 553 604 q 621 496 621 542 q 613 449 621 472 q 594 394 606 426 l 504 138 q 489 91 496 114 q 482 46 482 68 q 489 15 482 29 q 518 1 496 1 q 564 15 543 1 q 602 49 585 29 q 632 90 619 68 q 651 126 644 111 l 667 119 q 647 83 660 106 q 615 38 635 60 q 565 -1 594 15 q 496 -17 536 -17 q 421 3 451 -17 q 390 67 390 22 q 395 104 390 85 q 407 146 400 124 l 524 478 q 535 533 535 511 q 523 568 535 551 q 481 585 511 585 q 410 562 450 585 q 329 499 369 539 q 253 406 289 460 q 196 290 218 353 l 92 0 l -4 0 l 196 576 "},"":{"ha":668,"x_min":0,"x_max":667,"o":"m 557 960 q 592 991 576 979 q 625 1003 607 1003 q 655 992 643 1003 q 667 963 667 981 q 656 934 667 947 q 607 897 646 921 l 385 767 l 365 767 l 557 960 m 92 140 q 126 35 92 69 q 213 1 160 1 q 293 26 256 1 q 361 92 331 51 q 415 183 392 133 q 455 283 439 233 q 479 378 471 333 q 488 450 488 422 q 459 556 488 517 q 360 594 431 594 q 283 571 319 594 q 217 509 247 547 q 164 422 188 471 q 124 323 140 374 q 100 224 108 272 q 92 140 92 176 m 0 218 q 35 374 0 301 q 123 500 69 447 q 242 583 176 553 q 367 614 307 614 q 461 592 421 614 q 528 535 501 569 q 567 458 554 500 q 579 378 579 417 q 544 226 579 297 q 457 100 510 154 q 340 15 404 46 q 217 -17 275 -17 q 127 3 167 -17 q 59 54 88 22 q 15 128 31 86 q 0 218 0 171 "},"":{"ha":668,"x_min":0,"x_max":579,"o":"m 282 913 q 251 958 251 935 q 263 990 251 978 q 299 1003 275 1003 q 329 992 318 1003 q 350 965 340 981 l 488 767 l 467 767 l 282 913 m 92 140 q 126 35 92 69 q 213 1 160 1 q 293 26 256 1 q 361 92 331 51 q 415 183 392 133 q 455 283 439 233 q 479 378 471 333 q 488 450 488 422 q 459 556 488 517 q 360 594 431 594 q 283 571 319 594 q 217 509 247 547 q 164 422 188 471 q 124 323 140 374 q 100 224 108 272 q 92 140 92 176 m 0 218 q 35 374 0 301 q 123 500 69 447 q 242 583 176 553 q 367 614 307 614 q 461 592 421 614 q 528 535 501 569 q 567 458 554 500 q 579 378 579 417 q 544 226 579 297 q 457 100 510 154 q 340 15 404 46 q 217 -17 275 -17 q 127 3 167 -17 q 59 54 88 22 q 15 128 31 86 q 0 218 0 171 "},"":{"ha":668,"x_min":0,"x_max":619,"o":"m 446 1000 l 497 1000 l 619 767 l 600 767 l 460 914 l 244 767 l 222 767 l 446 1000 m 92 140 q 126 35 92 69 q 213 1 160 1 q 293 26 256 1 q 361 92 331 51 q 415 183 392 133 q 455 283 439 233 q 479 378 471 333 q 488 450 488 422 q 459 556 488 517 q 360 594 431 594 q 283 571 319 594 q 217 509 247 547 q 164 422 188 471 q 124 323 140 374 q 100 224 108 272 q 92 140 92 176 m 0 218 q 35 374 0 301 q 123 500 69 447 q 242 583 176 553 q 367 614 307 614 q 461 592 421 614 q 528 535 501 569 q 567 458 554 500 q 579 378 579 417 q 544 226 579 297 q 457 100 510 154 q 340 15 404 46 q 217 -17 275 -17 q 127 3 167 -17 q 59 54 88 22 q 15 128 31 86 q 0 218 0 171 "},"":{"ha":668,"x_min":0,"x_max":647,"o":"m 517 924 q 535 970 517 951 q 582 989 554 989 q 628 970 610 989 q 647 924 647 951 q 628 877 647 896 q 582 858 610 858 q 535 877 554 858 q 517 924 517 896 m 261 924 q 280 970 261 951 q 326 989 299 989 q 373 970 354 989 q 392 924 392 951 q 373 877 392 896 q 326 858 354 858 q 280 877 299 858 q 261 924 261 896 m 92 140 q 126 35 92 69 q 213 1 160 1 q 293 26 256 1 q 361 92 331 51 q 415 183 392 133 q 455 283 439 233 q 479 378 471 333 q 488 450 488 422 q 459 556 488 517 q 360 594 431 594 q 283 571 319 594 q 217 509 247 547 q 164 422 188 471 q 124 323 140 374 q 100 224 108 272 q 92 140 92 176 m 0 218 q 35 374 0 301 q 123 500 69 447 q 242 583 176 553 q 367 614 307 614 q 461 592 421 614 q 528 535 501 569 q 567 458 554 500 q 579 378 579 417 q 544 226 579 297 q 457 100 510 154 q 340 15 404 46 q 217 -17 275 -17 q 127 3 167 -17 q 59 54 88 22 q 15 128 31 86 q 0 218 0 171 "},"":{"ha":668,"x_min":0,"x_max":669,"o":"m 235 800 q 285 900 244 863 q 374 938 325 938 q 416 929 399 938 q 449 914 433 921 l 503 885 q 535 874 522 878 q 563 869 547 869 q 594 877 579 869 q 620 896 608 885 q 640 919 632 907 q 651 942 647 932 l 669 942 q 658 904 667 928 q 633 858 650 881 q 592 817 617 835 q 533 800 568 800 q 490 805 510 800 q 447 822 471 810 l 411 842 q 376 860 392 853 q 342 868 361 868 q 308 860 324 868 q 282 842 293 853 q 264 820 271 832 q 254 800 257 808 l 235 800 m 92 140 q 126 35 92 69 q 213 1 160 1 q 293 26 256 1 q 361 92 331 51 q 415 183 392 133 q 455 283 439 233 q 479 378 471 333 q 488 450 488 422 q 459 556 488 517 q 360 594 431 594 q 283 571 319 594 q 217 509 247 547 q 164 422 188 471 q 124 323 140 374 q 100 224 108 272 q 92 140 92 176 m 0 218 q 35 374 0 301 q 123 500 69 447 q 242 583 176 553 q 367 614 307 614 q 461 592 421 614 q 528 535 501 569 q 567 458 554 500 q 579 378 579 417 q 544 226 579 297 q 457 100 510 154 q 340 15 404 46 q 217 -17 275 -17 q 127 3 167 -17 q 59 54 88 22 q 15 128 31 86 q 0 218 0 171 "},"":{"ha":721,"x_min":19,"x_max":693,"o":"m 583 960 q 618 991 603 979 q 651 1003 633 1003 q 681 992 669 1003 q 693 963 693 981 q 683 934 693 947 q 633 897 672 921 l 411 767 l 392 767 l 583 960 m 64 596 l 288 596 l 128 138 q 111 85 117 108 q 106 51 106 63 q 116 17 106 32 q 151 1 126 1 q 233 30 189 1 q 318 103 276 58 q 394 202 360 147 q 449 311 429 257 l 547 596 l 644 596 l 481 125 q 467 83 474 104 q 460 42 460 61 q 469 13 460 25 q 499 1 479 1 q 544 17 522 1 q 583 52 565 32 q 613 93 600 72 q 631 126 625 114 l 647 119 q 630 85 642 108 q 597 40 618 63 q 546 0 576 17 q 474 -17 515 -17 q 401 2 428 -17 q 374 65 374 21 q 379 110 374 89 q 396 160 385 132 l 393 163 q 347 106 374 138 q 288 48 319 75 q 222 2 257 21 q 149 -17 186 -17 q 54 11 89 -17 q 19 92 19 39 q 29 141 19 113 q 46 192 39 169 l 182 576 l 58 576 l 64 596 "},"":{"ha":721,"x_min":19,"x_max":647,"o":"m 308 913 q 278 958 278 935 q 290 990 278 978 q 325 1003 301 1003 q 356 992 344 1003 q 376 965 367 981 l 514 767 l 493 767 l 308 913 m 64 596 l 288 596 l 128 138 q 111 85 117 108 q 106 51 106 63 q 116 17 106 32 q 151 1 126 1 q 233 30 189 1 q 318 103 276 58 q 394 202 360 147 q 449 311 429 257 l 547 596 l 644 596 l 481 125 q 467 83 474 104 q 460 42 460 61 q 469 13 460 25 q 499 1 479 1 q 544 17 522 1 q 583 52 565 32 q 613 93 600 72 q 631 126 625 114 l 647 119 q 630 85 642 108 q 597 40 618 63 q 546 0 576 17 q 474 -17 515 -17 q 401 2 428 -17 q 374 65 374 21 q 379 110 374 89 q 396 160 385 132 l 393 163 q 347 106 374 138 q 288 48 319 75 q 222 2 257 21 q 149 -17 186 -17 q 54 11 89 -17 q 19 92 19 39 q 29 141 19 113 q 46 192 39 169 l 182 576 l 58 576 l 64 596 "},"":{"ha":721,"x_min":19,"x_max":647,"o":"m 472 1000 l 524 1000 l 646 767 l 626 767 l 486 914 l 271 767 l 249 767 l 472 1000 m 64 596 l 288 596 l 128 138 q 111 85 117 108 q 106 51 106 63 q 116 17 106 32 q 151 1 126 1 q 233 30 189 1 q 318 103 276 58 q 394 202 360 147 q 449 311 429 257 l 547 596 l 644 596 l 481 125 q 467 83 474 104 q 460 42 460 61 q 469 13 460 25 q 499 1 479 1 q 544 17 522 1 q 583 52 565 32 q 613 93 600 72 q 631 126 625 114 l 647 119 q 630 85 642 108 q 597 40 618 63 q 546 0 576 17 q 474 -17 515 -17 q 401 2 428 -17 q 374 65 374 21 q 379 110 374 89 q 396 160 385 132 l 393 163 q 347 106 374 138 q 288 48 319 75 q 222 2 257 21 q 149 -17 186 -17 q 54 11 89 -17 q 19 92 19 39 q 29 141 19 113 q 46 192 39 169 l 182 576 l 58 576 l 64 596 "},"":{"ha":721,"x_min":19,"x_max":674,"o":"m 543 924 q 562 970 543 951 q 608 989 581 989 q 655 970 636 989 q 674 924 674 951 q 655 877 674 896 q 608 858 636 858 q 562 877 581 858 q 543 924 543 896 m 288 924 q 306 970 288 951 q 353 989 325 989 q 399 970 381 989 q 418 924 418 951 q 399 877 418 896 q 353 858 381 858 q 306 877 325 858 q 288 924 288 896 m 64 596 l 288 596 l 128 138 q 111 85 117 108 q 106 51 106 63 q 116 17 106 32 q 151 1 126 1 q 233 30 189 1 q 318 103 276 58 q 394 202 360 147 q 449 311 429 257 l 547 596 l 644 596 l 481 125 q 467 83 474 104 q 460 42 460 61 q 469 13 460 25 q 499 1 479 1 q 544 17 522 1 q 583 52 565 32 q 613 93 600 72 q 631 126 625 114 l 647 119 q 630 85 642 108 q 597 40 618 63 q 546 0 576 17 q 474 -17 515 -17 q 401 2 428 -17 q 374 65 374 21 q 379 110 374 89 q 396 160 385 132 l 393 163 q 347 106 374 138 q 288 48 319 75 q 222 2 257 21 q 149 -17 186 -17 q 54 11 89 -17 q 19 92 19 39 q 29 141 19 113 q 46 192 39 169 l 182 576 l 58 576 l 64 596 "},"":{"ha":721,"x_min":100,"x_max":733,"o":"m 233 10 q 258 119 249 68 q 267 203 267 171 q 255 259 267 240 q 225 296 243 278 q 301 362 269 315 q 349 463 332 408 l 382 568 l 397 624 l 354 624 q 274 616 303 624 q 226 600 246 608 q 194 583 208 590 q 158 575 181 575 q 115 593 131 575 q 100 635 100 611 q 115 678 100 660 q 160 697 131 697 q 197 689 185 697 q 226 671 208 681 q 278 651 246 660 q 375 643 310 643 l 403 643 l 418 699 q 438 790 433 751 q 440 858 442 829 q 435 910 439 889 q 432 947 432 931 q 451 994 432 981 q 496 1007 471 1007 q 535 996 515 1007 q 554 960 554 985 q 544 918 554 933 q 518 879 535 903 q 482 815 503 856 q 438 696 461 774 l 422 643 l 461 643 q 554 651 521 643 q 607 671 588 660 q 640 689 626 681 q 675 697 654 697 q 718 681 703 697 q 733 638 733 664 q 718 593 733 611 q 675 575 703 575 q 640 583 653 575 q 608 600 628 590 q 558 616 589 608 q 467 624 526 624 l 417 624 l 403 569 q 383 478 392 525 q 374 389 374 431 q 385 330 374 349 q 415 296 397 311 q 384 276 401 288 q 347 240 367 264 q 308 177 328 217 q 272 75 289 138 l 144 -387 l 125 -387 l 233 10 "},"":{"ha":556,"x_min":199,"x_max":574,"o":"m 226 819 q 239 757 226 786 q 273 706 251 728 q 324 672 294 685 q 386 660 353 660 q 449 672 419 660 q 499 706 478 685 q 533 757 521 728 q 546 819 546 786 q 533 882 546 853 q 499 933 521 911 q 449 967 478 954 q 386 979 419 979 q 324 967 353 979 q 273 933 294 954 q 239 882 251 911 q 226 819 226 853 m 199 819 q 213 892 199 858 q 253 952 228 926 q 313 992 279 978 q 386 1007 347 1007 q 459 992 425 1007 q 519 952 493 978 q 559 892 544 926 q 574 819 574 858 q 559 747 574 781 q 519 687 544 713 q 459 647 493 661 q 386 632 425 632 q 313 647 347 632 q 253 687 279 661 q 213 747 228 713 q 199 819 199 781 "},"":{"ha":669,"x_min":51,"x_max":578,"o":"m 153 11 q 78 85 104 38 q 51 192 51 133 q 81 337 51 263 q 160 473 110 411 q 280 574 211 535 q 429 614 349 614 l 450 614 q 468 611 460 614 l 524 717 l 543 708 l 492 608 q 553 575 528 599 q 578 503 578 551 q 555 443 578 457 q 507 429 532 429 q 472 438 482 429 q 463 461 463 447 q 468 478 463 468 q 481 499 474 488 q 494 525 489 511 q 500 553 500 539 q 479 583 500 578 l 190 36 q 288 1 226 1 q 359 16 326 1 q 418 53 392 31 q 464 101 444 75 q 496 147 483 126 l 515 136 q 476 83 499 110 q 423 33 453 56 q 354 -3 393 11 q 267 -17 315 -17 q 172 1 214 -17 l 115 -106 l 96 -97 l 153 11 m 457 589 q 413 594 444 594 q 332 572 368 594 q 267 513 296 550 q 215 429 238 476 q 178 332 193 382 q 156 233 164 282 q 149 144 149 185 q 156 92 149 113 q 175 53 163 71 l 457 589 "},"":{"ha":824,"x_min":22,"x_max":774,"o":"m 42 74 q 67 27 42 42 q 124 13 93 13 q 163 21 144 13 q 197 41 182 29 q 222 66 211 53 q 238 89 232 79 q 190 117 219 103 q 125 131 161 131 q 42 74 42 131 m 692 161 q 666 116 683 146 q 622 56 649 86 q 558 4 594 26 q 476 -18 522 -18 q 431 -14 451 -18 q 390 -1 410 -10 q 347 20 369 7 q 293 53 324 33 l 254 78 q 239 56 249 69 q 213 28 229 42 q 174 4 196 14 q 121 -6 151 -6 q 49 17 75 -6 q 22 72 22 39 q 54 131 22 113 q 128 150 86 150 q 194 143 164 150 q 260 125 224 136 q 278 167 267 140 q 289 231 289 194 q 278 372 289 301 q 260 510 267 443 l 125 510 l 131 529 l 257 529 q 251 588 254 553 q 247 660 247 622 q 275 786 247 724 q 349 897 303 849 q 458 976 396 946 q 588 1007 519 1007 q 663 996 629 1007 q 722 966 697 985 q 760 921 746 947 q 774 863 774 894 q 770 829 774 846 q 758 799 767 813 q 735 776 750 785 q 700 768 721 768 q 653 803 653 768 q 660 835 653 822 q 674 861 667 849 q 689 887 682 874 q 696 919 696 900 q 686 951 696 939 q 661 972 676 964 q 626 984 646 981 q 588 988 607 988 q 487 964 528 988 q 419 891 446 940 q 378 767 393 842 q 356 592 364 693 l 350 529 l 561 529 l 556 510 l 349 510 l 332 324 q 312 198 325 244 q 279 121 299 151 q 378 101 319 110 q 508 92 438 92 q 588 101 557 92 q 636 124 618 111 q 663 149 654 136 q 675 169 671 163 l 692 161 "},"":{"ha":721,"x_min":-99,"x_max":722,"o":"m 228 538 q 139 457 174 497 q 104 363 104 417 q 126 285 104 318 q 179 229 149 253 l 294 138 q 369 74 347 96 q 413 101 385 82 q 470 149 442 121 q 519 215 499 178 q 540 297 540 253 q 517 373 540 342 q 456 435 493 404 l 361 510 q 314 549 335 531 q 282 578 293 567 l 228 538 m 500 526 q 583 440 561 479 q 604 354 604 400 q 575 242 604 293 q 508 154 546 192 q 433 92 469 117 q 385 61 397 68 q 429 6 406 43 q 453 -85 453 -32 q 428 -199 453 -142 q 358 -301 403 -256 q 251 -374 313 -346 q 114 -403 189 -403 q 23 -390 63 -403 q -44 -354 -17 -376 q -85 -303 -71 -332 q -99 -244 -99 -275 q -78 -181 -99 -204 q -26 -158 -58 -158 q 11 -171 -3 -158 q 25 -204 25 -183 q 15 -246 25 -228 q 6 -294 6 -264 q 42 -360 6 -337 q 124 -383 78 -383 q 213 -364 169 -383 q 291 -310 257 -344 q 346 -231 325 -276 q 367 -132 367 -185 q 339 -37 367 -75 q 260 39 311 0 l 167 110 q 79 204 104 158 q 54 303 54 250 q 92 438 54 383 q 201 543 129 492 l 269 592 q 238 642 254 610 q 221 719 221 675 q 248 833 221 781 q 320 924 275 885 q 422 985 365 963 q 539 1007 479 1007 q 615 994 581 1007 q 673 962 649 982 q 710 915 697 942 q 722 861 722 889 q 701 788 722 808 q 653 768 681 768 q 615 781 629 768 q 601 814 601 794 q 607 840 601 829 q 619 862 613 851 q 631 885 625 872 q 636 915 636 897 q 626 949 636 935 q 601 971 617 963 q 568 983 586 979 q 532 988 550 988 q 450 972 492 988 q 375 927 408 956 q 320 860 342 899 q 299 776 299 821 q 331 674 299 718 q 407 599 364 631 l 500 526 "},"":{"ha":694,"x_min":100,"x_max":594,"o":"m 100 494 q 119 591 100 546 q 172 669 139 636 q 251 722 206 703 q 347 742 296 742 q 444 722 399 742 q 522 669 489 703 q 575 591 556 636 q 594 494 594 546 q 575 398 594 443 q 522 319 556 353 q 444 267 489 286 q 347 247 399 247 q 251 267 296 247 q 172 319 206 286 q 119 398 139 353 q 100 494 100 443 "},"":{"ha":797,"x_min":-128,"x_max":944,"o":"m 732 969 l 604 969 l 331 204 q 260 23 293 101 q 192 -110 228 -56 q 113 -195 156 -164 q 11 -235 69 -226 q 194 -186 118 -233 q 321 -72 269 -139 q 404 69 372 -6 q 457 204 436 144 l 732 969 m 944 989 l 938 969 l 829 969 l 556 204 q 515 101 536 151 q 464 6 493 51 q 396 -83 435 -40 q 300 -162 357 -125 q 158 -231 233 -207 q 18 -254 82 -254 q -52 -242 -24 -254 q -97 -210 -81 -229 q -121 -172 -114 -192 q -128 -135 -128 -151 q -105 -81 -128 -103 q -39 -58 -82 -58 q 2 -67 -17 -58 q 21 -100 21 -76 q 16 -124 21 -114 q 0 -150 11 -133 q -13 -174 -10 -167 q -17 -190 -17 -182 q -10 -207 -15 -197 q 14 -217 -4 -217 q 80 -194 36 -217 q 165 -114 124 -171 q 204 -50 185 -87 q 242 31 224 -12 q 276 118 260 74 q 308 204 293 163 l 371 376 q 294 389 335 381 q 210 429 254 397 q 122 537 149 471 q 94 665 94 603 q 103 740 94 699 q 138 821 113 781 q 207 897 163 861 q 322 956 251 932 q 387 972 351 965 q 460 982 422 978 q 532 988 497 986 q 593 989 567 989 l 944 989 "},"":{"ha":772,"x_min":-364,"x_max":767,"o":"m 214 664 q 289 847 246 772 q 383 967 332 921 q 491 1035 433 1014 q 610 1056 549 1056 q 669 1047 640 1056 q 719 1017 697 1038 q 753 967 740 997 q 767 896 767 938 q 742 781 767 836 q 651 685 717 725 l 586 644 q 527 594 544 618 q 510 542 510 569 q 519 492 510 518 q 543 436 528 465 l 615 290 q 642 229 632 256 q 651 175 651 203 q 630 95 651 131 q 574 35 608 60 q 498 -3 540 10 q 415 -17 456 -17 q 340 -5 372 -17 q 285 24 307 7 q 253 62 264 42 q 243 97 243 82 q 267 142 243 128 q 314 157 290 157 q 344 149 329 157 q 358 125 358 142 q 355 108 358 114 q 347 95 351 101 q 338 81 342 89 q 335 61 335 74 q 424 1 335 1 q 524 36 482 1 q 565 128 565 71 q 552 194 565 164 q 515 271 539 225 l 464 374 q 431 444 443 414 q 418 503 418 475 q 446 579 418 544 q 542 650 474 614 l 615 689 q 719 784 690 729 q 747 897 747 839 q 710 998 747 960 q 610 1036 672 1036 q 533 1016 572 1036 q 456 956 493 996 q 386 858 418 917 q 331 724 354 800 l 122 39 q 49 -124 94 -51 q -49 -247 3 -196 q -153 -326 -100 -299 q -249 -354 -206 -354 q -331 -328 -297 -354 q -364 -261 -364 -301 q -347 -212 -364 -225 q -306 -200 -329 -200 q -258 -233 -258 -200 q -265 -265 -258 -251 q -272 -297 -272 -278 q -233 -335 -272 -335 q -166 -310 -201 -335 q -97 -241 -131 -286 q -32 -132 -62 -196 q 21 10 -1 -68 l 214 664 "},"":{"ha":681,"x_min":132,"x_max":649,"o":"m 146 749 q 165 654 146 699 q 218 576 185 610 q 296 524 251 543 q 390 504 340 504 q 485 524 440 504 q 563 576 529 543 q 615 654 596 610 q 635 749 635 699 q 615 843 635 799 q 563 921 596 888 q 485 974 529 954 q 390 993 440 993 q 296 974 340 993 q 218 921 251 954 q 165 843 185 888 q 146 749 146 799 m 356 764 l 390 764 q 424 776 411 764 q 438 824 438 788 q 419 873 438 863 q 381 883 401 883 l 367 883 q 356 882 358 883 l 356 764 m 318 882 l 275 882 l 275 888 l 347 888 q 366 888 357 888 q 385 889 375 889 q 424 886 407 889 q 456 872 440 883 q 475 848 469 861 q 481 824 481 835 q 478 809 481 818 q 469 791 476 800 q 449 774 463 782 q 414 764 436 767 l 414 763 q 431 759 421 761 q 451 752 440 757 q 472 739 463 747 q 485 718 481 731 q 490 681 489 703 q 493 644 490 658 q 500 626 496 635 q 515 618 504 618 q 536 626 528 618 l 539 622 q 528 616 535 619 q 506 613 521 613 q 465 628 475 613 q 451 671 454 643 l 449 707 q 441 735 447 725 q 426 751 435 746 q 410 757 418 756 q 394 758 401 758 l 356 758 l 356 621 l 399 621 l 399 615 l 275 615 l 275 621 l 318 621 l 318 882 m 132 749 q 152 849 132 801 q 208 931 172 896 q 290 987 243 967 q 390 1007 336 1007 q 490 987 443 1007 q 573 931 538 967 q 628 849 608 896 q 649 749 649 801 q 628 648 649 694 q 573 566 608 601 q 490 510 538 531 q 390 490 443 490 q 290 510 336 490 q 208 566 243 531 q 152 648 172 601 q 132 749 132 694 "},"":{"ha":1157,"x_min":65,"x_max":1092,"o":"m 793 206 l 781 206 q 767 218 775 213 q 744 224 760 224 q 717 219 732 224 q 684 208 703 214 q 642 198 665 203 q 590 193 619 193 q 488 213 538 193 q 394 275 439 232 q 326 371 354 315 q 299 501 299 426 q 321 621 299 564 q 383 720 343 678 q 477 788 422 763 q 596 814 532 814 q 642 809 622 814 q 677 798 661 804 q 706 787 693 792 q 732 782 719 782 q 756 787 749 782 q 769 799 763 792 l 782 799 l 782 632 l 772 632 q 753 694 765 664 q 721 749 742 725 q 668 787 700 772 q 588 801 636 801 q 483 772 521 801 q 425 698 444 743 q 400 600 406 653 q 394 501 394 547 q 408 356 394 414 q 448 265 422 299 q 509 219 474 232 q 588 206 544 206 q 678 222 644 206 q 733 263 713 238 q 765 319 754 288 q 783 383 775 351 l 793 383 l 793 206 m 93 494 q 131 306 93 394 q 234 151 168 218 q 388 47 300 85 q 578 8 476 8 q 767 47 679 8 q 922 151 856 85 q 1026 306 988 217 q 1064 494 1064 394 q 1026 683 1064 594 q 922 838 988 772 q 767 941 856 903 q 578 979 678 979 q 388 941 476 979 q 234 837 300 903 q 131 683 168 771 q 93 494 93 594 m 65 494 q 106 693 65 600 q 215 856 146 786 q 378 967 285 926 q 578 1007 472 1007 q 778 967 685 1007 q 941 856 871 926 q 1051 693 1011 786 q 1092 494 1092 600 q 1051 295 1092 389 q 942 132 1011 201 q 778 22 872 63 q 578 -18 685 -18 q 378 22 472 -18 q 215 132 285 63 q 106 295 146 201 q 65 494 65 389 "},"":{"ha":1363,"x_min":200,"x_max":1318,"o":"m 785 463 l 785 974 l 706 974 l 706 989 l 875 989 l 1014 588 l 1153 989 l 1318 989 l 1318 974 l 1239 974 l 1239 463 l 1318 463 l 1318 447 l 1081 447 l 1081 463 l 1158 463 l 1158 956 l 979 440 l 801 951 l 801 463 l 881 463 l 881 447 l 706 447 l 706 463 l 785 463 m 314 447 l 314 463 l 392 463 l 392 974 l 350 974 q 319 972 338 974 q 281 957 300 969 q 243 919 261 944 q 213 846 225 893 l 200 846 l 200 989 l 664 989 l 664 846 l 651 846 q 621 919 639 893 q 584 957 603 944 q 547 972 565 969 q 514 974 528 974 l 472 974 l 472 463 l 551 463 l 551 447 l 314 447 "},"":{"ha":386,"x_min":224,"x_max":525,"o":"m 415 960 q 450 991 435 979 q 483 1003 465 1003 q 513 992 501 1003 q 525 963 525 981 q 515 934 525 947 q 465 897 504 921 l 243 767 l 224 767 l 415 960 "},"":{"ha":386,"x_min":119,"x_max":506,"o":"m 375 924 q 394 970 375 951 q 440 989 413 989 q 487 970 468 989 q 506 924 506 951 q 487 877 506 896 q 440 858 468 858 q 394 877 413 858 q 375 924 375 896 m 119 924 q 138 970 119 951 q 185 989 157 989 q 231 970 213 989 q 250 924 250 951 q 231 877 250 896 q 185 858 213 858 q 138 877 157 858 q 119 924 119 896 "},"":{"ha":763,"x_min":17,"x_max":746,"o":"m 17 554 l 425 554 l 568 917 l 622 917 l 482 554 l 746 554 l 746 492 l 457 492 l 360 240 l 746 240 l 746 176 l 335 176 l 192 -181 l 138 -181 l 279 176 l 17 176 l 17 240 l 304 240 l 403 492 l 17 492 l 17 554 "},"":{"ha":1363,"x_min":-149,"x_max":1314,"o":"m 751 971 l 747 971 l 328 428 l 661 428 l 751 971 m 656 408 l 314 408 l 13 19 l 156 19 l 150 0 l -149 0 l -143 19 l -14 19 l 719 969 l 575 969 l 581 989 l 1314 989 l 1233 763 l 1214 763 q 1222 803 1217 778 q 1226 861 1226 829 q 1198 944 1226 919 q 1111 969 1169 969 l 872 969 l 799 540 l 900 540 q 970 558 940 540 q 1022 601 1000 576 q 1056 652 1043 626 q 1076 693 1069 678 l 1096 693 l 988 329 l 968 329 q 971 360 969 343 q 972 401 972 378 q 967 443 972 422 q 949 481 963 464 q 913 510 935 499 q 854 521 890 521 l 796 521 l 713 19 l 896 19 q 1010 51 960 19 q 1097 125 1060 83 q 1158 209 1133 167 q 1194 272 1182 251 l 1214 272 l 1117 0 l 436 0 l 442 19 l 592 19 l 656 408 "},"":{"ha":1081,"x_min":83,"x_max":1001,"o":"m 246 21 q 126 155 169 65 q 83 379 83 244 q 108 536 83 458 q 176 684 133 614 q 276 813 218 754 q 401 915 335 872 q 538 983 467 958 q 678 1007 608 1007 q 803 983 749 1007 l 860 1082 l 879 1071 l 824 974 q 906 908 872 949 q 961 817 940 867 q 992 712 982 767 q 1001 604 1001 657 q 978 453 1001 529 q 915 309 956 378 q 817 181 874 240 q 693 76 760 121 q 552 7 626 32 q 400 -18 478 -18 q 265 10 325 -18 l 203 -96 l 183 -85 l 246 21 m 276 31 q 332 8 300 15 q 408 0 364 0 q 558 42 490 0 q 678 150 625 83 q 772 300 732 217 q 838 468 813 383 q 877 630 864 553 q 890 760 890 707 q 871 875 890 826 q 811 951 851 924 l 276 31 m 790 963 q 675 988 743 988 q 531 947 597 988 q 411 842 465 907 q 315 694 357 776 q 246 526 274 611 q 203 360 218 440 q 189 219 189 279 q 203 119 189 167 q 258 42 218 72 l 790 963 "},"":{"ha":990,"x_min":36,"x_max":954,"o":"m 443 453 q 543 599 489 560 q 694 640 600 640 q 879 561 803 640 q 954 357 954 485 q 881 153 954 235 q 717 72 808 72 q 592 122 650 72 q 489 267 554 154 q 393 145 444 182 q 268 108 342 108 q 104 178 171 108 q 36 358 36 246 q 99 539 36 471 q 244 607 161 607 q 347 576 304 607 q 443 453 390 547 m 508 315 q 558 226 533 261 q 608 172 582 192 q 661 144 633 151 q 719 136 689 136 q 797 152 761 136 q 859 197 833 168 q 900 266 885 225 q 915 357 915 307 q 856 522 915 458 q 724 588 797 588 q 642 564 676 588 q 579 488 607 540 q 508 315 560 453 m 424 400 q 347 510 390 475 q 242 546 304 546 q 176 533 207 546 q 122 495 144 519 q 87 436 100 471 q 74 360 74 401 q 121 215 74 267 q 229 161 169 161 q 343 219 293 161 q 424 400 375 257 "},"":{"ha":824,"x_min":18,"x_max":685,"o":"m 18 25 l 685 25 l 685 0 l 18 0 l 18 25 m 338 365 l 18 365 l 18 390 l 338 390 l 338 667 l 365 667 l 365 390 l 685 390 l 685 365 l 365 365 l 365 92 l 338 92 l 338 365 "},"":{"ha":763,"x_min":17,"x_max":746,"o":"m 744 167 l 17 476 l 17 532 l 744 840 l 744 771 l 100 504 l 744 236 l 744 167 m 17 -46 l 746 -46 l 746 -108 l 17 -108 l 17 -46 "},"":{"ha":763,"x_min":17,"x_max":746,"o":"m 17 840 l 744 531 l 744 475 l 17 167 l 17 236 l 661 503 l 17 771 l 17 840 m 17 -46 l 746 -46 l 746 -108 l 17 -108 l 17 -46 "},"":{"ha":669,"x_min":-7,"x_max":839,"o":"m 265 399 l -7 399 l -3 418 l 271 418 l 286 471 l 265 592 l 44 592 l 49 611 l 261 611 l 190 969 l 63 969 l 68 989 l 439 989 l 433 969 l 301 969 l 385 490 l 715 969 l 606 969 l 611 989 l 839 989 l 833 969 l 743 969 l 494 611 l 708 611 l 701 592 l 481 592 l 397 471 l 382 418 l 656 418 l 650 399 l 376 399 l 275 19 l 410 19 l 404 0 l 31 0 l 35 19 l 164 19 l 265 399 "},"":{"ha":721,"x_min":-150,"x_max":647,"o":"m 64 596 l 288 596 l 128 138 q 111 85 117 108 q 106 51 106 63 q 116 17 106 32 q 151 1 126 1 q 233 30 189 1 q 318 103 276 58 q 394 202 360 147 q 449 311 429 257 l 547 596 l 644 596 l 481 125 q 467 83 474 104 q 460 42 460 61 q 469 13 460 25 q 499 1 479 1 q 544 17 522 1 q 583 52 565 32 q 613 93 600 72 q 631 126 625 114 l 647 119 q 630 85 642 108 q 597 40 618 63 q 546 0 576 17 q 474 -17 515 -17 q 401 2 428 -17 q 374 65 374 21 q 379 110 374 89 q 396 160 385 132 l 393 163 q 347 106 374 138 q 288 48 319 75 q 222 2 257 21 q 149 -17 186 -17 q 82 26 96 -17 l -60 -387 l -150 -387 l 182 576 l 58 576 l 64 596 "},"":{"ha":686,"x_min":43,"x_max":676,"o":"m 631 486 q 635 556 633 525 q 638 613 638 588 q 574 801 638 735 q 404 868 510 868 q 284 841 332 868 q 200 760 236 814 l 168 760 q 281 916 221 868 q 426 964 342 964 q 517 944 472 963 q 598 887 563 926 q 655 783 633 847 q 675 624 676 718 q 571 193 675 383 q 274 -19 453 -19 q 106 41 168 -19 q 43 206 43 101 q 62 324 43 267 q 110 431 81 382 q 180 517 140 479 q 261 575 219 554 q 418 615 339 615 q 519 594 474 615 q 593 543 564 574 q 631 486 613 524 m 618 426 q 540 540 592 501 q 424 579 488 579 q 303 536 363 579 q 201 389 244 494 q 158 178 158 286 q 195 60 158 101 q 290 18 232 18 q 461 106 374 18 q 618 426 571 217 "},"":{"ha":990,"x_min":29,"x_max":963,"o":"m 919 -297 l 29 -297 l 29 -272 l 483 336 l 29 938 l 29 963 l 896 963 l 914 735 l 888 735 q 835 868 876 828 q 718 908 793 908 l 217 908 l 597 394 l 171 -178 l 725 -178 q 829 -160 776 -178 q 894 -115 868 -147 q 936 -11 919 -82 l 963 -17 l 919 -297 "},"":{"ha":1143,"x_min":31,"x_max":1113,"o":"m 840 910 l 301 910 l 301 -167 q 326 -249 301 -225 q 411 -272 351 -272 l 436 -272 l 436 -297 l 31 -297 l 31 -272 l 56 -272 q 140 -249 115 -272 q 165 -167 165 -225 l 165 833 q 140 913 165 889 q 56 938 115 938 l 31 938 l 31 963 l 1113 963 l 1113 938 l 1089 938 q 1004 913 1029 938 q 979 833 979 889 l 979 -167 q 1004 -249 979 -225 q 1089 -272 1029 -272 l 1113 -272 l 1113 -297 l 707 -297 l 707 -272 l 731 -272 q 815 -249 790 -272 q 840 -167 840 -225 l 840 910 "},"":{"ha":701,"x_min":8,"x_max":675,"o":"m 674 621 l 674 522 l 517 522 l 503 317 q 499 224 499 263 q 521 108 499 129 q 574 88 544 88 q 651 169 639 88 l 675 169 q 525 -17 651 -17 q 429 19 465 -17 q 393 126 393 54 q 397 200 393 150 q 407 326 400 250 l 425 522 l 282 522 q 266 308 275 396 q 247 161 257 219 q 203 14 228 47 q 138 -17 181 -17 q 85 1 107 -17 q 64 47 64 18 q 100 125 64 76 q 147 198 126 161 q 181 275 167 235 q 204 376 194 314 q 221 522 214 438 l 174 522 q 89 497 118 522 q 33 426 60 472 l 8 426 q 60 546 29 499 q 124 607 92 593 q 240 621 153 621 l 674 621 "},"":{"ha":381,"x_min":0,"x_max":379,"o":"m 147 1001 q 159 1097 150 1054 q 182 1174 168 1140 q 232 1242 200 1219 q 294 1264 264 1264 q 354 1241 329 1264 q 379 1190 379 1218 q 362 1140 379 1158 q 318 1121 344 1121 q 265 1144 293 1121 q 239 1158 251 1158 q 219 1149 228 1158 q 211 1115 211 1139 q 213 1077 211 1101 q 218 1017 215 1053 q 243 567 243 738 q 240 444 243 543 q 232 167 238 346 q 171 -101 225 -32 q 81 -147 136 -147 q 22 -124 44 -147 q 0 -65 0 -101 q 17 -17 0 -35 q 61 0 35 0 q 107 -19 88 0 q 142 -42 128 -42 q 168 0 168 -42 q 166 33 168 13 q 161 79 164 53 q 144 308 151 178 q 136 607 136 478 l 147 1001 "},"":{"ha":447,"x_min":32,"x_max":461,"o":"m 368 903 q 360 943 368 924 q 319 963 351 963 q 234 930 275 963 q 163 851 193 897 q 114 756 132 806 q 96 671 96 706 q 107 631 96 643 q 146 618 118 618 q 194 632 169 618 q 242 665 219 646 q 281 708 264 685 q 307 749 299 731 l 368 903 m 363 715 q 347 668 351 685 q 342 643 342 651 q 365 618 342 618 q 399 627 385 618 q 423 648 413 636 q 440 672 433 660 q 449 688 446 683 l 461 682 q 448 658 457 672 q 424 631 439 644 q 390 608 410 618 q 346 599 371 599 q 286 646 286 599 q 290 673 286 661 q 297 700 293 685 l 294 700 q 273 674 288 690 q 238 640 258 657 q 190 611 217 624 q 131 599 163 599 q 63 624 93 599 q 32 706 32 650 q 63 805 32 756 q 139 892 94 854 q 232 954 183 931 q 315 978 281 978 q 363 962 346 978 q 381 925 381 946 l 383 925 l 397 967 l 461 967 l 363 715 "},"":{"ha":401,"x_min":93,"x_max":478,"o":"m 157 694 q 178 631 157 649 q 235 614 200 614 q 311 646 278 614 q 367 721 344 678 q 402 809 390 764 q 414 879 414 854 q 394 939 414 915 q 331 963 375 963 q 259 933 292 963 q 204 863 226 904 q 169 775 182 821 q 157 694 157 729 m 93 740 q 115 834 93 790 q 173 910 138 878 q 251 960 208 942 q 336 978 294 978 q 400 965 374 978 q 444 931 426 951 q 469 885 461 910 q 478 836 478 860 q 456 745 478 789 q 398 669 433 701 q 320 618 363 638 q 238 599 278 599 q 177 610 204 599 q 131 642 150 622 q 103 687 113 661 q 93 740 93 713 "},"":{"ha":1067,"x_min":49,"x_max":1019,"o":"m 458 0 l 49 0 l 49 226 l 71 226 q 85 183 78 200 q 103 158 93 167 q 130 146 114 149 q 171 143 146 143 l 376 143 l 376 163 q 207 242 268 193 q 110 372 146 292 q 75 539 75 453 q 129 738 75 642 q 290 885 185 833 q 533 938 394 938 q 776 886 675 938 q 936 738 883 833 q 992 539 992 644 q 956 372 992 457 q 860 242 921 290 q 692 163 799 194 l 692 143 l 897 143 q 938 146 922 143 q 965 158 954 149 q 982 183 975 167 q 996 226 989 200 l 1019 226 l 1019 0 l 608 0 l 631 197 q 756 286 713 228 q 826 540 826 385 q 749 803 826 715 q 538 890 671 890 q 329 813 399 890 q 242 542 242 715 q 269 367 242 442 q 346 249 296 292 q 438 197 376 218 l 458 0 "},"":{"ha":1029,"x_min":1,"x_max":978,"o":"m 497 414 q 519 477 514 458 q 524 510 524 496 q 520 537 524 522 q 508 564 517 551 q 483 585 499 576 q 443 594 468 594 q 353 569 397 594 q 272 501 310 543 q 201 406 233 460 q 147 298 169 353 q 111 192 124 243 q 99 101 99 140 q 116 29 99 57 q 174 1 133 1 q 256 26 214 1 q 332 86 297 51 q 392 156 367 121 q 424 210 417 190 l 497 414 m 892 528 q 875 575 892 556 q 819 594 858 594 q 737 569 776 594 q 665 508 697 544 q 610 428 633 471 q 574 350 586 386 q 644 344 606 344 q 739 360 694 344 q 817 400 783 375 q 872 458 851 425 q 892 528 892 492 m 894 136 q 869 101 886 126 q 824 49 853 75 q 752 3 794 24 q 650 -17 710 -17 q 555 2 596 -17 q 486 49 514 21 q 444 110 458 76 q 428 174 429 144 l 425 174 q 383 117 410 150 q 322 55 357 85 q 243 4 286 25 q 151 -17 200 -17 q 95 -6 122 -17 q 47 26 68 4 q 14 81 26 47 q 1 160 1 114 q 24 271 1 215 q 82 377 46 326 q 165 471 118 428 q 260 546 211 514 q 354 596 308 578 q 436 614 400 614 q 507 590 478 614 q 536 528 536 567 l 539 528 l 563 596 l 660 596 l 626 506 l 631 503 q 665 539 646 519 q 708 575 683 558 q 765 603 733 592 q 836 614 796 614 q 883 608 858 614 q 929 589 908 601 q 964 557 950 576 q 978 510 978 538 q 958 444 978 472 q 906 395 938 415 q 835 361 874 375 q 761 340 797 347 q 695 328 725 332 q 651 325 665 325 q 606 326 628 325 q 567 331 583 328 q 541 242 551 286 q 531 150 531 199 q 569 38 531 75 q 668 1 608 1 q 747 19 713 1 q 806 60 781 36 q 849 108 832 83 q 878 146 867 132 l 894 136 "},"":{"ha":668,"x_min":0,"x_max":579,"o":"m 108 13 q 28 99 57 43 q 0 218 0 154 q 35 374 0 301 q 123 500 69 447 q 242 583 176 553 q 367 614 307 614 q 451 594 410 614 l 506 688 l 522 678 l 468 586 q 518 546 497 569 q 552 494 539 522 q 572 437 565 467 q 579 378 579 407 q 544 226 579 297 q 457 100 510 154 q 340 15 404 46 q 217 -17 275 -17 q 125 3 167 -17 l 69 -92 l 53 -82 l 108 13 m 139 25 q 213 1 171 1 q 293 26 256 1 q 361 92 331 51 q 415 183 392 133 q 455 283 439 233 q 479 378 471 333 q 488 450 488 422 q 480 513 488 485 q 453 560 472 540 l 139 25 m 439 574 q 406 589 425 583 q 360 594 386 594 q 283 571 319 594 q 217 509 247 547 q 164 422 188 471 q 124 323 140 374 q 100 224 108 272 q 92 140 92 176 q 124 39 92 75 l 439 574 "},"":{"ha":565,"x_min":-19,"x_max":496,"o":"m 496 556 q 477 509 496 528 q 431 490 458 490 q 384 509 403 490 q 365 556 365 528 q 384 602 365 583 q 431 621 403 621 q 477 602 458 621 q 496 556 496 583 m 365 279 q 348 218 358 249 q 307 153 338 188 l 199 28 q 102 -127 128 -51 q 76 -257 76 -203 q 115 -355 76 -326 q 203 -383 153 -383 q 299 -347 274 -383 q 324 -247 324 -310 q 336 -211 324 -226 q 381 -196 349 -196 q 417 -215 406 -196 q 429 -249 429 -233 q 413 -301 429 -274 q 368 -351 397 -328 q 298 -388 339 -374 q 206 -403 257 -403 q 108 -387 150 -403 q 37 -346 65 -372 q -6 -284 8 -319 q -19 -207 -19 -249 q -17 -167 -19 -192 q -3 -112 -14 -142 q 29 -51 7 -82 q 89 8 51 -19 l 196 88 q 239 119 217 103 q 281 157 261 136 q 318 204 301 178 q 343 265 335 231 l 367 354 l 385 354 l 365 279 "},"":{"ha":438,"x_min":22,"x_max":390,"o":"m 390 556 q 372 509 390 528 q 325 490 353 490 q 278 509 297 490 q 260 556 260 528 q 278 602 260 583 q 325 621 297 621 q 372 602 353 621 q 390 556 390 583 m 149 -336 q 123 -390 142 -376 q 83 -403 104 -403 q 41 -390 60 -403 q 22 -349 22 -378 q 28 -316 22 -333 q 42 -275 33 -299 l 264 356 l 274 356 l 149 -336 "},"":{"ha":824,"x_min":18,"x_max":685,"o":"m 657 201 l 657 440 l 18 440 l 18 465 l 685 465 l 685 201 l 657 201 "},"":{"ha":763,"x_min":57,"x_max":761,"o":"m 711 1268 l 761 1268 l 550 -51 l 214 639 l 79 578 l 57 621 l 260 724 l 535 165 l 711 1268 "},"":{"ha":772,"x_min":-212,"x_max":883,"o":"m 315 483 l 374 633 q 445 778 403 710 q 537 897 488 846 q 639 977 586 947 q 742 1007 692 1007 q 847 976 810 1007 q 883 888 883 946 q 869 829 883 853 q 818 806 856 806 q 780 817 794 806 q 765 850 765 829 q 772 875 765 864 q 785 897 778 886 q 799 919 793 907 q 806 946 806 931 q 793 974 806 961 q 744 988 781 988 q 690 976 717 988 q 638 935 664 964 q 584 856 611 906 q 528 731 557 807 l 431 483 l 607 483 l 601 464 l 422 464 l 322 192 q 274 69 301 135 q 214 -62 246 3 q 145 -185 182 -126 q 69 -290 108 -244 q -12 -362 29 -335 q -96 -389 -54 -389 q -153 -380 -131 -389 q -188 -356 -175 -371 q -207 -325 -201 -342 q -212 -293 -212 -308 q -197 -243 -212 -258 q -154 -228 -181 -228 q -119 -239 -131 -228 q -107 -267 -107 -250 q -112 -290 -107 -282 q -124 -306 -118 -299 q -136 -320 -131 -312 q -142 -340 -142 -328 q -128 -362 -142 -356 q -96 -369 -115 -369 q 1 -312 -43 -369 q 81 -157 44 -254 l 307 464 l 126 464 l 132 483 l 315 483 "},"":{"ha":763,"x_min":21,"x_max":743,"o":"m 743 704 q 693 568 740 617 q 579 519 646 519 q 511 529 542 519 q 447 553 493 535 q 325 601 400 571 q 175 644 222 644 q 95 615 128 644 q 50 521 63 585 l 21 521 q 34 599 21 565 q 69 656 47 632 q 120 692 92 679 q 178 706 149 704 q 238 696 210 706 q 322 668 274 686 q 435 622 371 650 q 496 597 469 607 q 542 582 522 588 q 586 578 561 578 q 672 610 638 578 q 714 704 707 642 l 743 704 m 743 371 q 693 234 740 283 q 579 185 646 185 q 476 206 547 185 l 325 268 q 175 311 222 311 q 95 282 128 311 q 50 186 63 253 l 21 186 q 34 266 21 232 q 69 323 47 300 q 118 358 90 346 q 176 372 146 371 q 238 364 207 372 q 435 289 304 344 q 495 265 468 274 q 542 250 522 256 q 586 244 557 244 q 672 276 638 244 q 714 371 707 308 l 743 371 "},"":{"ha":850,"x_min":18,"x_max":832,"o":"m 832 0 l 18 0 l 443 940 l 832 0 m 671 56 l 401 711 l 103 56 l 671 56 "},"":{"ha":565,"x_min":28,"x_max":451,"o":"m 278 479 q 213 460 244 476 q 156 416 181 444 q 115 347 131 388 q 100 251 100 306 q 110 199 100 221 q 135 162 121 176 q 163 139 149 147 q 185 126 176 131 l 176 107 q 147 119 171 108 q 96 151 122 129 q 49 207 69 172 q 28 292 28 242 q 52 382 28 344 q 114 444 76 419 q 195 483 151 469 q 278 499 239 496 l 278 479 m 451 461 q 386 442 418 458 q 329 398 354 426 q 289 328 304 369 q 274 233 274 288 q 284 181 274 203 q 308 144 294 158 q 336 121 322 129 q 358 108 350 113 l 350 89 q 320 101 344 90 q 269 133 296 111 q 222 189 243 154 q 201 274 201 224 q 226 364 201 326 q 288 426 250 401 q 369 465 325 451 q 451 481 413 478 l 451 461 "},"":{"ha":565,"x_min":-18,"x_max":403,"o":"m 153 107 q 218 126 186 110 q 275 170 250 142 q 315 240 300 199 q 331 335 331 281 q 320 388 331 365 q 296 424 310 410 q 268 447 282 439 q 246 460 254 456 l 254 479 q 284 466 260 476 q 335 435 308 456 q 382 380 361 414 q 403 294 403 346 q 378 205 403 243 q 317 142 354 167 q 235 103 279 117 q 153 88 192 90 l 153 107 m -18 126 q 46 145 14 129 q 103 190 78 161 q 143 259 128 218 q 158 354 158 300 q 148 407 158 385 q 124 444 138 429 q 96 467 110 458 q 74 479 82 475 l 82 499 q 112 485 88 496 q 163 454 136 475 q 210 399 189 433 q 231 314 231 365 q 206 224 231 263 q 144 161 182 186 q 63 123 107 136 q -18 107 19 110 l -18 126 "},"":{"ha":1389,"x_min":167,"x_max":1222,"o":"m 1092 47 q 1110 94 1092 75 q 1157 113 1129 113 q 1203 94 1185 113 q 1222 47 1222 75 q 1203 1 1222 19 q 1157 -17 1185 -17 q 1110 1 1129 -17 q 1092 47 1092 19 m 629 47 q 648 94 629 75 q 694 113 667 113 q 741 94 722 113 q 760 47 760 75 q 741 1 760 19 q 694 -17 722 -17 q 648 1 667 -17 q 629 47 629 19 m 167 47 q 185 94 167 75 q 232 113 204 113 q 278 94 260 113 q 297 47 297 75 q 278 1 297 19 q 232 -17 260 -17 q 185 1 204 -17 q 167 47 167 19 "},"":{"ha":333,"x_min":0,"x_max":0,"o":""},"":{"ha":1003,"x_min":-121,"x_max":907,"o":"m 574 1218 q 543 1264 543 1240 q 555 1296 543 1283 q 590 1308 567 1308 q 621 1297 610 1308 q 642 1271 632 1286 l 779 1072 l 758 1072 l 574 1218 m 617 850 l 614 850 l 317 428 l 622 428 l 617 850 m -115 19 l 3 19 l 700 1011 l 732 1011 l 757 19 l 907 19 l 901 0 l 474 0 l 479 19 l 631 19 l 622 408 l 303 408 l 31 19 l 171 19 l 165 0 l -121 0 l -115 19 "},"":{"ha":1003,"x_min":-121,"x_max":961,"o":"m 526 1106 q 576 1206 536 1168 q 665 1243 617 1243 q 708 1235 690 1243 q 740 1219 725 1226 l 794 1190 q 826 1179 814 1183 q 854 1175 839 1175 q 885 1183 871 1175 q 912 1201 900 1190 q 931 1225 924 1213 q 943 1247 939 1238 l 961 1247 q 950 1210 958 1233 q 925 1163 942 1186 q 884 1123 908 1140 q 825 1106 860 1106 q 782 1110 801 1106 q 739 1128 763 1115 l 703 1147 q 668 1166 683 1158 q 633 1174 653 1174 q 600 1166 615 1174 q 574 1148 585 1158 q 556 1126 563 1138 q 546 1106 549 1114 l 526 1106 m 617 850 l 614 850 l 317 428 l 622 428 l 617 850 m -115 19 l 3 19 l 700 1011 l 732 1011 l 757 19 l 907 19 l 901 0 l 474 0 l 479 19 l 631 19 l 622 408 l 303 408 l 31 19 l 171 19 l 165 0 l -121 0 l -115 19 "},"":{"ha":1081,"x_min":83,"x_max":1001,"o":"m 565 1106 q 615 1206 575 1168 q 704 1243 656 1243 q 747 1235 729 1243 q 779 1219 764 1226 l 833 1190 q 865 1179 853 1183 q 893 1175 878 1175 q 924 1183 910 1175 q 951 1201 939 1190 q 970 1225 963 1213 q 982 1247 978 1238 l 1000 1247 q 989 1210 997 1233 q 964 1163 981 1186 q 923 1123 947 1140 q 864 1106 899 1106 q 821 1110 840 1106 q 778 1128 801 1115 l 742 1147 q 707 1166 722 1158 q 672 1174 692 1174 q 639 1166 654 1174 q 613 1148 624 1158 q 594 1126 601 1138 q 585 1106 588 1114 l 565 1106 m 189 219 q 199 136 189 176 q 233 66 208 96 q 301 18 258 36 q 408 0 343 0 q 558 42 490 0 q 678 150 625 83 q 772 300 732 217 q 838 468 813 383 q 877 630 864 553 q 890 760 890 707 q 839 928 890 868 q 675 988 788 988 q 531 947 597 988 q 411 842 465 907 q 315 694 357 776 q 246 526 274 611 q 203 360 218 440 q 189 219 189 279 m 83 379 q 108 536 83 458 q 176 684 133 614 q 276 813 218 754 q 401 915 335 872 q 538 983 467 958 q 678 1007 608 1007 q 830 970 768 1007 q 930 875 892 933 q 985 745 968 817 q 1001 604 1001 674 q 978 453 1001 529 q 915 309 956 378 q 817 181 874 240 q 693 76 760 121 q 552 7 626 32 q 400 -18 478 -18 q 272 8 331 -18 q 172 83 214 33 q 107 208 131 133 q 83 379 83 282 "},"":{"ha":1440,"x_min":94,"x_max":1458,"o":"m 879 961 q 845 969 865 965 q 803 974 825 972 q 762 977 782 976 q 728 978 742 978 q 673 974 703 978 q 611 963 643 971 q 548 940 579 954 q 488 901 517 925 q 367 759 419 846 q 278 578 314 672 q 224 397 242 485 q 206 254 206 310 q 224 137 206 183 q 274 63 242 90 q 352 23 307 35 q 451 11 397 11 q 497 15 471 11 q 540 22 524 18 l 879 961 m 947 19 q 1056 50 1008 19 q 1140 122 1104 81 q 1201 206 1176 164 q 1239 272 1225 249 l 1258 272 l 1161 0 l 621 0 l 585 0 q 549 -1 568 0 q 511 -3 529 -3 q 477 -6 493 -4 q 451 -7 461 -7 q 299 21 365 -7 q 187 99 232 49 q 118 218 142 149 q 94 371 94 288 q 114 508 94 436 q 171 650 133 581 q 260 783 208 719 q 379 893 313 846 q 524 969 446 940 q 689 997 601 997 q 804 993 754 997 q 901 989 854 989 l 963 989 l 1458 989 l 1375 753 l 1356 753 q 1365 797 1360 769 q 1369 860 1369 825 q 1365 899 1369 879 q 1350 934 1361 918 q 1319 960 1339 950 q 1265 969 1299 969 l 1007 969 l 851 540 l 974 540 q 1048 560 1015 540 q 1105 609 1081 581 q 1145 666 1129 638 q 1171 711 1161 694 l 1188 711 l 1050 325 l 1032 325 q 1040 362 1036 340 q 1044 411 1044 383 q 1017 492 1044 463 q 931 521 990 521 l 846 521 l 665 19 l 947 19 "},"":{"ha":1054,"x_min":10,"x_max":1007,"o":"m 921 528 q 904 575 921 556 q 849 594 888 594 q 766 569 806 594 q 694 508 726 544 q 639 428 663 471 q 603 350 615 386 q 674 344 635 344 q 768 360 724 344 q 847 400 813 375 q 901 458 881 425 q 921 528 921 492 m 101 140 q 135 35 101 69 q 222 1 169 1 q 303 26 265 1 q 371 92 340 51 q 425 183 401 133 q 465 283 449 233 q 489 378 481 333 q 497 450 497 422 q 469 556 497 517 q 369 594 440 594 q 292 571 328 594 q 227 509 257 547 q 174 422 197 471 q 134 323 150 374 q 110 224 118 272 q 101 140 101 176 m 924 136 q 899 101 915 126 q 853 49 882 75 q 781 3 824 24 q 679 -17 739 -17 q 592 -3 628 -17 q 532 31 556 11 q 495 73 508 51 q 476 110 482 94 q 431 67 458 89 q 372 26 404 44 q 302 -5 339 7 q 226 -17 265 -17 q 137 3 176 -17 q 69 54 97 22 q 25 128 40 86 q 10 218 10 171 q 44 374 10 301 q 133 500 79 447 q 251 583 186 553 q 376 614 317 614 q 456 600 422 614 q 512 564 489 586 q 549 515 535 542 q 575 461 564 488 q 620 507 593 481 q 682 557 647 533 q 759 597 717 581 q 851 614 801 614 q 907 608 879 614 q 957 589 935 601 q 993 557 979 576 q 1007 510 1007 538 q 987 444 1007 472 q 935 395 967 415 q 865 361 903 375 q 790 340 826 347 q 724 328 754 332 q 681 325 694 325 q 635 326 657 325 q 596 331 613 328 q 570 242 581 286 q 560 150 560 199 q 599 38 560 75 q 697 1 638 1 q 776 19 742 1 q 835 60 810 36 q 878 108 861 83 q 907 146 896 132 l 924 136 "},"":{"ha":694,"x_min":-36,"x_max":663,"o":"m -31 311 l 663 311 l 657 292 l -36 292 l -31 311 "},"":{"ha":1389,"x_min":143,"x_max":1176,"o":"m 149 311 l 1176 311 l 1171 292 l 143 292 l 149 311 "},"":{"ha":617,"x_min":244,"x_max":667,"o":"m 449 1038 q 411 1020 435 1032 q 365 990 388 1008 q 325 945 342 971 q 308 888 308 919 q 315 840 308 858 q 322 843 318 842 q 331 847 325 844 q 342 849 336 849 q 356 850 347 850 q 396 832 382 850 q 410 793 410 814 q 391 740 410 760 q 336 719 372 719 q 269 749 294 719 q 244 822 244 778 q 271 924 244 882 q 331 994 297 967 q 398 1037 365 1022 q 443 1056 431 1051 l 449 1038 m 667 1038 q 629 1020 653 1032 q 583 990 606 1008 q 543 945 560 971 q 526 888 526 919 q 533 840 526 858 q 540 843 536 842 q 549 847 543 844 q 560 849 554 849 q 574 850 565 850 q 614 832 600 850 q 628 793 628 814 q 609 740 628 760 q 554 719 590 719 q 488 749 513 719 q 463 822 463 778 q 489 924 463 882 q 549 994 515 967 q 616 1037 583 1022 q 661 1056 649 1051 l 667 1038 "},"":{"ha":617,"x_min":244,"x_max":667,"o":"m 244 738 q 282 755 258 743 q 328 785 306 767 q 368 830 351 804 q 385 888 385 856 q 378 935 385 917 q 372 932 375 933 q 363 928 368 931 q 351 926 357 926 q 338 925 346 925 q 297 943 311 925 q 283 982 283 961 q 302 1035 283 1015 q 357 1056 321 1056 q 424 1026 399 1056 q 449 953 449 997 q 422 851 449 893 q 362 781 396 808 q 295 738 328 753 q 250 719 263 724 l 244 738 m 463 738 q 500 755 476 743 q 547 785 524 767 q 586 830 569 804 q 603 888 603 856 q 596 935 603 917 q 590 932 593 933 q 581 928 586 931 q 569 926 575 926 q 556 925 564 925 q 515 943 529 925 q 501 982 501 961 q 520 1035 501 1015 q 575 1056 539 1056 q 642 1026 617 1056 q 667 953 667 997 q 640 851 667 893 q 580 781 614 808 q 513 738 546 753 q 468 719 481 724 l 463 738 "},"":{"ha":386,"x_min":221,"x_max":425,"o":"m 425 1038 q 388 1020 411 1032 q 341 990 364 1008 q 301 945 318 971 q 285 888 285 919 q 292 840 285 858 q 298 843 294 842 q 307 847 301 844 q 318 849 313 849 q 332 850 324 850 q 372 832 358 850 q 386 793 386 814 q 367 740 386 760 q 313 719 349 719 q 246 749 271 719 q 221 822 221 778 q 247 924 221 882 q 308 994 274 967 q 374 1037 342 1022 q 419 1056 407 1051 l 425 1038 "},"":{"ha":386,"x_min":221,"x_max":425,"o":"m 221 738 q 258 755 235 743 q 305 785 282 767 q 344 830 328 804 q 361 888 361 856 q 354 935 361 917 q 348 932 351 933 q 339 928 344 931 q 328 926 333 926 q 314 925 322 925 q 274 943 288 925 q 260 982 260 961 q 278 1035 260 1015 q 333 1056 297 1056 q 400 1026 375 1056 q 425 953 425 997 q 399 851 425 893 q 338 781 372 808 q 272 738 304 753 q 226 719 239 724 l 221 738 "},"":{"ha":824,"x_min":18,"x_max":685,"o":"m 351 613 q 398 594 379 613 q 417 547 417 575 q 398 501 417 519 q 351 482 379 482 q 305 501 324 482 q 286 547 286 519 q 305 594 286 575 q 351 613 324 613 m 351 54 q 305 73 324 54 q 286 119 286 92 q 305 166 286 147 q 351 185 324 185 q 398 166 379 185 q 417 119 417 147 q 398 73 417 92 q 351 54 379 54 m 18 321 l 18 346 l 685 346 l 685 321 l 18 321 "},"":{"ha":686,"x_min":32,"x_max":656,"o":"m 372 964 l 656 481 l 372 0 l 297 0 l 32 481 l 297 964 l 372 964 m 336 899 l 106 481 l 336 64 l 579 481 l 336 899 "},"":{"ha":643,"x_min":-187,"x_max":674,"o":"m 490 924 q 509 970 490 951 q 556 989 528 989 q 602 970 583 989 q 621 924 621 951 q 602 877 621 896 q 556 858 583 858 q 509 877 528 858 q 490 924 490 896 m 235 924 q 253 970 235 951 q 300 989 272 989 q 347 970 328 989 q 365 924 365 951 q 347 877 365 896 q 300 858 328 858 q 253 877 272 858 q 235 924 235 896 m 3 436 q 17 489 8 458 q 41 547 25 519 q 81 594 57 575 q 143 614 106 614 q 217 591 188 614 q 265 533 247 568 q 290 458 282 499 q 297 383 297 418 q 287 226 297 292 q 267 115 276 160 l 269 115 l 482 499 q 505 540 493 519 q 532 577 517 561 q 567 603 547 593 q 614 614 588 614 q 660 597 647 614 q 674 560 674 581 q 657 517 674 533 q 613 500 640 500 q 586 525 586 500 q 594 548 586 540 q 601 568 601 556 q 582 586 601 589 q 546 562 565 585 q 496 485 526 539 l 243 26 l 163 -124 q 113 -210 139 -168 q 58 -283 88 -251 q -3 -335 29 -315 q -69 -354 -35 -354 q -155 -328 -122 -354 q -187 -258 -187 -303 q -167 -210 -187 -222 q -122 -199 -146 -199 q -93 -208 -104 -199 q -82 -233 -82 -217 q -84 -252 -82 -246 q -89 -265 -86 -258 q -94 -278 -92 -271 q -96 -300 -96 -286 q -83 -325 -96 -315 q -49 -335 -69 -335 q 33 -285 -10 -335 q 110 -153 75 -235 q 169 33 146 -72 q 192 247 192 138 q 186 424 192 356 q 172 530 181 492 q 151 581 163 568 q 128 594 140 594 q 85 576 103 594 q 54 531 67 557 q 34 476 42 504 q 22 431 26 449 l 3 436 "},"":{"ha":900,"x_min":72,"x_max":1065,"o":"m 750 1201 q 769 1248 750 1229 q 815 1267 788 1267 q 862 1248 843 1267 q 881 1201 881 1229 q 862 1155 881 1174 q 815 1136 843 1136 q 769 1155 788 1136 q 750 1201 750 1174 m 494 1201 q 513 1248 494 1229 q 560 1267 532 1267 q 606 1248 588 1267 q 625 1201 625 1229 q 606 1155 625 1174 q 560 1136 588 1136 q 513 1155 532 1136 q 494 1201 494 1174 m 233 19 l 386 449 l 288 969 l 136 969 l 142 989 l 569 989 l 564 969 l 410 969 l 500 493 l 924 969 l 788 969 l 793 989 l 1065 989 l 1060 969 l 951 969 l 510 471 l 347 19 l 507 19 l 501 0 l 72 0 l 78 19 l 233 19 "},"":{"ha":206,"x_min":-228,"x_max":396,"o":"m 371 989 l 396 975 l -203 -26 l -228 -12 l 371 989 "},"":{"ha":669,"x_min":-32,"x_max":731,"o":"m 490 1 l 474 1 q 457 24 464 18 q 433 29 450 29 q 403 24 415 29 q 372 13 390 19 q 306 -11 331 -4 q 250 -18 281 -18 q 176 -9 210 -18 q 114 28 142 0 q 98 47 110 32 q 74 89 86 61 q 51 158 61 117 q 42 256 42 199 q 45 331 42 290 q 56 407 49 372 l -32 407 l -22 426 l 58 426 q 75 503 64 461 q 97 574 86 544 l 11 574 l 22 593 l 104 593 q 172 738 136 681 q 228 821 208 794 q 277 880 250 851 q 337 930 304 908 q 408 965 369 951 q 493 978 447 978 q 568 966 542 978 q 610 944 594 954 q 633 931 621 938 q 661 925 646 925 q 714 954 692 925 l 731 954 l 665 711 l 654 711 q 651 794 657 750 q 632 868 644 838 q 499 958 592 958 q 409 935 443 958 q 344 868 375 911 q 301 798 321 835 q 266 724 282 761 q 238 653 250 688 q 218 593 226 619 l 592 593 l 581 574 l 213 574 q 198 528 204 547 q 188 492 192 508 q 179 460 183 475 q 171 426 175 444 l 494 426 l 483 407 l 168 407 q 154 349 161 382 q 142 282 147 317 q 134 215 138 247 q 131 158 131 182 q 136 101 131 129 q 156 50 142 72 q 191 14 169 28 q 244 0 213 0 q 330 18 285 0 q 407 61 375 36 q 453 104 432 79 q 491 156 474 129 q 522 211 508 183 q 547 261 536 239 l 560 261 l 490 1 "},"":{"ha":386,"x_min":28,"x_max":278,"o":"m 278 479 q 213 460 244 476 q 156 416 181 444 q 115 347 131 388 q 100 251 100 306 q 110 199 100 221 q 135 162 121 176 q 163 139 149 147 q 185 126 176 131 l 176 107 q 147 119 171 108 q 96 151 122 129 q 49 207 69 172 q 28 292 28 242 q 52 382 28 344 q 114 444 76 419 q 195 483 151 469 q 278 499 239 496 l 278 479 "},"":{"ha":386,"x_min":-18,"x_max":231,"o":"m -18 126 q 46 145 14 129 q 103 190 78 161 q 143 259 128 218 q 158 354 158 300 q 148 407 158 385 q 124 444 138 429 q 96 467 110 458 q 74 479 82 475 l 82 499 q 112 485 88 496 q 163 454 136 475 q 210 399 189 433 q 231 314 231 365 q 206 224 231 263 q 144 161 182 186 q 63 123 107 136 q -18 107 19 110 l -18 126 "},"":{"ha":797,"x_min":-337,"x_max":796,"o":"m 544 125 q 531 83 538 104 q 524 42 524 61 q 533 13 524 25 q 563 1 543 1 q 608 17 586 1 q 647 52 629 32 q 676 93 664 72 q 694 126 689 114 l 711 119 q 694 85 706 108 q 661 40 682 63 q 610 0 640 17 q 538 -17 579 -17 q 465 2 492 -17 q 438 65 438 21 q 441 103 438 85 q 454 146 444 121 l 606 576 l 314 576 l 161 100 q 105 -47 139 32 q 24 -194 71 -126 q -83 -308 -22 -262 q -219 -354 -144 -354 q -303 -332 -268 -354 q -337 -261 -337 -310 q -318 -211 -337 -229 q -272 -193 -299 -193 q -245 -201 -258 -193 q -232 -232 -232 -210 q -242 -265 -232 -256 q -251 -290 -251 -275 q -242 -322 -251 -310 q -203 -335 -232 -335 q -136 -312 -168 -335 q -76 -249 -104 -289 q -24 -153 -49 -208 q 19 -32 0 -97 l 217 576 l 88 576 l 93 596 l 222 596 l 260 708 q 321 838 282 775 q 410 949 360 900 q 523 1026 461 997 q 653 1056 585 1056 q 719 1044 692 1056 q 763 1016 746 1033 q 788 978 781 999 q 796 939 796 958 q 779 893 796 914 q 724 872 763 872 q 681 882 697 872 q 665 913 665 892 q 672 939 665 929 q 685 958 678 949 q 698 976 692 967 q 704 999 704 985 q 691 1026 704 1015 q 646 1036 678 1036 q 563 1014 603 1036 q 488 955 522 992 q 424 869 453 918 q 378 765 396 819 l 319 596 l 708 596 l 544 125 "},"":{"ha":797,"x_min":-360,"x_max":867,"o":"m 226 596 l 94 596 l 89 576 l 219 576 l 29 24 q -28 -123 1 -57 q -90 -235 -58 -189 q -156 -308 -122 -282 q -225 -333 -190 -333 q -267 -321 -260 -333 q -274 -293 -274 -308 q -271 -278 -274 -283 q -264 -267 -268 -272 q -257 -253 -260 -261 q -254 -231 -254 -246 q -267 -200 -254 -208 q -294 -192 -281 -192 q -340 -209 -321 -192 q -360 -258 -360 -226 q -349 -301 -360 -283 q -320 -331 -337 -319 q -280 -348 -303 -343 q -233 -353 -257 -353 q -122 -318 -176 -353 q -19 -228 -67 -283 q 66 -103 28 -172 q 128 32 104 -35 l 317 576 l 461 576 l 467 596 l 324 596 l 388 765 q 430 859 404 810 q 490 949 456 908 q 569 1017 525 990 q 665 1044 613 1044 q 685 1044 672 1044 q 712 1039 699 1043 q 735 1026 725 1035 q 744 1003 744 1018 l 446 146 q 433 103 436 121 q 429 65 429 85 q 456 3 429 21 q 529 -15 483 -15 q 601 1 571 -15 q 653 40 632 17 q 685 85 674 63 q 703 119 697 108 l 686 126 q 668 93 681 114 q 638 52 656 72 q 598 17 619 32 q 554 1 576 1 q 525 13 535 1 q 515 42 515 25 q 522 83 515 61 q 536 125 529 104 l 867 1056 l 756 1056 q 734 1057 744 1056 q 713 1060 724 1058 q 667 1064 690 1064 q 560 1042 622 1064 q 432 961 499 1021 q 355 876 386 919 q 301 789 324 833 q 260 697 278 744 q 226 596 243 649 "},"":{"ha":721,"x_min":-92,"x_max":733,"o":"m 403 569 q 383 478 392 525 q 374 389 374 431 q 385 330 374 349 q 415 296 397 311 q 340 230 371 276 q 292 129 308 183 l 258 24 l 243 -31 l 286 -31 q 366 -23 338 -31 q 414 -7 394 -15 q 446 9 432 1 q 482 17 460 17 q 525 -1 510 17 q 540 -42 540 -18 q 525 -85 540 -67 q 481 -104 510 -104 q 444 -96 456 -104 q 414 -78 432 -87 q 363 -58 394 -67 q 265 -50 331 -50 l 238 -50 l 222 -94 q 203 -186 207 -147 q 200 -254 199 -225 q 205 -306 201 -285 q 208 -343 208 -326 q 189 -390 208 -376 q 144 -403 169 -403 q 106 -392 125 -403 q 86 -356 86 -381 q 96 -314 86 -329 q 122 -275 106 -299 q 158 -210 138 -251 q 203 -92 179 -169 l 218 -50 l 179 -50 q 86 -58 119 -50 q 33 -78 53 -67 q 1 -96 14 -87 q -33 -104 -12 -104 q -76 -87 -61 -104 q -92 -44 -92 -71 q -76 -1 -92 -18 q -33 17 -61 17 q 1 9 -11 17 q 32 -7 13 1 q 83 -23 51 -15 q 174 -31 114 -31 l 224 -31 l 238 22 q 258 114 249 67 q 267 203 267 161 q 255 262 267 243 q 225 296 243 281 q 301 362 269 315 q 349 463 332 408 l 382 568 l 397 624 l 354 624 q 274 616 303 624 q 226 600 246 608 q 194 583 208 590 q 158 575 181 575 q 115 593 131 575 q 100 635 100 611 q 115 678 100 660 q 160 697 131 697 q 197 689 185 697 q 226 671 208 681 q 278 651 246 660 q 375 643 310 643 l 403 643 l 418 699 q 438 790 433 751 q 440 858 442 829 q 435 910 439 889 q 432 947 432 931 q 451 994 432 981 q 496 1007 471 1007 q 535 996 515 1007 q 554 960 554 985 q 544 918 554 933 q 518 879 535 903 q 482 815 503 856 q 438 696 461 774 l 422 643 l 461 643 q 554 651 521 643 q 607 671 588 660 q 640 689 626 681 q 675 697 654 697 q 718 681 703 697 q 733 638 733 664 q 718 593 733 611 q 675 575 703 575 q 640 583 653 575 q 608 600 628 590 q 558 616 589 608 q 467 624 526 624 l 417 624 l 403 569 "},"":{"ha":386,"x_min":75,"x_max":206,"o":"m 75 357 q 94 403 75 385 q 140 422 113 422 q 187 403 168 422 q 206 357 206 385 q 187 310 206 329 q 140 292 168 292 q 94 310 113 292 q 75 357 75 329 "},"":{"ha":386,"x_min":-10,"x_max":193,"o":"m -10 -204 q 26 -187 3 -199 q 73 -156 50 -175 q 113 -112 96 -137 q 129 -54 129 -87 q 122 -7 129 -25 q 116 -10 119 -8 q 107 -14 113 -11 q 96 -16 101 -15 q 82 -17 90 -17 q 42 1 56 -17 q 28 39 28 18 q 47 92 28 72 q 101 113 65 113 q 168 83 143 113 q 193 10 193 54 q 167 -91 193 -49 q 106 -161 140 -133 q 40 -203 72 -189 q -4 -222 7 -218 l -10 -204 "},"":{"ha":617,"x_min":-7,"x_max":414,"o":"m -7 -204 q 29 -187 6 -199 q 76 -156 53 -175 q 115 -112 99 -137 q 132 -54 132 -87 q 125 -7 132 -25 q 119 -10 122 -8 q 110 -14 115 -11 q 99 -16 104 -15 q 85 -17 93 -17 q 44 1 58 -17 q 31 39 31 18 q 49 92 31 72 q 104 113 68 113 q 171 83 146 113 q 196 10 196 54 q 169 -91 196 -49 q 109 -161 143 -133 q 42 -203 75 -189 q -1 -222 10 -218 l -7 -204 m 210 -204 q 247 -187 224 -199 q 294 -156 271 -175 q 333 -112 317 -137 q 350 -54 350 -86 q 343 -7 350 -25 q 337 -10 340 -8 q 328 -14 333 -11 q 317 -16 322 -15 q 303 -17 311 -17 q 263 1 276 -17 q 249 39 249 18 q 267 92 249 72 q 322 113 286 113 q 389 83 364 113 q 414 10 414 54 q 388 -91 414 -49 q 327 -161 361 -133 q 260 -203 293 -189 q 215 -222 228 -218 l 210 -204 "},"":{"ha":1389,"x_min":68,"x_max":1321,"o":"m 478 108 q 499 32 478 64 q 571 0 519 0 q 638 22 610 0 q 688 76 667 43 q 721 149 708 110 q 741 225 733 189 q 751 288 749 261 q 754 324 754 315 q 732 400 754 372 q 658 428 710 428 q 574 395 608 428 q 518 314 539 363 q 488 210 497 265 q 478 108 478 154 m 400 153 q 417 241 400 190 q 466 338 433 292 q 548 415 499 383 q 664 447 597 447 q 735 434 704 447 q 788 398 767 421 q 821 344 810 375 q 832 279 832 314 q 814 178 832 231 q 761 81 796 125 q 676 10 726 38 q 563 -18 626 -18 q 446 24 492 -18 q 400 153 400 65 m 68 683 q 85 772 68 721 q 134 868 101 822 q 216 946 167 914 q 332 978 265 978 q 411 963 379 978 q 463 924 443 949 q 492 870 483 900 q 500 810 500 840 q 482 708 500 761 q 429 612 464 656 q 344 540 394 568 q 231 511 294 511 q 111 553 154 511 q 68 683 68 596 m 146 639 q 167 563 146 594 q 239 531 188 531 q 306 552 278 531 q 356 607 335 574 q 389 680 376 640 q 409 756 401 719 q 419 819 417 792 q 422 854 422 846 q 400 931 422 903 q 326 958 378 958 q 242 926 276 958 q 186 844 207 893 q 156 740 165 796 q 146 639 146 685 m 967 108 q 988 32 967 64 q 1060 0 1008 0 q 1127 22 1099 0 q 1176 76 1156 43 q 1210 149 1197 110 q 1230 225 1222 189 q 1240 288 1238 261 q 1243 324 1243 315 q 1221 400 1243 372 q 1147 428 1199 428 q 1063 395 1097 428 q 1007 314 1028 363 q 976 210 986 265 q 967 108 967 154 m 740 1004 l 764 989 l 163 -15 l 139 0 l 740 1004 m 889 153 q 906 241 889 190 q 955 338 922 292 q 1037 415 988 383 q 1153 447 1086 447 q 1224 434 1193 447 q 1277 398 1256 421 q 1310 344 1299 375 q 1321 279 1321 314 q 1303 178 1321 231 q 1250 81 1285 125 q 1165 10 1215 38 q 1051 -18 1115 -18 q 935 24 981 -18 q 889 153 889 65 "},"":{"ha":1003,"x_min":-121,"x_max":911,"o":"m 738 1306 l 789 1306 l 911 1072 l 892 1072 l 751 1219 l 536 1072 l 514 1072 l 738 1306 m 617 850 l 614 850 l 317 428 l 622 428 l 617 850 m -115 19 l 3 19 l 700 1011 l 732 1011 l 757 19 l 907 19 l 901 0 l 474 0 l 479 19 l 631 19 l 622 408 l 303 408 l 31 19 l 171 19 l 165 0 l -121 0 l -115 19 "},"":{"ha":951,"x_min":-122,"x_max":983,"o":"m 685 1306 l 736 1306 l 858 1072 l 839 1072 l 699 1219 l 483 1072 l 461 1072 l 685 1306 m 367 969 l 206 969 l 211 989 l 983 989 l 899 753 l 879 753 q 890 797 885 768 q 896 853 896 826 q 874 937 896 904 q 785 969 851 969 l 492 969 l 338 540 l 468 540 q 547 563 513 540 q 605 616 581 586 q 644 675 629 646 q 667 717 660 704 l 686 717 l 540 313 l 521 313 q 533 358 528 329 q 539 414 539 388 q 508 494 539 467 q 425 521 478 521 l 331 521 l 151 19 l 476 19 q 580 51 532 19 q 665 126 628 83 q 726 210 701 168 q 763 272 751 251 l 782 272 l 685 0 l -122 0 l -117 19 l 26 19 l 367 969 "},"":{"ha":1003,"x_min":-121,"x_max":958,"o":"m 849 1265 q 883 1297 868 1285 q 917 1308 899 1308 q 947 1297 935 1308 q 958 1268 958 1286 q 948 1240 958 1253 q 899 1203 938 1226 l 676 1072 l 657 1072 l 849 1265 m 617 850 l 614 850 l 317 428 l 622 428 l 617 850 m -115 19 l 3 19 l 700 1011 l 732 1011 l 757 19 l 907 19 l 901 0 l 474 0 l 479 19 l 631 19 l 622 408 l 303 408 l 31 19 l 171 19 l 165 0 l -121 0 l -115 19 "},"":{"ha":951,"x_min":-122,"x_max":983,"o":"m 749 1201 q 767 1248 749 1229 q 814 1267 786 1267 q 860 1248 842 1267 q 879 1201 879 1229 q 860 1155 879 1174 q 814 1136 842 1136 q 767 1155 786 1136 q 749 1201 749 1174 m 493 1201 q 512 1248 493 1229 q 558 1267 531 1267 q 605 1248 586 1267 q 624 1201 624 1229 q 605 1155 624 1174 q 558 1136 586 1136 q 512 1155 531 1136 q 493 1201 493 1174 m 367 969 l 206 969 l 211 989 l 983 989 l 899 753 l 879 753 q 890 797 885 768 q 896 853 896 826 q 874 937 896 904 q 785 969 851 969 l 492 969 l 338 540 l 468 540 q 547 563 513 540 q 605 616 581 586 q 644 675 629 646 q 667 717 660 704 l 686 717 l 540 313 l 521 313 q 533 358 528 329 q 539 414 539 388 q 508 494 539 467 q 425 521 478 521 l 331 521 l 151 19 l 476 19 q 580 51 532 19 q 665 126 628 83 q 726 210 701 168 q 763 272 751 251 l 782 272 l 685 0 l -122 0 l -117 19 l 26 19 l 367 969 "},"":{"ha":951,"x_min":-122,"x_max":983,"o":"m 549 1218 q 518 1264 518 1240 q 530 1296 518 1283 q 565 1308 542 1308 q 596 1297 585 1308 q 617 1271 607 1286 l 754 1072 l 733 1072 l 549 1218 m 367 969 l 206 969 l 211 989 l 983 989 l 899 753 l 879 753 q 890 797 885 768 q 896 853 896 826 q 874 937 896 904 q 785 969 851 969 l 492 969 l 338 540 l 468 540 q 547 563 513 540 q 605 616 581 586 q 644 675 629 646 q 667 717 660 704 l 686 717 l 540 313 l 521 313 q 533 358 528 329 q 539 414 539 388 q 508 494 539 467 q 425 521 478 521 l 331 521 l 151 19 l 476 19 q 580 51 532 19 q 665 126 628 83 q 726 210 701 168 q 763 272 751 251 l 782 272 l 685 0 l -122 0 l -117 19 l 26 19 l 367 969 "},"":{"ha":540,"x_min":-114,"x_max":728,"o":"m 618 1265 q 653 1297 638 1285 q 686 1308 668 1308 q 716 1297 704 1308 q 728 1268 728 1286 q 717 1240 728 1253 q 668 1203 707 1226 l 446 1072 l 426 1072 l 618 1265 m -108 19 l 33 19 l 375 969 l 215 969 l 221 989 l 651 989 l 646 969 l 500 969 l 160 19 l 318 19 l 313 0 l -114 0 l -108 19 "},"":{"ha":540,"x_min":-114,"x_max":674,"o":"m 500 1306 l 551 1306 l 674 1072 l 654 1072 l 514 1219 l 299 1072 l 276 1072 l 500 1306 m -108 19 l 33 19 l 375 969 l 215 969 l 221 989 l 651 989 l 646 969 l 500 969 l 160 19 l 318 19 l 313 0 l -114 0 l -108 19 "},"":{"ha":540,"x_min":-114,"x_max":708,"o":"m 578 1201 q 597 1248 578 1229 q 643 1267 615 1267 q 690 1248 671 1267 q 708 1201 708 1229 q 690 1155 708 1174 q 643 1136 671 1136 q 597 1155 615 1136 q 578 1201 578 1174 m 322 1201 q 341 1248 322 1229 q 388 1267 360 1267 q 434 1248 415 1267 q 453 1201 453 1229 q 434 1155 453 1174 q 388 1136 415 1136 q 341 1155 360 1136 q 322 1201 322 1174 m -108 19 l 33 19 l 375 969 l 215 969 l 221 989 l 651 989 l 646 969 l 500 969 l 160 19 l 318 19 l 313 0 l -114 0 l -108 19 "},"":{"ha":540,"x_min":-114,"x_max":651,"o":"m 343 1218 q 313 1264 313 1240 q 324 1296 313 1283 q 360 1308 336 1308 q 390 1297 379 1308 q 411 1271 401 1286 l 549 1072 l 528 1072 l 343 1218 m -108 19 l 33 19 l 375 969 l 215 969 l 221 989 l 651 989 l 646 969 l 500 969 l 160 19 l 318 19 l 313 0 l -114 0 l -108 19 "},"":{"ha":1081,"x_min":83,"x_max":1001,"o":"m 888 1265 q 922 1297 907 1285 q 956 1308 938 1308 q 985 1297 974 1308 q 997 1268 997 1286 q 987 1240 997 1253 q 938 1203 976 1226 l 715 1072 l 696 1072 l 888 1265 m 189 219 q 199 136 189 176 q 233 66 208 96 q 301 18 258 36 q 408 0 343 0 q 558 42 490 0 q 678 150 625 83 q 772 300 732 217 q 838 468 813 383 q 877 630 864 553 q 890 760 890 707 q 839 928 890 868 q 675 988 788 988 q 531 947 597 988 q 411 842 465 907 q 315 694 357 776 q 246 526 274 611 q 203 360 218 440 q 189 219 189 279 m 83 379 q 108 536 83 458 q 176 684 133 614 q 276 813 218 754 q 401 915 335 872 q 538 983 467 958 q 678 1007 608 1007 q 830 970 768 1007 q 930 875 892 933 q 985 745 968 817 q 1001 604 1001 674 q 978 453 1001 529 q 915 309 956 378 q 817 181 874 240 q 693 76 760 121 q 552 7 626 32 q 400 -18 478 -18 q 272 8 331 -18 q 172 83 214 33 q 107 208 131 133 q 83 379 83 282 "},"":{"ha":1081,"x_min":83,"x_max":1001,"o":"m 769 1306 l 821 1306 l 943 1072 l 924 1072 l 783 1219 l 568 1072 l 546 1072 l 769 1306 m 189 219 q 199 136 189 176 q 233 66 208 96 q 301 18 258 36 q 408 0 343 0 q 558 42 490 0 q 678 150 625 83 q 772 300 732 217 q 838 468 813 383 q 877 630 864 553 q 890 760 890 707 q 839 928 890 868 q 675 988 788 988 q 531 947 597 988 q 411 842 465 907 q 315 694 357 776 q 246 526 274 611 q 203 360 218 440 q 189 219 189 279 m 83 379 q 108 536 83 458 q 176 684 133 614 q 276 813 218 754 q 401 915 335 872 q 538 983 467 958 q 678 1007 608 1007 q 830 970 768 1007 q 930 875 892 933 q 985 745 968 817 q 1001 604 1001 674 q 978 453 1001 529 q 915 309 956 378 q 817 181 874 240 q 693 76 760 121 q 552 7 626 32 q 400 -18 478 -18 q 272 8 331 -18 q 172 83 214 33 q 107 208 131 133 q 83 379 83 282 "},"":{"ha":1097,"x_min":71,"x_max":1040,"o":"m 567 817 q 665 840 594 817 q 786 864 736 864 q 935 819 869 864 q 971 789 953 806 q 1007 750 989 772 q 928 667 953 703 q 882 524 882 603 q 931 368 882 438 q 1040 281 978 300 q 1006 195 1026 239 q 956 107 985 151 q 776 -28 867 -28 q 678 -6 739 -28 q 574 15 618 15 q 474 -7 528 15 q 382 -31 415 -31 q 174 149 276 -31 q 71 499 71 326 q 149 758 71 657 q 347 858 228 858 q 471 838 399 858 q 567 817 544 817 m 779 1097 q 758 1001 779 1053 q 694 906 738 950 q 618 856 654 868 q 547 844 592 849 q 601 1023 549 947 q 775 1126 653 1099 q 778 1110 778 1117 q 779 1097 779 1103 "},"":{"ha":1081,"x_min":83,"x_max":1001,"o":"m 613 1218 q 582 1264 582 1240 q 594 1296 582 1283 q 629 1308 606 1308 q 660 1297 649 1308 q 681 1271 671 1286 l 818 1072 l 797 1072 l 613 1218 m 189 219 q 199 136 189 176 q 233 66 208 96 q 301 18 258 36 q 408 0 343 0 q 558 42 490 0 q 678 150 625 83 q 772 300 732 217 q 838 468 813 383 q 877 630 864 553 q 890 760 890 707 q 839 928 890 868 q 675 988 788 988 q 531 947 597 988 q 411 842 465 907 q 315 694 357 776 q 246 526 274 611 q 203 360 218 440 q 189 219 189 279 m 83 379 q 108 536 83 458 q 176 684 133 614 q 276 813 218 754 q 401 915 335 872 q 538 983 467 958 q 678 1007 608 1007 q 830 970 768 1007 q 930 875 892 933 q 985 745 968 817 q 1001 604 1001 674 q 978 453 1001 529 q 915 309 956 378 q 817 181 874 240 q 693 76 760 121 q 552 7 626 32 q 400 -18 478 -18 q 272 8 331 -18 q 172 83 214 33 q 107 208 131 133 q 83 379 83 282 "},"":{"ha":1029,"x_min":117,"x_max":1150,"o":"m 863 1265 q 897 1297 882 1285 q 931 1308 913 1308 q 960 1297 949 1308 q 972 1268 972 1286 q 962 1240 972 1253 q 913 1203 951 1226 l 690 1072 l 671 1072 l 863 1265 m 204 989 l 633 989 l 628 969 l 482 969 l 269 376 q 238 273 249 318 q 226 175 226 228 q 238 108 226 140 q 273 52 250 76 q 331 14 296 28 q 410 0 365 0 q 556 31 494 0 q 662 110 618 61 q 734 217 706 158 q 781 335 763 276 l 978 969 l 819 969 l 825 989 l 1150 989 l 1144 969 l 1000 969 l 796 317 q 647 62 742 142 q 399 -18 553 -18 q 265 4 319 -18 q 178 60 211 26 q 131 134 144 93 q 117 213 117 175 q 131 328 117 272 q 174 458 146 385 l 357 969 l 199 969 l 204 989 "},"":{"ha":1029,"x_min":117,"x_max":1150,"o":"m 751 1306 l 803 1306 l 925 1072 l 906 1072 l 765 1219 l 550 1072 l 528 1072 l 751 1306 m 204 989 l 633 989 l 628 969 l 482 969 l 269 376 q 238 273 249 318 q 226 175 226 228 q 238 108 226 140 q 273 52 250 76 q 331 14 296 28 q 410 0 365 0 q 556 31 494 0 q 662 110 618 61 q 734 217 706 158 q 781 335 763 276 l 978 969 l 819 969 l 825 989 l 1150 989 l 1144 969 l 1000 969 l 796 317 q 647 62 742 142 q 399 -18 553 -18 q 265 4 319 -18 q 178 60 211 26 q 131 134 144 93 q 117 213 117 175 q 131 328 117 272 q 174 458 146 385 l 357 969 l 199 969 l 204 989 "},"":{"ha":1029,"x_min":117,"x_max":1150,"o":"m 588 1218 q 557 1264 557 1240 q 569 1296 557 1283 q 604 1308 581 1308 q 635 1297 624 1308 q 656 1271 646 1286 l 793 1072 l 772 1072 l 588 1218 m 204 989 l 633 989 l 628 969 l 482 969 l 269 376 q 238 273 249 318 q 226 175 226 228 q 238 108 226 140 q 273 52 250 76 q 331 14 296 28 q 410 0 365 0 q 556 31 494 0 q 662 110 618 61 q 734 217 706 158 q 781 335 763 276 l 978 969 l 819 969 l 825 989 l 1150 989 l 1144 969 l 1000 969 l 796 317 q 647 62 742 142 q 399 -18 553 -18 q 265 4 319 -18 q 178 60 211 26 q 131 134 144 93 q 117 213 117 175 q 131 328 117 272 q 174 458 146 385 l 357 969 l 199 969 l 204 989 "},"":{"ha":386,"x_min":19,"x_max":293,"o":"m 188 576 l 64 576 l 69 596 l 290 596 l 126 125 q 113 83 119 104 q 106 42 106 61 q 115 13 106 25 q 144 1 125 1 q 188 17 167 1 q 228 52 210 32 q 258 93 246 72 q 276 126 271 114 l 293 119 q 276 85 288 108 q 243 40 264 63 q 192 0 222 17 q 119 -17 161 -17 q 47 2 74 -17 q 19 65 19 21 q 28 117 19 89 q 44 169 36 146 l 188 576 "},"":{"ha":386,"x_min":81,"x_max":478,"o":"m 304 1000 l 356 1000 l 478 767 l 458 767 l 318 914 l 103 767 l 81 767 l 304 1000 "},"":{"ha":386,"x_min":93,"x_max":528,"o":"m 93 800 q 143 900 103 863 q 232 938 183 938 q 274 929 257 938 q 307 914 292 921 l 361 885 q 393 874 381 878 q 421 869 406 869 q 452 877 438 869 q 478 896 467 885 q 498 919 490 907 q 510 942 506 932 l 528 942 q 517 904 525 928 q 492 858 508 881 q 451 817 475 835 q 392 800 426 800 q 349 805 368 800 q 306 822 329 810 l 269 842 q 235 860 250 853 q 200 868 219 868 q 167 860 182 868 q 140 842 151 853 q 122 820 129 832 q 113 800 115 808 l 93 800 "},"":{"ha":386,"x_min":113,"x_max":519,"o":"m 519 878 l 503 836 l 113 836 l 129 878 l 519 878 "},"":{"ha":386,"x_min":104,"x_max":499,"o":"m 124 990 q 132 943 124 968 q 159 897 140 918 q 208 863 178 876 q 282 850 239 850 q 355 862 324 850 q 410 893 386 874 q 450 938 433 913 q 479 990 467 964 l 499 990 q 476 921 490 960 q 438 847 463 882 q 372 788 413 813 q 271 764 332 764 q 179 790 213 764 q 129 851 146 815 q 108 926 113 888 q 104 990 104 964 l 124 990 "},"":{"ha":386,"x_min":276,"x_max":407,"o":"m 276 924 q 295 970 276 951 q 342 989 314 989 q 388 970 369 989 q 407 924 407 951 q 388 877 407 896 q 342 858 369 858 q 295 877 314 858 q 276 924 276 896 "},"":{"ha":386,"x_min":215,"x_max":457,"o":"m 410 953 q 399 998 410 981 q 361 1015 389 1015 q 324 999 342 1015 q 292 960 306 983 q 271 910 279 938 q 263 861 263 883 q 272 811 263 831 q 308 792 281 792 q 347 808 329 792 q 379 848 365 824 q 401 900 393 872 q 410 953 410 928 m 457 936 q 444 878 457 907 q 409 827 431 850 q 361 790 388 804 q 307 776 335 776 q 266 785 283 776 q 238 808 249 794 q 221 840 226 822 q 215 875 215 858 q 229 931 215 903 q 265 981 243 958 q 315 1017 288 1003 q 369 1031 343 1031 q 431 1004 406 1031 q 457 936 457 978 "},"":{"ha":386,"x_min":-26,"x_max":239,"o":"m 171 -4 l 63 -107 l 65 -110 q 97 -96 78 -103 q 140 -89 117 -89 q 175 -94 157 -89 q 207 -112 193 -100 q 230 -143 221 -124 q 239 -189 239 -162 q 226 -251 239 -224 q 190 -299 213 -279 q 138 -330 167 -319 q 76 -340 108 -340 q 11 -325 39 -340 q -26 -300 -17 -310 l -14 -283 q 20 -308 0 -294 q 71 -321 40 -321 q 115 -306 97 -321 q 142 -268 132 -290 q 157 -222 153 -246 q 161 -179 161 -197 q 110 -117 161 -117 q 72 -123 88 -117 q 49 -135 56 -129 l 32 -112 l 143 -4 l 171 -4 "},"":{"ha":386,"x_min":93,"x_max":656,"o":"m 546 960 q 581 991 565 979 q 614 1003 596 1003 q 644 992 632 1003 q 656 963 656 981 q 645 934 656 947 q 596 897 635 921 l 374 767 l 354 767 l 546 960 m 285 960 q 319 991 304 979 q 353 1003 335 1003 q 383 992 371 1003 q 394 963 394 981 q 384 934 394 947 q 335 897 374 921 l 113 767 l 93 767 l 285 960 "},"":{"ha":386,"x_min":-24,"x_max":221,"o":"m 221 0 q 115 -85 158 -43 q 72 -168 72 -128 q 92 -219 72 -200 q 142 -239 111 -239 q 183 -231 168 -239 q 208 -215 199 -222 l 218 -232 q 201 -244 211 -236 q 177 -258 192 -251 q 142 -271 163 -265 q 96 -276 122 -276 q 7 -250 38 -276 q -24 -183 -24 -224 q 8 -110 -24 -143 q 97 -49 39 -78 l 190 0 l 221 0 "},"":{"ha":386,"x_min":144,"x_max":543,"o":"m 164 1000 l 304 853 l 519 1000 l 543 1000 l 319 767 l 267 767 l 144 1000 l 164 1000 "},"":{"ha":1067,"x_min":49,"x_max":1019,"o":"m 458 0 l 49 0 l 49 226 l 71 226 q 85 183 78 200 q 103 158 93 167 q 130 146 114 149 q 171 143 146 143 l 376 143 l 376 163 q 207 242 268 193 q 110 372 146 292 q 75 539 75 453 q 129 738 75 642 q 290 885 185 833 q 533 938 394 938 q 776 886 675 938 q 936 738 883 833 q 992 539 992 644 q 956 372 992 457 q 860 242 921 290 q 692 163 799 194 l 692 143 l 897 143 q 938 146 922 143 q 965 158 954 149 q 982 183 975 167 q 996 226 989 200 l 1019 226 l 1019 0 l 608 0 l 631 197 q 756 286 713 228 q 826 540 826 385 q 749 803 826 715 q 538 890 671 890 q 329 813 399 890 q 242 542 242 715 q 269 367 242 442 q 346 249 296 292 q 438 197 376 218 l 458 0 "},"":{"ha":772,"x_min":89,"x_max":683,"o":"m 133 496 q 153 398 133 444 q 206 317 172 351 q 287 263 240 283 q 386 243 333 243 q 485 263 439 243 q 565 317 531 282 q 619 397 599 351 q 639 496 639 443 q 619 594 639 549 q 565 674 599 640 q 485 728 531 708 q 386 749 439 749 q 287 728 333 749 q 206 674 240 708 q 153 593 172 639 q 133 496 133 547 m 104 496 q 123 597 104 546 q 178 686 142 647 l 89 775 l 107 793 l 196 704 q 386 778 278 778 q 487 758 439 778 q 575 704 535 739 l 665 793 l 683 775 l 594 686 q 635 628 621 657 q 658 572 650 599 q 667 526 665 546 q 668 496 668 507 q 667 464 668 485 q 658 417 665 443 q 635 363 650 392 q 594 306 621 335 l 683 217 l 665 199 l 575 288 q 482 231 533 247 q 385 214 431 214 q 317 222 347 214 q 263 242 286 231 q 222 267 239 254 q 196 288 206 279 l 107 199 l 89 217 l 176 306 q 117 410 131 358 q 104 496 104 463 "},"":{"ha":875,"x_min":-121,"x_max":783,"o":"m 188 464 l 0 376 l 10 404 l 197 490 l 368 969 l 208 969 l 214 989 l 644 989 l 639 969 l 493 969 l 346 560 l 618 686 l 608 658 l 336 532 l 153 19 l 478 19 q 579 51 532 19 q 663 124 626 82 q 726 209 700 167 q 764 272 751 251 l 783 272 l 686 0 l -121 0 l -115 19 l 28 19 l 188 464 "},"":{"ha":386,"x_min":19,"x_max":457,"o":"m 457 1056 l 299 610 l 447 678 l 438 651 l 289 583 l 126 125 q 113 83 119 104 q 106 42 106 61 q 115 13 106 25 q 144 1 125 1 q 188 17 167 1 q 228 52 210 32 q 258 93 246 72 q 276 126 271 114 l 293 119 q 276 85 288 108 q 243 40 264 63 q 192 0 222 17 q 119 -17 161 -17 q 47 2 74 -17 q 19 65 19 21 q 28 117 19 89 q 44 169 36 146 l 174 531 l 24 461 l 33 488 l 183 557 l 354 1036 l 231 1036 l 236 1056 l 457 1056 "},"":{"ha":1001,"x_min":18,"x_max":983,"o":"m 774 143 l 532 143 q 574 210 542 167 q 651 305 607 253 q 744 413 694 357 q 838 515 794 468 q 871 550 857 536 q 896 572 885 564 q 918 583 907 579 q 943 586 929 586 q 969 582 956 586 q 983 563 983 578 q 954 531 983 547 l 875 472 l 814 422 q 569 163 654 288 l 776 163 l 833 369 l 906 369 l 849 163 l 943 163 l 938 143 l 844 143 l 810 19 l 881 19 l 875 0 l 665 0 l 671 19 l 738 19 l 774 143 m 804 989 l 829 975 l 229 -26 l 204 -12 l 804 989 m 143 688 q 207 701 168 692 q 283 731 246 710 q 344 789 322 750 q 367 872 367 828 q 351 928 367 908 q 296 949 336 949 q 240 928 256 949 q 224 879 224 908 q 215 854 224 867 q 186 842 206 842 q 146 871 146 842 q 157 906 146 889 q 188 938 168 924 q 236 960 208 951 q 296 968 264 968 q 401 938 363 968 q 439 863 439 907 q 415 797 439 825 q 360 748 392 768 q 294 715 328 728 q 239 696 260 701 l 239 693 q 290 688 264 693 q 338 671 315 683 q 374 636 360 658 q 388 579 388 614 q 365 506 388 544 q 305 435 342 467 q 222 383 268 404 q 126 363 175 363 q 74 368 94 363 q 40 382 53 374 q 23 399 28 390 q 18 417 18 408 q 28 438 18 429 q 50 446 39 446 q 75 439 65 446 q 96 413 85 432 q 119 390 108 397 q 154 382 131 382 q 212 400 183 382 q 263 447 240 418 q 301 513 286 476 q 315 585 315 549 q 292 649 315 625 q 221 674 268 674 q 175 671 196 674 q 147 665 154 668 l 143 688 "},"":{"ha":1001,"x_min":81,"x_max":983,"o":"m 774 143 l 532 143 q 574 210 542 167 q 651 305 607 253 q 744 413 694 357 q 838 515 794 468 q 871 550 857 536 q 896 572 885 564 q 918 583 907 579 q 943 586 929 586 q 969 582 956 586 q 983 563 983 578 q 954 531 983 547 l 875 472 l 814 422 q 569 163 654 288 l 776 163 l 833 369 l 906 369 l 849 163 l 943 163 l 938 143 l 844 143 l 810 19 l 881 19 l 875 0 l 665 0 l 671 19 l 738 19 l 774 143 m 804 989 l 829 975 l 229 -26 l 204 -12 l 804 989 m 171 401 l 318 901 q 281 881 301 892 q 241 860 261 871 q 202 842 221 850 q 169 828 183 833 l 164 846 q 210 865 183 853 q 266 894 236 878 q 326 930 296 911 q 382 968 356 949 l 403 968 l 239 401 l 332 401 l 326 382 l 81 382 l 86 401 l 171 401 "},"":{"ha":400,"x_min":81,"x_max":403,"o":"m 171 401 l 318 901 q 281 881 301 892 q 241 860 261 871 q 202 842 221 850 q 169 828 183 833 l 164 846 q 210 865 183 853 q 266 894 236 878 q 326 930 296 911 q 382 968 356 949 l 403 968 l 239 401 l 332 401 l 326 382 l 81 382 l 86 401 l 171 401 "},"":{"ha":824,"x_min":44,"x_max":658,"o":"m 351 315 l 63 26 l 44 46 l 332 333 l 44 621 l 63 640 l 351 351 l 640 640 l 658 621 l 371 333 l 658 46 l 640 26 l 351 315 "},"":{"ha":875,"x_min":-121,"x_max":819,"o":"m 368 969 l 208 969 l 214 989 l 644 989 l 639 969 l 493 969 l 440 821 l 486 821 q 628 801 567 821 q 733 746 690 781 q 797 665 775 711 q 819 567 819 619 q 776 428 819 488 q 667 329 733 369 q 522 269 601 289 q 368 249 442 249 q 296 252 331 249 q 239 260 261 256 l 153 19 l 311 19 l 306 0 l -121 0 l -115 19 l 26 19 l 368 969 m 246 279 q 296 272 265 276 q 358 268 326 268 q 494 298 432 268 q 599 377 556 328 q 667 490 643 426 q 692 619 692 553 q 637 756 692 711 q 486 801 582 801 l 432 801 l 246 279 "},"":{"ha":308,"x_min":140,"x_max":168,"o":"m 140 451 l 140 938 l 168 938 l 168 451 l 140 451 m 140 -242 l 140 243 l 168 243 l 168 -242 l 140 -242 "},"":{"ha":1106,"x_min":-114,"x_max":1019,"o":"m 347 540 l 553 540 l 546 521 l 340 521 l 161 21 q 243 17 201 19 q 328 14 285 14 q 394 17 364 14 q 455 29 425 21 q 516 52 485 38 q 583 89 547 67 q 717 207 658 136 q 818 363 776 278 q 881 541 860 447 q 903 726 903 635 q 870 859 903 806 q 793 936 838 913 q 721 961 760 953 q 619 969 682 969 l 500 969 l 347 540 m 214 521 l 54 521 l 61 540 l 221 540 l 375 969 l 215 969 l 221 989 l 640 989 q 810 958 739 989 q 928 874 882 926 q 997 754 975 822 q 1019 611 1019 686 q 971 389 1019 499 q 834 192 922 279 q 624 50 746 104 q 354 -4 501 -4 q 296 -3 325 -4 q 238 -1 267 -3 q 178 0 207 0 q 119 0 149 0 l -114 0 l -108 19 l 33 19 l 214 521 "},"":{"ha":1001,"x_min":81,"x_max":967,"o":"m 515 0 l 510 15 l 764 265 q 858 372 822 318 q 894 474 894 425 q 872 540 894 514 q 800 567 849 567 q 732 553 757 567 q 707 524 707 539 q 708 510 707 514 q 708 503 708 506 q 709 497 708 500 q 710 488 710 494 q 699 455 710 468 q 665 442 689 442 q 629 482 629 442 q 641 517 629 499 q 676 550 653 535 q 735 576 700 565 q 818 586 771 586 q 924 551 881 586 q 967 458 967 517 q 929 360 967 404 q 833 272 892 317 l 593 67 l 593 63 l 797 63 q 843 69 824 63 q 869 99 863 75 l 881 124 l 903 124 l 868 0 l 515 0 m 804 989 l 829 975 l 229 -26 l 204 -12 l 804 989 m 171 401 l 318 901 q 281 881 301 892 q 241 860 261 871 q 202 842 221 850 q 169 828 183 833 l 164 846 q 210 865 183 853 q 266 894 236 878 q 326 930 296 911 q 382 968 356 949 l 403 968 l 239 401 l 332 401 l 326 382 l 81 382 l 86 401 l 171 401 "},"":{"ha":824,"x_min":18,"x_max":685,"o":"m 18 346 l 685 346 l 685 321 l 18 321 l 18 346 "},"":{"ha":668,"x_min":0,"x_max":625,"o":"m 92 140 q 126 35 92 69 q 213 1 160 1 q 293 26 256 1 q 361 92 331 51 q 415 183 392 133 q 455 283 439 233 q 479 378 471 333 q 488 450 488 422 q 459 556 488 517 q 360 594 431 594 q 283 571 319 594 q 217 509 247 547 q 164 422 188 471 q 124 323 140 374 q 100 224 108 272 q 92 140 92 176 m 392 854 q 331 947 367 901 q 264 1019 294 993 l 279 1035 q 359 965 315 1010 q 440 867 403 919 l 619 915 l 625 897 l 450 850 q 490 789 467 828 q 533 697 513 750 q 569 579 554 644 q 585 440 585 514 q 548 239 585 325 q 456 96 511 153 q 335 11 400 39 q 217 -17 271 -17 q 127 3 167 -17 q 59 54 88 22 q 15 128 31 86 q 0 218 0 171 q 35 374 0 301 q 123 500 69 447 q 242 583 176 553 q 367 614 307 614 q 445 592 415 614 q 486 546 475 571 l 489 549 q 455 719 482 644 q 400 838 428 793 l 214 788 l 208 806 l 392 854 "},"":{"ha":746,"x_min":-244,"x_max":647,"o":"m 140 147 q 154 95 146 121 q 178 49 163 69 q 217 15 194 28 q 275 1 240 1 q 349 24 314 1 q 415 84 385 47 q 471 169 446 121 q 513 266 496 217 q 540 363 531 315 q 550 449 550 411 q 526 551 550 508 q 442 594 503 594 q 376 579 406 594 q 322 542 346 564 q 281 497 299 519 q 250 457 263 474 l 140 147 m 360 1036 l 233 1036 l 239 1056 l 460 1056 l 263 508 l 265 508 q 292 540 275 522 q 331 575 308 558 q 383 603 354 592 q 444 614 411 614 q 534 594 496 614 q 597 540 572 574 q 635 463 622 507 q 647 369 647 418 q 619 244 647 311 q 542 119 592 176 q 423 22 492 61 q 272 -17 354 -17 q 179 19 218 -17 q 131 114 140 54 l 128 114 l -42 -368 l 75 -368 l 69 -387 l -244 -387 l -239 -368 l -139 -368 l 360 1036 "},"":{"ha":400,"x_min":-10,"x_max":446,"o":"m -4 382 l -10 397 l 243 647 q 338 753 301 700 q 374 856 374 807 q 351 922 374 896 q 279 949 328 949 q 211 935 236 949 q 186 906 186 921 q 187 892 186 896 q 188 885 188 888 q 188 879 188 882 q 189 869 189 876 q 178 837 189 850 q 144 824 168 824 q 108 864 108 824 q 120 899 108 881 q 156 932 132 917 q 215 958 179 947 q 297 968 250 968 q 403 933 360 968 q 446 840 446 899 q 408 742 446 786 q 313 654 371 699 l 72 449 l 72 444 l 276 444 q 322 451 303 444 q 349 481 342 457 l 360 506 l 382 506 l 347 382 l -4 382 "},"":{"ha":400,"x_min":18,"x_max":439,"o":"m 143 688 q 207 701 168 692 q 283 731 246 710 q 344 789 322 750 q 367 872 367 828 q 351 928 367 908 q 296 949 336 949 q 240 928 256 949 q 224 879 224 908 q 215 854 224 867 q 186 842 206 842 q 146 871 146 842 q 157 906 146 889 q 188 938 168 924 q 236 960 208 951 q 296 968 264 968 q 401 938 363 968 q 439 863 439 907 q 415 797 439 825 q 360 748 392 768 q 294 715 328 728 q 239 696 260 701 l 239 693 q 290 688 264 693 q 338 671 315 683 q 374 636 360 658 q 388 579 388 614 q 365 506 388 544 q 305 435 342 467 q 222 383 268 404 q 126 363 175 363 q 74 368 94 363 q 40 382 53 374 q 23 399 28 390 q 18 417 18 408 q 28 438 18 429 q 50 446 39 446 q 75 439 65 446 q 96 413 85 432 q 119 390 108 397 q 154 382 131 382 q 212 400 183 382 q 263 447 240 418 q 301 513 286 476 q 315 585 315 549 q 292 649 315 625 q 221 674 268 674 q 175 671 196 674 q 147 665 154 668 l 143 688 "},"":{"ha":824,"x_min":-67,"x_max":853,"o":"m 474 1306 l 614 1158 l 829 1306 l 853 1306 l 629 1072 l 576 1072 l 454 1306 l 474 1306 m 31 274 l 49 274 q 36 234 42 253 q 31 192 31 215 q 53 108 31 144 q 111 49 75 72 q 192 13 147 25 q 282 0 236 0 q 392 17 343 0 q 474 66 440 35 q 524 140 507 97 q 542 232 542 182 q 519 323 542 283 q 456 400 496 363 l 357 490 q 252 609 290 550 q 214 743 214 668 q 240 850 214 801 q 311 933 267 899 q 413 988 356 968 q 532 1007 471 1007 q 608 999 575 1007 q 667 982 640 992 q 717 965 694 972 q 764 957 740 957 q 796 967 785 957 q 814 993 807 976 l 835 989 l 739 724 l 722 724 q 730 755 725 735 q 735 806 735 775 q 718 890 735 856 q 674 947 701 925 q 609 978 646 968 q 532 988 572 988 q 440 974 482 988 q 369 936 399 960 q 322 879 339 913 q 306 806 306 846 q 339 702 306 746 q 414 621 372 658 l 538 510 q 623 410 588 465 q 658 286 658 354 q 634 179 658 233 q 562 81 610 125 q 442 10 514 38 q 274 -18 369 -18 q 185 -10 224 -18 q 116 10 147 -1 q 58 29 85 21 q 4 38 31 38 q -29 24 -14 38 q -47 -6 -44 11 l -67 -1 l 31 274 "},"":{"ha":900,"x_min":72,"x_max":1065,"o":"m 797 1265 q 832 1297 817 1285 q 865 1308 847 1308 q 895 1297 883 1308 q 907 1268 907 1286 q 897 1240 907 1253 q 847 1203 886 1226 l 625 1072 l 606 1072 l 797 1265 m 233 19 l 386 449 l 288 969 l 136 969 l 142 989 l 569 989 l 564 969 l 410 969 l 500 493 l 924 969 l 788 969 l 793 989 l 1065 989 l 1060 969 l 951 969 l 510 471 l 347 19 l 507 19 l 501 0 l 72 0 l 78 19 l 233 19 "},"":{"ha":900,"x_min":-68,"x_max":932,"o":"m 460 1306 l 600 1158 l 815 1306 l 839 1306 l 615 1072 l 563 1072 l 440 1306 l 460 1306 m 769 969 l 474 969 q 373 939 419 969 q 290 867 326 908 q 228 784 254 826 q 190 718 203 742 l 171 718 l 267 989 l 932 989 l 93 19 l 472 19 q 572 51 526 19 q 654 124 618 82 q 716 209 690 167 q 754 272 742 251 l 774 272 l 675 0 l -68 0 l 769 969 "},"":{"ha":489,"x_min":-61,"x_max":594,"o":"m 215 1000 l 356 853 l 571 1000 l 594 1000 l 371 767 l 318 767 l 196 1000 l 215 1000 m 144 308 q 106 363 124 336 q 89 428 89 390 q 106 493 89 460 q 151 553 122 526 q 222 597 181 581 q 310 614 263 614 q 403 588 368 614 q 439 522 439 563 q 382 464 439 464 q 348 475 363 464 q 333 507 333 486 q 342 535 333 526 q 351 558 351 544 q 304 594 351 594 q 247 585 271 594 q 206 558 222 575 q 183 521 190 542 q 175 479 175 500 q 189 427 175 451 q 228 369 203 403 l 310 263 q 333 219 326 242 q 339 172 339 196 q 315 90 339 125 q 256 31 292 54 q 180 -5 221 7 q 103 -17 139 -17 q 42 -10 71 -17 q -10 10 13 -3 q -47 44 -33 24 q -61 90 -61 64 q -41 138 -61 122 q 10 154 -21 154 q 33 145 22 154 q 43 124 43 136 q 36 92 43 107 q 29 61 29 78 q 51 15 29 28 q 107 1 72 1 q 169 13 142 1 q 215 40 196 24 q 243 78 233 57 q 253 117 253 99 q 244 167 253 144 q 214 217 235 189 l 144 308 "},"":{"ha":643,"x_min":-187,"x_max":674,"o":"m 544 960 q 579 991 564 979 q 613 1003 594 1003 q 642 992 631 1003 q 654 963 654 981 q 644 934 654 947 q 594 897 633 921 l 372 767 l 353 767 l 544 960 m 3 436 q 17 489 8 458 q 41 547 25 519 q 81 594 57 575 q 143 614 106 614 q 217 591 188 614 q 265 533 247 568 q 290 458 282 499 q 297 383 297 418 q 287 226 297 292 q 267 115 276 160 l 269 115 l 482 499 q 505 540 493 519 q 532 577 517 561 q 567 603 547 593 q 614 614 588 614 q 660 597 647 614 q 674 560 674 581 q 657 517 674 533 q 613 500 640 500 q 586 525 586 500 q 594 548 586 540 q 601 568 601 556 q 582 586 601 589 q 546 562 565 585 q 496 485 526 539 l 243 26 l 163 -124 q 113 -210 139 -168 q 58 -283 88 -251 q -3 -335 29 -315 q -69 -354 -35 -354 q -155 -328 -122 -354 q -187 -258 -187 -303 q -167 -210 -187 -222 q -122 -199 -146 -199 q -93 -208 -104 -199 q -82 -233 -82 -217 q -84 -252 -82 -246 q -89 -265 -86 -258 q -94 -278 -92 -271 q -96 -300 -96 -286 q -83 -325 -96 -315 q -49 -335 -69 -335 q 33 -285 -10 -335 q 110 -153 75 -235 q 169 33 146 -72 q 192 247 192 138 q 186 424 192 356 q 172 530 181 492 q 151 581 163 568 q 128 594 140 594 q 85 576 103 594 q 54 531 67 557 q 34 476 42 504 q 22 431 26 449 l 3 436 "},"":{"ha":643,"x_min":-35,"x_max":589,"o":"m 210 1000 l 350 853 l 565 1000 l 589 1000 l 365 767 l 313 767 l 190 1000 l 210 1000 m 414 500 q 344 503 385 501 q 265 506 304 504 q 194 508 226 507 q 151 508 163 508 q 117 500 128 508 q 100 472 106 492 l 93 446 l 74 450 q 83 481 78 463 q 92 519 88 500 q 101 556 97 539 q 108 579 106 572 q 119 596 113 590 q 142 601 125 601 q 210 600 161 601 q 315 597 260 599 q 418 592 369 594 q 483 590 467 590 q 506 597 497 590 q 519 610 514 603 l 533 599 l 103 119 q 208 110 147 119 q 315 75 268 100 l 383 42 q 460 21 428 21 q 491 33 481 21 q 501 60 501 44 q 495 81 501 72 q 476 100 489 89 q 447 126 463 111 q 431 168 431 140 q 449 204 431 193 q 486 215 467 215 q 534 194 519 215 q 549 136 549 172 q 535 64 549 93 q 498 17 521 35 q 444 -9 475 -1 q 379 -17 414 -17 q 326 -10 357 -17 q 257 4 294 -4 l 190 21 q 142 31 167 28 q 85 33 117 33 q 22 16 47 33 q -18 -17 -4 -1 l -35 -4 l 414 500 "},"":{"ha":0,"x_min":-272,"x_max":-36,"o":"m -242 913 q -272 958 -272 935 q -260 990 -272 978 q -225 1003 -249 1003 q -194 992 -206 1003 q -174 965 -183 981 l -36 767 l -57 767 l -242 913 "},"":{"ha":0,"x_min":-158,"x_max":143,"o":"m 33 960 q 68 991 53 979 q 101 1003 83 1003 q 131 992 119 1003 q 143 963 143 981 q 133 934 143 947 q 83 897 122 921 l -139 767 l -158 767 l 33 960 "},"":{"ha":0,"x_min":-301,"x_max":96,"o":"m -78 1000 l -26 1000 l 96 767 l 76 767 l -64 914 l -279 767 l -301 767 l -78 1000 "},"":{"ha":0,"x_min":-289,"x_max":146,"o":"m -289 800 q -239 900 -279 863 q -150 938 -199 938 q -108 929 -125 938 q -75 914 -90 921 l -21 885 q 11 874 -1 878 q 39 869 24 869 q 70 877 56 869 q 97 896 85 885 q 116 919 108 907 q 128 942 124 932 l 146 942 q 135 904 143 928 q 110 858 126 881 q 69 817 93 835 q 10 800 44 800 q -33 805 -14 800 q -76 822 -53 810 l -112 842 q -147 860 -132 853 q -182 868 -162 868 q -215 860 -200 868 q -242 842 -231 853 q -260 820 -253 832 q -269 800 -267 808 l -289 800 "},"":{"ha":0,"x_min":-269,"x_max":138,"o":"m 138 878 l 121 836 l -269 836 l -253 878 l 138 878 "},"":{"ha":0,"x_min":-278,"x_max":117,"o":"m -258 990 q -250 943 -258 968 q -223 897 -242 918 q -174 863 -204 876 q -100 850 -143 850 q -27 862 -58 850 q 28 893 4 874 q 68 938 51 913 q 97 990 85 964 l 117 990 q 94 921 108 960 q 56 847 81 882 q -10 788 31 813 q -111 764 -50 764 q -203 790 -169 764 q -253 851 -236 815 q -274 926 -269 888 q -278 990 -278 964 l -258 990 "},"":{"ha":0,"x_min":-106,"x_max":25,"o":"m -106 924 q -87 970 -106 951 q -40 989 -68 989 q 6 970 -12 989 q 25 924 25 951 q 6 877 25 896 q -40 858 -12 858 q -87 877 -68 858 q -106 924 -106 896 "},"":{"ha":0,"x_min":-262,"x_max":124,"o":"m -7 924 q 12 970 -7 951 q 58 989 31 989 q 105 970 86 989 q 124 924 124 951 q 105 877 124 896 q 58 858 86 858 q 12 877 31 858 q -7 924 -7 896 m -262 924 q -244 970 -262 951 q -197 989 -225 989 q -151 970 -169 989 q -132 924 -132 951 q -151 877 -132 896 q -197 858 -169 858 q -244 877 -225 858 q -262 924 -262 896 "},"":{"ha":0,"x_min":-167,"x_max":75,"o":"m 28 953 q 17 998 28 981 q -21 1015 7 1015 q -58 999 -40 1015 q -90 960 -76 983 q -111 910 -103 938 q -119 861 -119 883 q -110 811 -119 831 q -74 792 -101 792 q -35 808 -53 792 q -3 848 -17 824 q 19 900 11 872 q 28 953 28 928 m 75 936 q 62 878 75 907 q 27 827 49 850 q -21 790 6 804 q -75 776 -47 776 q -116 785 -99 776 q -144 808 -133 794 q -161 840 -156 822 q -167 875 -167 858 q -153 931 -167 903 q -117 981 -139 958 q -67 1017 -94 1003 q -12 1031 -39 1031 q 49 1004 24 1031 q 75 936 75 978 "},"":{"ha":0,"x_min":-289,"x_max":274,"o":"m 164 960 q 199 991 183 979 q 232 1003 214 1003 q 262 992 250 1003 q 274 963 274 981 q 263 934 274 947 q 214 897 253 921 l -8 767 l -28 767 l 164 960 m -97 960 q -62 991 -78 979 q -29 1003 -47 1003 q 1 992 -11 1003 q 13 963 13 981 q 2 934 13 947 q -47 897 -8 921 l -269 767 l -289 767 l -97 960 "},"":{"ha":0,"x_min":-237,"x_max":161,"o":"m -218 1000 l -78 853 l 138 1000 l 161 1000 l -62 767 l -115 767 l -237 1000 l -218 1000 "},"":{"ha":0,"x_min":-408,"x_max":-143,"o":"m -211 -4 l -319 -107 l -317 -110 q -285 -96 -304 -103 q -242 -89 -265 -89 q -207 -94 -225 -89 q -175 -112 -189 -100 q -152 -143 -161 -124 q -143 -189 -143 -162 q -156 -251 -143 -224 q -192 -299 -169 -279 q -244 -330 -215 -319 q -306 -340 -274 -340 q -371 -325 -343 -340 q -408 -300 -399 -310 l -396 -283 q -362 -308 -382 -294 q -311 -321 -342 -321 q -267 -306 -285 -321 q -240 -268 -250 -290 q -225 -222 -229 -246 q -221 -179 -221 -197 q -272 -117 -221 -117 q -310 -123 -294 -117 q -333 -135 -326 -129 l -350 -112 l -239 -4 l -211 -4 "},"":{"ha":0,"x_min":-406,"x_max":-161,"o":"m -161 0 q -267 -85 -224 -43 q -310 -168 -310 -128 q -290 -219 -310 -200 q -240 -239 -271 -239 q -199 -231 -214 -239 q -174 -215 -183 -222 l -164 -232 q -181 -244 -171 -236 q -205 -258 -190 -251 q -240 -271 -219 -265 q -286 -276 -260 -276 q -375 -250 -344 -276 q -406 -183 -406 -224 q -374 -110 -406 -143 q -285 -49 -343 -78 l -192 0 l -161 0 "},"":{"ha":0,"x_min":-512,"x_max":111,"o":"m 86 1014 l 111 1000 l -487 -25 l -512 -11 l 86 1014 "},"":{"ha":540,"x_min":-114,"x_max":715,"o":"m -108 19 l 33 19 l 375 969 l 215 969 l 221 989 l 651 989 l 646 969 l 500 969 l 160 19 l 318 19 l 313 0 l -114 0 l -108 19 m 340 1306 q 349 1258 340 1283 q 376 1213 357 1233 q 425 1178 394 1192 q 499 1165 456 1165 q 572 1177 540 1165 q 626 1208 603 1189 q 667 1253 650 1228 q 696 1306 683 1279 l 715 1306 q 693 1236 707 1275 q 654 1163 679 1197 q 589 1103 629 1128 q 488 1079 549 1079 q 396 1105 429 1079 q 346 1167 363 1131 q 325 1241 329 1203 q 321 1306 321 1279 l 340 1306 "},"":{"ha":386,"x_min":19,"x_max":483,"o":"m 188 576 l 64 576 l 69 596 l 290 596 l 126 125 q 113 83 119 104 q 106 42 106 61 q 115 13 106 25 q 144 1 125 1 q 188 17 167 1 q 228 52 210 32 q 258 93 246 72 q 276 126 271 114 l 293 119 q 276 85 288 108 q 243 40 264 63 q 192 0 222 17 q 119 -17 161 -17 q 47 2 74 -17 q 19 65 19 21 q 28 117 19 89 q 44 169 36 146 l 188 576 m 108 928 q 117 881 108 906 q 144 835 125 856 q 193 801 163 814 q 267 788 224 788 q 340 799 308 788 q 394 831 371 811 q 435 876 418 850 q 464 928 451 901 l 483 928 q 461 858 475 897 q 422 785 447 819 q 357 726 397 750 q 256 701 317 701 q 164 727 197 701 q 114 789 131 753 q 93 863 97 825 q 89 928 89 901 l 108 928 "},"":{"ha":386,"x_min":221,"x_max":425,"o":"m 425 1038 q 388 1020 411 1032 q 341 990 364 1008 q 301 945 318 971 q 285 888 285 919 q 292 840 285 858 q 298 843 294 842 q 307 847 301 844 q 318 849 313 849 q 332 850 324 850 q 372 832 358 850 q 386 793 386 814 q 367 740 386 760 q 313 719 349 719 q 246 749 271 719 q 221 822 221 778 q 247 924 221 882 q 308 994 274 967 q 374 1037 342 1022 q 419 1056 407 1051 l 425 1038 "},"":{"ha":386,"x_min":221,"x_max":425,"o":"m 221 738 q 258 755 235 743 q 305 785 282 767 q 344 830 328 804 q 361 888 361 856 q 354 935 361 917 q 348 932 351 933 q 339 928 344 931 q 328 926 333 926 q 314 925 322 925 q 274 943 288 925 q 260 982 260 961 q 278 1035 260 1015 q 333 1056 297 1056 q 400 1026 375 1056 q 425 953 425 997 q 399 851 425 893 q 338 781 372 808 q 272 738 304 753 q 226 719 239 724 l 221 738 "},"":{"ha":0,"x_min":0,"x_max":0,"o":""},"":{"ha":0,"x_min":0,"x_max":0,"o":""},"":{"ha":0,"x_min":0,"x_max":0,"o":""},"":{"ha":0,"x_min":0,"x_max":0,"o":""},"":{"ha":0,"x_min":0,"x_max":0,"o":""},"":{"ha":514,"x_min":72,"x_max":336,"o":"m 94 339 l 336 339 l 314 256 l 72 256 l 94 339 "},"":{"ha":514,"x_min":72,"x_max":336,"o":"m 94 339 l 336 339 l 314 256 l 72 256 l 94 339 "},"":{"ha":694,"x_min":-36,"x_max":663,"o":"m -31 311 l 663 311 l 657 292 l -36 292 l -31 311 "},"":{"ha":1389,"x_min":143,"x_max":1176,"o":"m 149 311 l 1176 311 l 1171 292 l 143 292 l 149 311 "},"":{"ha":939,"x_min":167,"x_max":760,"o":"m 629 47 q 648 2 629 19 q 694 -15 667 -15 q 741 2 722 -15 q 760 47 760 19 q 741 94 760 75 q 694 113 722 113 q 648 94 667 113 q 629 47 629 75 m 167 47 q 185 2 167 19 q 232 -15 204 -15 q 278 2 260 -15 q 297 47 297 19 q 278 94 297 75 q 232 113 260 113 q 185 94 204 113 q 167 47 167 75 "},"":{"ha":453,"x_min":167,"x_max":297,"o":"m 167 47 q 185 2 167 19 q 232 -15 204 -15 q 278 2 260 -15 q 297 47 297 19 q 278 94 297 75 q 232 113 260 113 q 185 94 204 113 q 167 47 167 75 "},"":{"ha":1913,"x_min":68,"x_max":1821,"o":"m 478 108 q 488 210 478 154 q 518 314 497 265 q 574 395 539 363 q 658 428 608 428 q 732 400 710 428 q 754 324 754 372 q 751 288 754 315 q 741 225 749 261 q 721 149 733 189 q 688 76 708 110 q 638 22 667 43 q 571 0 610 0 q 499 32 519 0 q 478 108 478 64 m 400 153 q 446 24 400 65 q 563 -17 492 -17 q 676 10 626 -17 q 761 81 726 38 q 814 178 796 125 q 832 279 832 231 q 821 344 832 314 q 788 398 810 375 q 735 434 767 421 q 664 447 704 447 q 548 415 597 447 q 466 338 499 383 q 417 241 433 292 q 400 153 400 190 m 68 683 q 111 553 68 596 q 231 511 154 511 q 344 540 294 511 q 429 612 394 568 q 482 708 464 656 q 500 810 500 761 q 492 870 500 840 q 463 924 483 900 q 411 963 443 949 q 332 978 379 978 q 216 946 265 978 q 134 868 167 914 q 85 772 101 822 q 68 683 68 721 m 146 639 q 156 740 146 685 q 186 844 165 796 q 242 926 207 893 q 326 958 276 958 q 400 931 378 958 q 422 854 422 903 q 419 819 422 846 q 409 756 417 792 q 389 680 401 719 q 356 607 376 640 q 306 552 335 574 q 239 531 278 531 q 167 563 188 531 q 146 639 146 594 m 967 108 q 976 210 967 154 q 1007 314 986 265 q 1063 395 1028 363 q 1147 428 1097 428 q 1221 400 1199 428 q 1243 324 1243 372 q 1240 288 1243 315 q 1230 225 1238 261 q 1210 149 1222 189 q 1176 76 1197 110 q 1127 22 1156 43 q 1060 0 1099 0 q 988 32 1008 0 q 967 108 967 64 m 764 989 l 740 1004 l 139 0 l 163 -14 l 764 989 m 889 153 q 935 24 889 65 q 1051 -17 981 -17 q 1165 10 1115 -17 q 1250 81 1215 38 q 1303 178 1285 125 q 1321 279 1321 231 q 1310 344 1321 314 q 1277 398 1299 375 q 1224 434 1256 421 q 1153 447 1193 447 q 1037 415 1086 447 q 955 338 988 383 q 906 241 922 292 q 889 153 889 190 m 1467 110 q 1476 211 1467 156 q 1507 315 1486 267 q 1563 397 1528 364 q 1647 429 1597 429 q 1721 401 1699 429 q 1743 325 1743 374 q 1740 290 1743 317 q 1730 226 1738 263 q 1710 151 1722 190 q 1676 78 1697 111 q 1627 23 1656 44 q 1560 1 1599 1 q 1488 33 1508 1 q 1467 110 1467 65 m 1389 154 q 1435 26 1389 67 q 1551 -15 1481 -15 q 1665 12 1615 -15 q 1750 83 1715 39 q 1803 179 1785 126 q 1821 281 1821 232 q 1810 346 1821 315 q 1777 399 1799 376 q 1724 435 1756 422 q 1653 449 1693 449 q 1537 417 1586 449 q 1455 339 1488 385 q 1406 242 1422 293 q 1389 154 1389 192 "},"":{"ha":863,"x_min":47,"x_max":797,"o":"m 429 47 q 448 94 429 75 q 494 113 467 113 q 541 94 522 113 q 560 47 560 75 q 541 1 560 19 q 494 -17 522 -17 q 448 1 467 -17 q 429 47 429 19 m 671 940 q 697 994 678 981 q 736 1007 715 1007 q 778 994 760 1007 q 797 953 797 982 q 792 920 797 938 q 778 879 786 903 l 556 247 l 546 247 l 671 940 m 47 47 q 66 94 47 75 q 113 113 85 113 q 159 94 140 113 q 178 47 178 75 q 159 1 178 19 q 113 -17 140 -17 q 66 1 85 -17 q 47 47 47 19 m 289 940 q 315 994 296 981 q 354 1007 333 1007 q 397 994 378 1007 q 415 953 415 982 q 410 920 415 938 q 396 879 404 903 l 174 247 l 164 247 l 289 940 "},"":{"ha":514,"x_min":72,"x_max":336,"o":"m 94 339 l 336 339 l 314 256 l 72 256 l 94 339 "},"":{"ha":1000,"x_min":69,"x_max":929,"o":"m 69 47 q 88 94 69 75 q 135 113 107 113 q 181 94 163 113 q 200 47 200 75 q 181 1 200 19 q 135 -17 163 -17 q 88 1 107 -17 q 69 47 69 19 m 200 324 q 217 385 207 354 q 258 450 228 415 l 367 575 q 463 731 436 654 q 489 861 489 807 q 451 959 489 931 q 363 988 413 988 q 267 951 292 988 q 242 851 242 914 q 229 815 242 831 q 185 800 217 800 q 148 819 160 800 q 136 853 136 838 q 152 905 136 878 q 197 955 168 932 q 267 992 226 978 q 360 1007 308 1007 q 458 992 415 1007 q 528 950 500 976 q 572 888 557 924 q 586 811 586 853 q 583 769 586 794 q 569 715 581 744 q 536 655 558 686 q 476 594 514 624 l 369 515 q 326 483 349 500 q 284 445 304 467 q 247 397 264 424 q 222 338 231 371 l 199 249 l 181 249 l 200 324 m 561 47 q 580 94 561 75 q 626 113 599 113 q 673 94 654 113 q 692 47 692 75 q 673 1 692 19 q 626 -17 654 -17 q 580 1 599 -17 q 561 47 561 19 m 803 940 q 828 994 810 981 q 868 1007 847 1007 q 910 994 892 1007 q 929 953 929 982 q 924 920 929 938 q 910 879 918 903 l 688 247 l 678 247 l 803 940 "},"":{"ha":1042,"x_min":47,"x_max":953,"o":"m 47 47 q 66 94 47 75 q 113 113 85 113 q 159 94 140 113 q 178 47 178 75 q 159 1 178 19 q 113 -17 140 -17 q 66 1 85 -17 q 47 47 47 19 m 289 940 q 315 994 296 981 q 354 1007 333 1007 q 397 994 378 1007 q 415 953 415 982 q 410 920 415 938 q 396 879 404 903 l 174 247 l 164 247 l 289 940 m 436 47 q 455 94 436 75 q 501 113 474 113 q 548 94 529 113 q 567 47 567 75 q 548 1 567 19 q 501 -17 529 -17 q 455 1 474 -17 q 436 47 436 19 m 567 324 q 584 385 574 354 q 625 450 594 415 l 733 575 q 829 731 803 654 q 856 861 856 807 q 817 959 856 931 q 729 988 779 988 q 633 951 658 988 q 608 851 608 914 q 596 815 608 831 q 551 800 583 800 q 515 819 526 800 q 503 853 503 838 q 519 905 503 878 q 564 955 535 932 q 634 992 593 978 q 726 1007 675 1007 q 824 992 782 1007 q 895 950 867 976 q 938 888 924 924 q 953 811 953 853 q 950 769 953 794 q 936 715 947 744 q 903 655 925 686 q 843 594 881 624 l 736 515 q 693 483 715 500 q 651 445 671 467 q 614 397 631 424 q 589 338 597 371 l 565 249 l 547 249 l 567 324 "},"":{"ha":1051,"x_min":161,"x_max":958,"o":"m 308 206 l 471 969 l 597 969 l 435 206 q 402 29 414 106 q 394 -101 390 -47 q 424 -188 399 -156 q 500 -235 449 -221 q 349 -186 397 -231 q 287 -77 300 -142 q 284 63 274 -12 q 308 206 294 138 m 351 969 l 189 206 q 174 -17 161 75 q 254 -171 186 -110 q 322 -215 286 -199 q 390 -240 357 -232 q 451 -251 422 -249 q 497 -254 479 -254 q 590 -239 554 -254 q 647 -203 626 -224 q 676 -162 668 -182 q 688 -132 685 -142 q 678 -79 694 -97 q 629 -61 661 -61 q 583 -72 601 -61 q 561 -103 565 -83 q 561 -118 561 -107 q 562 -140 561 -129 q 563 -161 563 -151 q 563 -175 564 -171 q 549 -201 561 -186 q 510 -215 536 -215 q 488 -211 501 -215 q 460 -195 474 -207 q 435 -163 447 -183 q 418 -111 424 -143 q 416 -48 414 -85 q 424 31 418 -11 q 438 117 429 72 q 456 206 447 163 l 499 403 q 596 409 543 404 q 713 436 649 414 q 788 476 751 450 q 856 535 825 501 q 908 612 886 569 q 940 700 931 654 q 931 850 958 783 q 838 949 903 917 q 782 971 810 963 q 726 983 754 979 q 667 988 697 988 q 601 989 636 989 l 247 989 l 243 969 l 351 969 "},"":{"ha":386,"x_min":269,"x_max":499,"o":"m 382 621 l 399 638 q 344 694 364 667 q 315 745 324 721 q 305 789 306 769 q 307 822 304 808 q 347 894 317 867 q 400 860 364 860 q 456 879 426 860 q 492 935 485 899 q 479 990 499 967 q 424 1014 460 1014 q 373 1001 397 1014 q 329 969 349 989 q 297 924 310 950 q 278 871 283 897 q 278 791 269 831 q 303 718 286 751 q 342 660 319 685 q 382 621 364 635 "},"":{"ha":617,"x_min":260,"x_max":740,"o":"m 369 635 l 383 649 q 349 685 367 665 q 318 728 332 704 q 298 777 304 751 q 297 832 292 803 q 317 876 304 860 q 335 900 329 893 q 352 878 340 890 q 388 865 364 865 q 443 885 418 865 q 475 938 468 904 q 465 990 482 965 q 411 1014 447 1014 q 351 999 376 1014 q 308 962 325 983 q 282 917 292 940 q 269 881 272 894 q 267 798 260 836 q 292 728 275 760 q 331 673 310 697 q 369 635 351 649 m 628 635 l 642 649 q 608 685 625 665 q 576 728 590 704 q 556 777 563 751 q 556 832 550 803 q 575 876 563 860 q 593 900 588 893 q 610 878 599 890 q 646 865 622 865 q 701 885 676 865 q 733 938 726 904 q 723 990 740 965 q 669 1014 706 1014 q 609 999 635 1014 q 567 962 583 983 q 540 917 550 940 q 528 881 531 894 q 526 798 518 836 q 551 728 533 760 q 589 673 568 697 q 628 635 610 649 "},"":{"ha":1003,"x_min":-121,"x_max":958,"o":"m 617 850 l 614 850 l 317 428 l 622 428 l 617 850 m -115 19 l 3 19 l 700 1011 l 732 1011 l 757 19 l 907 19 l 901 0 l 474 0 l 479 19 l 631 19 l 622 408 l 303 408 l 31 19 l 171 19 l 165 0 l -121 0 l -115 19 m 958 1183 l 942 1142 l 551 1142 l 568 1183 l 958 1183 "},"":{"ha":746,"x_min":-1,"x_max":769,"o":"m 493 414 q 515 477 510 458 q 519 510 519 496 q 516 537 519 522 q 503 564 513 551 q 479 585 494 576 q 439 594 464 594 q 349 569 393 594 q 267 501 306 543 q 197 406 229 460 q 142 298 165 353 q 107 192 119 243 q 94 101 94 140 q 112 29 94 57 q 169 1 129 1 q 251 26 210 1 q 328 86 293 51 q 388 156 363 121 q 419 210 413 190 l 493 414 m 504 175 q 483 106 492 139 q 474 46 474 72 q 508 10 474 10 q 558 26 536 10 q 597 62 581 42 q 623 102 613 82 q 638 131 633 122 l 656 121 q 635 82 649 106 q 599 37 621 58 q 547 -1 576 15 q 479 -17 518 -17 q 388 67 388 -17 q 392 101 388 76 q 403 144 396 125 l 400 144 q 356 92 381 121 q 299 40 331 64 q 231 -1 268 15 q 147 -17 193 -17 q 91 -6 118 -17 q 43 26 64 4 q 10 81 22 47 q -1 160 -1 114 q 21 271 -1 215 q 78 377 43 326 q 160 471 114 428 q 255 546 207 514 q 349 596 303 578 q 432 614 396 614 q 503 590 474 614 q 532 528 532 567 l 535 528 l 558 596 l 656 596 l 504 175 m 769 878 l 753 836 l 363 836 l 379 878 l 769 878 "},"":{"ha":1003,"x_min":-121,"x_max":956,"o":"m 617 850 l 614 850 l 317 428 l 622 428 l 617 850 m -115 19 l 3 19 l 700 1011 l 732 1011 l 757 19 l 907 19 l 901 0 l 474 0 l 479 19 l 631 19 l 622 408 l 303 408 l 31 19 l 171 19 l 165 0 l -121 0 l -115 19 m 581 1296 q 589 1249 581 1274 q 616 1203 597 1224 q 665 1169 635 1182 q 739 1156 696 1156 q 812 1167 781 1156 q 867 1199 843 1179 q 907 1244 890 1218 q 936 1296 924 1269 l 956 1296 q 933 1226 947 1265 q 894 1153 919 1188 q 829 1094 869 1118 q 728 1069 789 1069 q 636 1095 669 1069 q 586 1157 603 1121 q 565 1231 569 1193 q 561 1296 561 1269 l 581 1296 "},"":{"ha":746,"x_min":-1,"x_max":749,"o":"m 493 414 q 515 477 510 458 q 519 510 519 496 q 516 537 519 522 q 503 564 513 551 q 479 585 494 576 q 439 594 464 594 q 349 569 393 594 q 267 501 306 543 q 197 406 229 460 q 142 298 165 353 q 107 192 119 243 q 94 101 94 140 q 112 29 94 57 q 169 1 129 1 q 251 26 210 1 q 328 86 293 51 q 388 156 363 121 q 419 210 413 190 l 493 414 m 504 175 q 483 106 492 139 q 474 46 474 72 q 508 10 474 10 q 558 26 536 10 q 597 62 581 42 q 623 102 613 82 q 638 131 633 122 l 656 121 q 635 82 649 106 q 599 37 621 58 q 547 -1 576 15 q 479 -17 518 -17 q 388 67 388 -17 q 392 101 388 76 q 403 144 396 125 l 400 144 q 356 92 381 121 q 299 40 331 64 q 231 -1 268 15 q 147 -17 193 -17 q 91 -6 118 -17 q 43 26 64 4 q 10 81 22 47 q -1 160 -1 114 q 21 271 -1 215 q 78 377 43 326 q 160 471 114 428 q 255 546 207 514 q 349 596 303 578 q 432 614 396 614 q 503 590 474 614 q 532 528 532 567 l 535 528 l 558 596 l 656 596 l 504 175 m 374 990 q 382 943 374 968 q 409 897 390 918 q 458 863 428 876 q 532 850 489 850 q 605 862 574 850 q 660 893 636 874 q 700 938 683 913 q 729 990 717 964 l 749 990 q 726 921 740 960 q 688 847 713 882 q 622 788 663 813 q 521 764 582 764 q 429 790 463 764 q 379 851 396 815 q 358 926 363 888 q 354 990 354 964 l 374 990 "},"":{"ha":1003,"x_min":-121,"x_max":907,"o":"m 617 850 l 614 850 l 317 428 l 622 428 l 617 850 m -115 19 l 3 19 l 700 1011 l 732 1011 l 757 19 l 907 19 l 901 0 l 474 0 l 479 19 l 631 19 l 622 408 l 303 408 l 31 19 l 171 19 l 165 0 l -121 0 l -115 19 m 815 0 q 710 -85 753 -43 q 667 -168 667 -128 q 686 -219 667 -200 q 736 -239 706 -239 q 778 -231 763 -239 q 803 -215 793 -222 l 813 -232 q 796 -244 806 -236 q 772 -258 786 -251 q 737 -271 757 -265 q 690 -276 717 -276 q 601 -250 632 -276 q 571 -183 571 -224 q 602 -110 571 -143 q 692 -49 633 -78 l 785 0 l 815 0 "},"":{"ha":746,"x_min":-24,"x_max":656,"o":"m 493 414 q 515 477 510 458 q 519 510 519 496 q 516 537 519 522 q 503 564 513 551 q 479 585 494 576 q 439 594 464 594 q 349 569 393 594 q 267 501 306 543 q 197 406 229 460 q 142 298 165 353 q 107 192 119 243 q 94 101 94 140 q 112 29 94 57 q 169 1 129 1 q 251 26 210 1 q 328 86 293 51 q 388 156 363 121 q 419 210 413 190 l 493 414 m 504 175 q 483 106 492 139 q 474 46 474 72 q 508 10 474 10 q 558 26 536 10 q 597 62 581 42 q 623 102 613 82 q 638 131 633 122 l 656 121 q 635 82 649 106 q 599 37 621 58 q 547 -1 576 15 q 479 -17 518 -17 q 388 67 388 -17 q 392 101 388 76 q 403 144 396 125 l 400 144 q 356 92 381 121 q 299 40 331 64 q 231 -1 268 15 q 147 -17 193 -17 q 91 -6 118 -17 q 43 26 64 4 q 10 81 22 47 q -1 160 -1 114 q 21 271 -1 215 q 78 377 43 326 q 160 471 114 428 q 255 546 207 514 q 349 596 303 578 q 432 614 396 614 q 503 590 474 614 q 532 528 532 567 l 535 528 l 558 596 l 656 596 l 504 175 m 221 0 q 115 -85 158 -43 q 72 -168 72 -128 q 92 -219 72 -200 q 142 -239 111 -239 q 183 -231 168 -239 q 208 -215 199 -222 l 218 -232 q 201 -244 211 -236 q 177 -258 192 -251 q 142 -271 163 -265 q 96 -276 122 -276 q 7 -250 38 -276 q -24 -183 -24 -224 q 8 -110 -24 -143 q 97 -49 39 -78 l 190 0 l 221 0 "},"":{"ha":900,"x_min":81,"x_max":974,"o":"m 878 721 l 860 721 q 865 761 863 735 q 868 815 868 788 q 851 892 868 860 q 806 946 835 925 q 739 977 778 967 q 656 988 700 988 q 521 946 583 988 q 406 838 458 904 q 313 687 354 771 q 244 518 272 603 q 201 356 215 433 q 186 222 186 278 q 247 55 186 110 q 421 0 308 0 q 532 22 483 0 q 618 76 581 44 q 681 146 656 108 q 724 214 707 183 l 742 204 q 711 151 733 188 q 649 76 689 114 q 553 10 610 39 q 418 -18 496 -18 q 259 16 324 -18 q 155 105 194 50 q 98 231 115 160 q 81 376 81 301 q 106 540 81 461 q 176 690 132 619 q 278 818 219 760 q 401 918 336 876 q 532 983 465 960 q 660 1007 599 1007 q 740 999 706 1007 q 802 980 775 990 q 851 961 829 969 q 894 953 874 953 q 931 965 917 953 q 953 993 944 976 l 974 989 l 878 721 m 815 1265 q 850 1297 835 1285 q 883 1308 865 1308 q 913 1297 901 1308 q 925 1268 925 1286 q 915 1240 925 1253 q 865 1203 904 1226 l 643 1072 l 624 1072 l 815 1265 "},"":{"ha":565,"x_min":14,"x_max":540,"o":"m 478 136 q 438 83 461 110 q 385 33 415 56 q 317 -3 356 11 q 229 -17 278 -17 q 138 0 178 -17 q 70 45 97 17 q 28 111 43 74 q 14 192 14 149 q 47 337 14 263 q 136 473 81 411 q 263 574 192 535 q 411 614 335 614 q 458 608 435 614 q 499 590 481 603 q 528 556 517 578 q 540 503 540 535 q 517 443 540 457 q 469 429 494 429 q 435 440 444 429 q 425 464 425 450 q 431 491 425 481 q 444 510 436 501 q 457 528 451 518 q 463 556 463 539 q 447 586 463 578 q 403 594 431 594 q 319 572 358 594 q 248 513 281 550 q 190 429 215 476 q 147 332 165 382 q 120 233 129 282 q 111 144 111 185 q 145 43 111 85 q 250 1 179 1 q 322 16 289 1 q 381 53 354 31 q 426 101 407 75 q 458 147 446 126 l 478 136 m 415 960 q 450 991 435 979 q 483 1003 465 1003 q 513 992 501 1003 q 525 963 525 981 q 515 934 525 947 q 465 897 504 921 l 243 767 l 224 767 l 415 960 "},"":{"ha":900,"x_min":81,"x_max":974,"o":"m 878 721 l 860 721 q 865 761 863 735 q 868 815 868 788 q 851 892 868 860 q 806 946 835 925 q 739 977 778 967 q 656 988 700 988 q 521 946 583 988 q 406 838 458 904 q 313 687 354 771 q 244 518 272 603 q 201 356 215 433 q 186 222 186 278 q 247 55 186 110 q 421 0 308 0 q 532 22 483 0 q 618 76 581 44 q 681 146 656 108 q 724 214 707 183 l 742 204 q 711 151 733 188 q 649 76 689 114 q 553 10 610 39 q 418 -18 496 -18 q 259 16 324 -18 q 155 105 194 50 q 98 231 115 160 q 81 376 81 301 q 106 540 81 461 q 176 690 132 619 q 278 818 219 760 q 401 918 336 876 q 532 983 465 960 q 660 1007 599 1007 q 740 999 706 1007 q 802 980 775 990 q 851 961 829 969 q 894 953 874 953 q 931 965 917 953 q 953 993 944 976 l 974 989 l 878 721 m 767 1306 l 818 1306 l 940 1072 l 921 1072 l 781 1219 l 565 1072 l 543 1072 l 767 1306 "},"":{"ha":565,"x_min":14,"x_max":604,"o":"m 478 136 q 438 83 461 110 q 385 33 415 56 q 317 -3 356 11 q 229 -17 278 -17 q 138 0 178 -17 q 70 45 97 17 q 28 111 43 74 q 14 192 14 149 q 47 337 14 263 q 136 473 81 411 q 263 574 192 535 q 411 614 335 614 q 458 608 435 614 q 499 590 481 603 q 528 556 517 578 q 540 503 540 535 q 517 443 540 457 q 469 429 494 429 q 435 440 444 429 q 425 464 425 450 q 431 491 425 481 q 444 510 436 501 q 457 528 451 518 q 463 556 463 539 q 447 586 463 578 q 403 594 431 594 q 319 572 358 594 q 248 513 281 550 q 190 429 215 476 q 147 332 165 382 q 120 233 129 282 q 111 144 111 185 q 145 43 111 85 q 250 1 179 1 q 322 16 289 1 q 381 53 354 31 q 426 101 407 75 q 458 147 446 126 l 478 136 m 431 1000 l 482 1000 l 604 767 l 585 767 l 444 914 l 229 767 l 207 767 l 431 1000 "},"":{"ha":900,"x_min":81,"x_max":974,"o":"m 878 721 l 860 721 q 865 761 863 735 q 868 815 868 788 q 851 892 868 860 q 806 946 835 925 q 739 977 778 967 q 656 988 700 988 q 521 946 583 988 q 406 838 458 904 q 313 687 354 771 q 244 518 272 603 q 201 356 215 433 q 186 222 186 278 q 247 55 186 110 q 421 0 308 0 q 532 22 483 0 q 618 76 581 44 q 681 146 656 108 q 724 214 707 183 l 742 204 q 711 151 733 188 q 649 76 689 114 q 553 10 610 39 q 418 -18 496 -18 q 259 16 324 -18 q 155 105 194 50 q 98 231 115 160 q 81 376 81 301 q 106 540 81 461 q 176 690 132 619 q 278 818 219 760 q 401 918 336 876 q 532 983 465 960 q 660 1007 599 1007 q 740 999 706 1007 q 802 980 775 990 q 851 961 829 969 q 894 953 874 953 q 931 965 917 953 q 953 993 944 976 l 974 989 l 878 721 m 715 1229 q 734 1276 715 1257 q 781 1294 753 1294 q 827 1276 808 1294 q 846 1229 846 1257 q 827 1183 846 1201 q 781 1164 808 1164 q 734 1183 753 1164 q 715 1229 715 1201 "},"":{"ha":565,"x_min":14,"x_max":540,"o":"m 478 136 q 438 83 461 110 q 385 33 415 56 q 317 -3 356 11 q 229 -17 278 -17 q 138 0 178 -17 q 70 45 97 17 q 28 111 43 74 q 14 192 14 149 q 47 337 14 263 q 136 473 81 411 q 263 574 192 535 q 411 614 335 614 q 458 608 435 614 q 499 590 481 603 q 528 556 517 578 q 540 503 540 535 q 517 443 540 457 q 469 429 494 429 q 435 440 444 429 q 425 464 425 450 q 431 491 425 481 q 444 510 436 501 q 457 528 451 518 q 463 556 463 539 q 447 586 463 578 q 403 594 431 594 q 319 572 358 594 q 248 513 281 550 q 190 429 215 476 q 147 332 165 382 q 120 233 129 282 q 111 144 111 185 q 145 43 111 85 q 250 1 179 1 q 322 16 289 1 q 381 53 354 31 q 426 101 407 75 q 458 147 446 126 l 478 136 m 399 924 q 417 970 399 951 q 464 989 436 989 q 510 970 492 989 q 529 924 529 951 q 510 877 529 896 q 464 858 492 858 q 417 877 436 858 q 399 924 399 896 "},"":{"ha":900,"x_min":81,"x_max":974,"o":"m 878 721 l 860 721 q 865 761 863 735 q 868 815 868 788 q 851 892 868 860 q 806 946 835 925 q 739 977 778 967 q 656 988 700 988 q 521 946 583 988 q 406 838 458 904 q 313 687 354 771 q 244 518 272 603 q 201 356 215 433 q 186 222 186 278 q 247 55 186 110 q 421 0 308 0 q 532 22 483 0 q 618 76 581 44 q 681 146 656 108 q 724 214 707 183 l 742 204 q 711 151 733 188 q 649 76 689 114 q 553 10 610 39 q 418 -18 496 -18 q 259 16 324 -18 q 155 105 194 50 q 98 231 115 160 q 81 376 81 301 q 106 540 81 461 q 176 690 132 619 q 278 818 219 760 q 401 918 336 876 q 532 983 465 960 q 660 1007 599 1007 q 740 999 706 1007 q 802 980 775 990 q 851 961 829 969 q 894 953 874 953 q 931 965 917 953 q 953 993 944 976 l 974 989 l 878 721 m 565 1306 l 706 1158 l 921 1306 l 944 1306 l 721 1072 l 668 1072 l 546 1306 l 565 1306 "},"":{"ha":565,"x_min":14,"x_max":665,"o":"m 478 136 q 438 83 461 110 q 385 33 415 56 q 317 -3 356 11 q 229 -17 278 -17 q 138 0 178 -17 q 70 45 97 17 q 28 111 43 74 q 14 192 14 149 q 47 337 14 263 q 136 473 81 411 q 263 574 192 535 q 411 614 335 614 q 458 608 435 614 q 499 590 481 603 q 528 556 517 578 q 540 503 540 535 q 517 443 540 457 q 469 429 494 429 q 435 440 444 429 q 425 464 425 450 q 431 491 425 481 q 444 510 436 501 q 457 528 451 518 q 463 556 463 539 q 447 586 463 578 q 403 594 431 594 q 319 572 358 594 q 248 513 281 550 q 190 429 215 476 q 147 332 165 382 q 120 233 129 282 q 111 144 111 185 q 145 43 111 85 q 250 1 179 1 q 322 16 289 1 q 381 53 354 31 q 426 101 407 75 q 458 147 446 126 l 478 136 m 286 1000 l 426 853 l 642 1000 l 665 1000 l 442 767 l 389 767 l 267 1000 l 286 1000 "},"":{"ha":1106,"x_min":-114,"x_max":1019,"o":"m 161 21 q 243 17 201 19 q 328 14 285 14 q 394 17 364 14 q 455 29 425 21 q 516 52 485 38 q 583 89 547 67 q 717 207 658 136 q 818 363 776 278 q 881 541 860 447 q 903 726 903 635 q 870 859 903 806 q 793 936 838 913 q 721 961 760 953 q 619 969 682 969 l 500 969 l 161 21 m 375 969 l 215 969 l 221 989 l 640 989 q 810 958 739 989 q 928 874 882 926 q 997 754 975 822 q 1019 611 1019 686 q 971 389 1019 499 q 834 192 922 279 q 624 50 746 104 q 354 -4 501 -4 q 296 -3 325 -4 q 238 -1 267 -3 q 178 0 207 0 q 119 0 149 0 l -114 0 l -108 19 l 33 19 l 375 969 m 560 1306 l 700 1158 l 915 1306 l 939 1306 l 715 1072 l 663 1072 l 540 1306 l 560 1306 "},"":{"ha":1075,"x_min":-1,"x_max":1118,"o":"m 493 414 q 515 477 510 458 q 519 510 519 496 q 516 537 519 522 q 503 564 513 551 q 479 585 494 576 q 439 594 464 594 q 349 569 393 594 q 267 501 306 543 q 197 406 229 460 q 142 298 165 353 q 107 192 119 243 q 94 101 94 140 q 112 29 94 57 q 169 1 129 1 q 251 26 210 1 q 328 86 293 51 q 388 156 363 121 q 419 210 413 190 l 493 414 m 504 175 q 483 106 492 139 q 474 46 474 72 q 508 10 474 10 q 558 26 536 10 q 597 62 581 42 q 623 102 613 82 q 638 131 633 122 l 656 121 q 635 82 649 106 q 599 37 621 58 q 547 -1 576 15 q 479 -17 518 -17 q 388 67 388 -17 q 392 101 388 76 q 403 144 396 125 l 400 144 q 356 92 381 121 q 299 40 331 64 q 231 -1 268 15 q 147 -17 193 -17 q 91 -6 118 -17 q 43 26 64 4 q 10 81 22 47 q -1 160 -1 114 q 21 271 -1 215 q 78 377 43 326 q 160 471 114 428 q 255 546 207 514 q 349 596 303 578 q 432 614 396 614 q 503 590 474 614 q 532 528 532 567 l 535 528 l 715 1036 l 593 1036 l 599 1056 l 819 1056 l 504 175 m 914 738 q 951 755 928 743 q 998 785 975 767 q 1038 830 1021 804 q 1054 888 1054 856 q 1047 935 1054 917 q 1041 932 1044 933 q 1032 928 1038 931 q 1021 926 1026 926 q 1007 925 1015 925 q 967 943 981 925 q 953 982 953 961 q 972 1035 953 1015 q 1026 1056 990 1056 q 1093 1026 1068 1056 q 1118 953 1118 997 q 1092 851 1118 893 q 1031 781 1065 808 q 965 738 997 753 q 919 719 932 724 l 914 738 "},"":{"ha":721,"x_min":-101,"x_max":733,"o":"m 67 -58 q 10 -127 29 -89 q -10 -224 -10 -165 q 5 -298 -10 -268 q 44 -347 19 -328 q 99 -375 68 -367 q 163 -383 131 -383 q 276 -363 222 -383 q 370 -311 329 -343 q 435 -237 411 -279 q 458 -151 458 -196 q 451 -109 458 -129 q 425 -73 443 -89 q 376 -47 407 -57 q 301 -35 346 -36 l 106 -28 l 67 -58 m 182 329 q 211 237 182 261 q 293 213 240 213 q 373 240 339 213 q 429 309 407 268 q 462 398 451 350 q 472 486 472 446 q 441 571 472 547 q 364 594 410 594 q 288 566 321 594 q 231 497 254 538 q 194 411 207 457 q 182 329 182 365 m 328 53 q 462 14 410 49 q 514 -101 514 -21 q 490 -201 514 -149 q 422 -299 467 -254 q 313 -374 378 -344 q 165 -403 249 -403 q 63 -388 111 -403 q -23 -350 14 -374 q -81 -294 -60 -326 q -101 -229 -101 -262 q -85 -167 -101 -196 q -47 -113 -69 -137 q -1 -72 -25 -89 q 40 -44 24 -54 l 79 -24 q 48 -14 65 -19 q 15 3 31 -8 q -12 33 -1 14 q -22 85 -22 53 q 0 162 -22 128 q 75 224 22 196 l 126 251 q 97 297 108 272 q 85 360 85 321 q 111 456 85 410 q 179 537 138 501 q 271 593 221 572 q 368 614 321 614 q 431 606 404 614 q 479 584 458 597 q 514 556 500 571 q 536 526 528 540 q 576 576 553 551 q 643 600 600 600 q 706 575 679 600 q 733 514 733 550 q 719 473 733 489 q 674 457 706 457 q 641 467 654 457 q 628 492 628 476 q 632 511 628 504 q 642 524 636 518 q 651 537 647 529 q 656 558 656 544 q 649 574 656 567 q 629 581 642 581 q 585 560 607 581 q 549 507 564 539 q 563 474 557 496 q 569 435 569 453 q 544 347 569 390 q 477 269 518 304 q 388 214 436 235 q 293 193 339 193 q 195 209 229 193 q 143 236 161 225 l 114 222 q 47 176 69 201 q 24 125 24 150 q 53 80 24 94 q 150 61 83 65 l 328 53 m 311 990 q 319 943 311 968 q 347 897 328 918 q 396 863 365 876 q 469 850 426 850 q 542 862 511 850 q 597 893 574 874 q 638 938 621 913 q 667 990 654 964 l 686 990 q 664 921 678 960 q 625 847 650 882 q 560 788 600 813 q 458 764 519 764 q 367 790 400 764 q 317 851 333 815 q 296 926 300 888 q 292 990 292 964 l 311 990 "},"":{"ha":1003,"x_min":81,"x_max":974,"o":"m 696 0 l 674 0 q 665 24 672 14 q 636 35 657 35 q 603 26 622 35 q 557 8 583 18 q 497 -10 531 -1 q 418 -18 463 -18 q 259 16 324 -18 q 155 105 194 50 q 98 231 115 160 q 81 376 81 301 q 106 540 81 461 q 176 690 132 619 q 278 818 219 760 q 401 918 336 876 q 532 983 465 960 q 660 1007 599 1007 q 740 999 706 1007 q 802 980 775 990 q 851 961 829 969 q 894 953 874 953 q 931 965 917 953 q 953 993 944 976 l 974 989 l 878 721 l 860 721 q 865 761 863 735 q 868 815 868 788 q 851 892 868 860 q 806 946 835 925 q 739 977 778 967 q 656 988 700 988 q 521 946 583 988 q 406 838 458 904 q 313 687 354 771 q 244 518 272 603 q 201 356 215 433 q 186 222 186 278 q 247 55 186 110 q 421 0 308 0 q 551 39 503 0 q 618 132 599 78 l 686 325 l 528 325 l 533 344 l 929 344 l 924 325 l 813 325 l 696 0 m 539 1296 q 547 1249 539 1274 q 574 1203 556 1224 q 624 1169 593 1182 q 697 1156 654 1156 q 770 1167 739 1156 q 825 1199 801 1179 q 865 1244 849 1218 q 894 1296 882 1269 l 914 1296 q 892 1226 906 1265 q 853 1153 878 1188 q 788 1094 828 1118 q 686 1069 747 1069 q 594 1095 628 1069 q 544 1157 561 1121 q 524 1231 528 1193 q 519 1296 519 1269 l 539 1296 "},"":{"ha":540,"x_min":-131,"x_max":651,"o":"m -108 19 l 33 19 l 375 969 l 215 969 l 221 989 l 651 989 l 646 969 l 500 969 l 160 19 l 318 19 l 313 0 l -114 0 l -108 19 m 114 0 q 8 -85 51 -43 q -35 -168 -35 -128 q -15 -219 -35 -200 q 35 -239 4 -239 q 76 -231 61 -239 q 101 -215 92 -222 l 111 -232 q 94 -244 104 -236 q 70 -258 85 -251 q 35 -271 56 -265 q -11 -276 15 -276 q -100 -250 -69 -276 q -131 -183 -131 -224 q -99 -110 -131 -143 q -10 -49 -68 -78 l 83 0 l 114 0 "},"":{"ha":386,"x_min":-97,"x_max":404,"o":"m 274 924 q 292 970 274 951 q 339 989 311 989 q 385 970 367 989 q 404 924 404 951 q 385 877 404 896 q 339 858 367 858 q 292 877 311 858 q 274 924 274 896 m 188 576 l 64 576 l 69 596 l 290 596 l 126 125 q 113 83 119 104 q 106 42 106 61 q 115 13 106 25 q 144 1 125 1 q 188 17 167 1 q 228 52 210 32 q 258 93 246 72 q 276 126 271 114 l 293 119 q 276 85 288 108 q 243 40 264 63 q 192 0 222 17 q 119 -17 161 -17 q 47 2 74 -17 q 19 65 19 21 q 28 117 19 89 q 44 169 36 146 l 188 576 m 147 0 q 42 -85 85 -43 q -1 -168 -1 -128 q 18 -219 -1 -200 q 68 -239 38 -239 q 110 -231 94 -239 q 135 -215 125 -222 l 144 -232 q 128 -244 138 -236 q 103 -258 118 -251 q 69 -271 89 -265 q 22 -276 49 -276 q -67 -250 -36 -276 q -97 -183 -97 -224 q -66 -110 -97 -143 q 24 -49 -35 -78 l 117 0 l 147 0 "},"":{"ha":713,"x_min":19,"x_max":758,"o":"m 457 1056 l 126 125 q 113 83 119 104 q 106 42 106 61 q 115 13 106 25 q 144 1 125 1 q 188 17 167 1 q 228 52 210 32 q 258 93 246 72 q 276 126 271 114 l 293 119 q 276 85 288 108 q 243 40 264 63 q 192 0 222 17 q 119 -17 161 -17 q 47 2 74 -17 q 19 65 19 21 q 28 117 19 89 q 44 169 36 146 l 354 1036 l 231 1036 l 236 1056 l 457 1056 m 554 738 q 592 755 568 743 q 638 785 615 767 q 678 830 661 804 q 694 888 694 856 q 688 935 694 917 q 681 932 685 933 q 672 928 678 931 q 661 926 667 926 q 647 925 656 925 q 607 943 621 925 q 593 982 593 961 q 612 1035 593 1015 q 667 1056 631 1056 q 733 1026 708 1056 q 758 953 758 997 q 732 851 758 893 q 672 781 706 808 q 605 738 638 753 q 560 719 572 724 l 554 738 "},"":{"ha":875,"x_min":-121,"x_max":844,"o":"m 368 969 l 208 969 l 214 989 l 644 989 l 639 969 l 493 969 l 153 19 l 478 19 q 579 51 532 19 q 663 124 626 82 q 726 209 700 167 q 764 272 751 251 l 783 272 l 686 0 l -121 0 l -115 19 l 28 19 l 368 969 m 714 690 q 733 737 714 718 q 779 756 751 756 q 826 737 807 756 q 844 690 844 718 q 826 644 844 663 q 779 625 807 625 q 733 644 751 625 q 714 690 714 663 "},"":{"ha":1081,"x_min":83,"x_max":1001,"o":"m 189 219 q 199 136 189 176 q 233 66 208 96 q 301 18 258 36 q 408 0 343 0 q 558 42 490 0 q 678 150 625 83 q 772 300 732 217 q 838 468 813 383 q 877 630 864 553 q 890 760 890 707 q 839 928 890 868 q 675 988 788 988 q 531 947 597 988 q 411 842 465 907 q 315 694 357 776 q 246 526 274 611 q 203 360 218 440 q 189 219 189 279 m 83 379 q 108 536 83 458 q 176 684 133 614 q 276 813 218 754 q 401 915 335 872 q 538 983 467 958 q 678 1007 608 1007 q 830 970 768 1007 q 930 875 892 933 q 985 745 968 817 q 1001 604 1001 674 q 978 453 1001 529 q 915 309 956 378 q 817 181 874 240 q 693 76 760 121 q 552 7 626 32 q 400 -18 478 -18 q 272 8 331 -18 q 172 83 214 33 q 107 208 131 133 q 83 379 83 282 m 615 1296 q 624 1249 615 1274 q 651 1203 632 1224 q 700 1169 669 1182 q 774 1156 731 1156 q 847 1167 815 1156 q 901 1199 878 1179 q 942 1244 925 1218 q 971 1296 958 1269 l 990 1296 q 968 1226 982 1265 q 929 1153 954 1188 q 864 1094 904 1118 q 763 1069 824 1069 q 671 1095 704 1069 q 621 1157 638 1121 q 600 1231 604 1193 q 596 1296 596 1269 l 615 1296 "},"":{"ha":668,"x_min":0,"x_max":626,"o":"m 92 140 q 126 35 92 69 q 213 1 160 1 q 293 26 256 1 q 361 92 331 51 q 415 183 392 133 q 455 283 439 233 q 479 378 471 333 q 488 450 488 422 q 459 556 488 517 q 360 594 431 594 q 283 571 319 594 q 217 509 247 547 q 164 422 188 471 q 124 323 140 374 q 100 224 108 272 q 92 140 92 176 m 0 218 q 35 374 0 301 q 123 500 69 447 q 242 583 176 553 q 367 614 307 614 q 461 592 421 614 q 528 535 501 569 q 567 458 554 500 q 579 378 579 417 q 544 226 579 297 q 457 100 510 154 q 340 15 404 46 q 217 -17 275 -17 q 127 3 167 -17 q 59 54 88 22 q 15 128 31 86 q 0 218 0 171 m 251 990 q 260 943 251 968 q 287 897 268 918 q 336 863 306 876 q 410 850 367 850 q 483 862 451 850 q 538 893 514 874 q 578 938 561 913 q 607 990 594 964 l 626 990 q 604 921 618 960 q 565 847 590 882 q 500 788 540 813 q 399 764 460 764 q 307 790 340 764 q 257 851 274 815 q 236 926 240 888 q 232 990 232 964 l 251 990 "},"":{"ha":824,"x_min":-67,"x_max":835,"o":"m 31 274 l 49 274 q 36 234 42 253 q 31 192 31 215 q 53 108 31 144 q 111 49 75 72 q 192 13 147 25 q 282 0 236 0 q 392 17 343 0 q 474 66 440 35 q 524 140 507 97 q 542 232 542 182 q 519 323 542 283 q 456 400 496 363 l 357 490 q 252 609 290 550 q 214 743 214 668 q 240 850 214 801 q 311 933 267 899 q 413 988 356 968 q 532 1007 471 1007 q 608 999 575 1007 q 667 982 640 992 q 717 965 694 972 q 764 957 740 957 q 796 967 785 957 q 814 993 807 976 l 835 989 l 739 724 l 722 724 q 730 755 725 735 q 735 806 735 775 q 718 890 735 856 q 674 947 701 925 q 609 978 646 968 q 532 988 572 988 q 440 974 482 988 q 369 936 399 960 q 322 879 339 913 q 306 806 306 846 q 339 702 306 746 q 414 621 372 658 l 538 510 q 623 410 588 465 q 658 286 658 354 q 634 179 658 233 q 562 81 610 125 q 442 10 514 38 q 274 -18 369 -18 q 185 -10 224 -18 q 116 10 147 -1 q 58 29 85 21 q 4 38 31 38 q -29 24 -14 38 q -47 -6 -44 11 l -67 -1 l 31 274 m 340 -4 l 232 -107 l 235 -110 q 267 -96 247 -103 q 310 -89 286 -89 q 344 -94 326 -89 q 376 -112 363 -100 q 399 -143 390 -124 q 408 -189 408 -162 q 395 -251 408 -224 q 359 -299 382 -279 q 307 -330 336 -319 q 246 -340 278 -340 q 181 -325 208 -340 q 143 -300 153 -310 l 156 -283 q 190 -308 169 -294 q 240 -321 210 -321 q 284 -306 267 -321 q 312 -268 301 -290 q 326 -222 322 -246 q 331 -179 331 -197 q 279 -117 331 -117 q 241 -123 257 -117 q 218 -135 225 -129 l 201 -112 l 313 -4 l 340 -4 "},"":{"ha":489,"x_min":-61,"x_max":439,"o":"m 144 308 q 106 363 124 336 q 89 428 89 390 q 106 493 89 460 q 151 553 122 526 q 222 597 181 581 q 310 614 263 614 q 403 588 368 614 q 439 522 439 563 q 382 464 439 464 q 348 475 363 464 q 333 507 333 486 q 342 535 333 526 q 351 558 351 544 q 304 594 351 594 q 247 585 271 594 q 206 558 222 575 q 183 521 190 542 q 175 479 175 500 q 189 427 175 451 q 228 369 203 403 l 310 263 q 333 219 326 242 q 339 172 339 196 q 315 90 339 125 q 256 31 292 54 q 180 -5 221 7 q 103 -17 139 -17 q 42 -10 71 -17 q -10 10 13 -3 q -47 44 -33 24 q -61 90 -61 64 q -41 138 -61 122 q 10 154 -21 154 q 33 145 22 154 q 43 124 43 136 q 36 92 43 107 q 29 61 29 78 q 51 15 29 28 q 107 1 72 1 q 169 13 142 1 q 215 40 196 24 q 243 78 233 57 q 253 117 253 99 q 244 167 253 144 q 214 217 235 189 l 144 308 m 171 -4 l 63 -107 l 65 -110 q 97 -96 78 -103 q 140 -89 117 -89 q 175 -94 157 -89 q 207 -112 193 -100 q 230 -143 221 -124 q 239 -189 239 -162 q 226 -251 239 -224 q 190 -299 213 -279 q 138 -330 167 -319 q 76 -340 108 -340 q 11 -325 39 -340 q -26 -300 -17 -310 l -14 -283 q 20 -308 0 -294 q 71 -321 40 -321 q 115 -306 97 -321 q 142 -268 132 -290 q 157 -222 153 -246 q 161 -179 161 -197 q 110 -117 161 -117 q 72 -123 88 -117 q 49 -135 56 -129 l 32 -112 l 143 -4 l 171 -4 "}}}
